<svg width="509" height="93" viewBox="0 0 509 93" fill="none" xmlns="http://www.w3.org/2000/svg">
<path d="M55.5167 63.837H15.175V64.4789C15.175 72.3995 21.4364 77.4982 30.883 77.4982C38.8036 77.4982 46.4577 74.9428 50.8055 72.133L55.4077 85.1523C48.7709 89.2337 40.0873 91.5348 30.8951 91.5348C12.2563 91.5348 0 81.955 0 59.3559V57.3092C0 34.0682 11.239 24.5005 27.7099 24.5005C44.1808 24.5005 55.5409 34.0803 55.5409 57.3092V63.8249L55.5167 63.837ZM15.175 52.8645H40.1963V52.2226C40.1963 43.0303 34.9644 38.5614 27.6857 38.5614C20.407 38.5614 15.175 43.0303 15.175 52.2226V52.8645Z" fill="#1C2534"/>
<path d="M75.815 0C80.7926 0 84.8861 3.96029 84.8861 8.9379C84.8861 13.9155 80.8047 18.009 75.815 18.009C70.8252 18.009 66.8771 13.9276 66.8771 8.9379C66.8771 3.94818 70.9585 0 75.815 0ZM68.5363 26.4261H83.2148V90.2631H68.5363V26.4261Z" fill="#1C2534"/>
<path d="M99.6974 30.2653C105.826 26.8137 116.423 24.5247 126.899 24.5247C143.115 24.5247 155.117 34.7343 155.117 57.3334V90.2752H140.439V56.316C140.439 42.9092 134.698 38.5735 125.76 38.5735C120.528 38.5735 116.956 39.3365 114.521 40.2327V90.2873H99.7096V30.2653H99.6974Z" fill="#1C2534"/>
<path d="M171.443 72.133C172.981 73.0292 181.144 77.4982 192.516 77.4982C198.644 77.4982 205.414 76.4809 205.414 72.133C205.414 67.7852 199.153 65.6173 192.262 64.4668C182.306 62.6743 168.258 59.7435 168.258 44.2899C168.258 28.8363 181.786 24.5005 194.684 24.5005C206.553 24.5005 214.352 28.0733 219.075 30.883L214.606 43.7812C210.9 41.2258 203.501 38.5493 194.684 38.5493C188.689 38.5493 183.069 39.9542 183.069 43.9144C183.069 48.7709 190.602 49.0253 194.817 49.7883C212.56 52.8523 220.226 60.5186 220.226 72.6417C220.226 88.3496 204.518 91.5348 192.516 91.5348C181.665 91.5348 172.981 88.725 166.853 85.1523L171.443 72.133Z" fill="#1C2534"/>
<path d="M276.263 65.1935H261.512V79.109H257.685V65.1935H242.934V61.6207H257.685V47.7052H261.512V61.6207H276.263V65.1935Z" fill="#34B298"/>
<path d="M291.548 30.2653C297.676 26.8137 308.273 24.5247 318.749 24.5247C334.965 24.5247 346.967 34.7343 346.967 57.3334V90.2752H332.289V56.316C332.289 42.9092 326.548 38.5735 317.61 38.5735C312.378 38.5735 308.806 39.3365 306.371 40.2327V90.2873H291.56V30.2653H291.548Z" fill="#1C2534"/>
<path d="M414.243 86.436C408.115 89.8876 397.518 92.1766 387.042 92.1766C370.826 92.1766 358.824 81.967 358.824 59.368V26.4261H373.502V60.3853C373.502 73.7921 379.243 78.1279 388.181 78.1279C393.413 78.1279 396.985 77.3649 399.42 76.4687V26.4261H414.231V86.436H414.243Z" fill="#1C2534"/>
<path d="M430.327 0.89624H445.138V68.1848C445.138 75.2092 448.336 77.5103 453.18 77.5103C456.244 77.5103 459.187 76.4929 461.222 74.9548L465.812 87.853C461.985 90.2752 456.753 91.559 451 91.559C439.131 91.559 430.315 85.4308 430.315 68.0637V0.89624H430.327Z" fill="#1C2534"/>
<path d="M473.49 0.89624H488.302V68.1848C488.302 75.2092 491.499 77.5103 496.344 77.5103C499.408 77.5103 502.351 76.4929 504.385 74.9548L508.975 87.853C505.148 90.2752 499.916 91.559 494.164 91.559C482.295 91.559 473.478 85.4308 473.478 68.0637V0.89624H473.49Z" fill="#1C2534"/>
</svg>
