<svg width="385" height="80" viewBox="0 0 385 80" fill="none" xmlns="http://www.w3.org/2000/svg">
<path d="M129.935 0H132.344C135.591 0 136.638 1.04734 136.638 4.2941V13.406C136.638 16.6527 135.591 17.7001 132.344 17.7001C129.097 17.7001 127.526 19.3758 127.526 22.6226V23.0415H132.449C135.696 23.0415 136.638 24.1936 136.638 27.2309V36.5523C136.638 39.799 135.696 40.7416 132.449 40.7416H127.526V73.314C127.526 76.5608 126.479 77.5034 123.232 77.5034H108.779C105.532 77.5034 104.485 76.5608 104.485 73.314V40.7416H102.181C99.1434 40.7416 97.9913 39.799 97.9913 36.5523V27.2309C97.9913 24.1936 99.1434 23.0415 102.181 23.0415H104.485V22.8321C104.485 7.6456 112.968 0 129.935 0ZM167.8 21.4705H170.942C173.979 21.4705 175.131 22.4131 175.131 25.6599V36.8665C175.131 39.9038 173.979 41.0558 170.942 41.0558H166.857C165.81 41.0558 165.077 41.0558 164.553 41.1606C164.239 41.1606 164.03 41.37 164.03 41.789V73.314C164.03 76.3513 162.877 77.5034 159.84 77.5034H145.177C142.14 77.5034 140.988 76.3513 140.988 73.314V31.525C140.988 27.7546 141.826 26.2883 145.492 24.9268C150.624 22.9368 158.06 21.7847 167.8 21.4705ZM179.353 32.3629C183.228 25.1362 191.292 21.4705 203.546 21.4705C221.665 21.4705 228.787 29.6398 228.787 44.6168V69.4388C228.787 73.5235 228.054 74.6755 224.703 76.0371C220.094 78.027 212.972 79.0744 203.232 79.0744C193.282 79.0744 186.579 77.7128 182.914 74.9897C179.248 72.3714 177.363 67.8678 177.363 61.5837C177.363 54.776 179.353 50.063 183.333 47.5494C187.312 45.1405 194.12 43.8837 203.756 43.8837H205.85V40.8464C205.85 38.8564 204.594 37.8091 202.185 37.8091C200.614 37.8091 199.776 38.1233 198.938 38.9611C198.205 39.6943 198.31 39.4848 197.576 40.4274L197.053 41.1606C195.691 42.941 194.958 43.36 190.873 42.1032L181.657 38.3327C178.724 37.0759 177.991 35.086 179.353 32.3629ZM205.85 64.3068V58.0228H203.337C200.718 58.0228 199.462 59.1749 199.462 61.479C199.462 63.6784 200.718 64.7258 203.127 64.7258C204.175 64.7258 205.013 64.7258 205.536 64.621C205.746 64.621 205.85 64.5163 205.85 64.3068ZM233.626 55.0902V45.3499C233.626 30.2682 242.529 21.4705 260.543 21.4705C273.425 21.4705 281.49 27.5451 284.737 36.657C285.889 39.9038 285.156 41.2653 281.909 42.4174L269.236 46.6067C265.884 47.7588 264.523 47.0257 263.266 43.7789C262.114 40.9511 261.171 40.3227 259.391 40.3227C257.506 40.3227 256.563 41.5795 256.563 44.0931V56.4518C256.563 58.8607 257.506 60.1175 259.391 60.1175C261.381 60.1175 262.114 59.6985 263.266 56.8707C264.523 53.6239 265.884 52.9955 269.236 54.1476L282.328 58.0228C285.47 58.9654 286.412 60.9553 285.156 64.0974C280.966 74.0471 272.378 79.0744 259.391 79.0744C241.9 79.0744 233.626 70.4862 233.626 55.0902ZM298.812 10.4734H313.475C316.512 10.4734 317.664 11.6255 317.664 14.6628V23.0415H322.691C325.729 23.0415 326.776 24.1936 326.776 27.2309V36.5523C326.776 39.5896 325.729 40.7416 322.691 40.7416H317.664V54.1476C317.664 57.3944 319.235 59.0701 322.482 59.0701C325.729 59.0701 326.776 60.1175 326.776 63.3642V74.5708C326.776 77.8176 325.729 78.8649 322.482 78.8649C303.63 78.8649 294.623 72.4761 294.623 56.0328V40.7416H291.062C288.024 40.7416 286.977 39.799 286.977 36.5523V27.2309C286.977 23.9841 288.024 23.0415 291.062 23.0415H294.623V14.6628C294.623 11.6255 295.775 10.4734 298.812 10.4734ZM330.792 55.2997V45.2452C330.792 30.2682 340.427 21.4705 357.709 21.4705C375.304 21.4705 384.73 30.2682 384.73 45.2452V55.2997C384.73 70.2767 375.304 79.0744 357.709 79.0744C340.427 79.0744 330.792 70.2767 330.792 55.2997ZM361.793 56.2423V44.3026C361.793 41.9984 360.432 40.8464 357.709 40.8464C355.09 40.8464 353.729 41.9984 353.729 44.3026V56.2423C353.729 58.4417 355.09 59.5938 357.709 59.5938C360.432 59.5938 361.793 58.4417 361.793 56.2423Z" fill="#1E293B"/>
<mask id="mask0_1125_4091" style="mask-type:luminance" maskUnits="userSpaceOnUse" x="0" y="0" width="74" height="78">
<path d="M73.2199 77.5398V0.375488L0 0.375488V77.5398H73.2199Z" fill="white"/>
</mask>
<g mask="url(#mask0_1125_4091)">
<path d="M0.000390001 0.375528L0.000387768 51.4581L36.6161 77.5399L73.2203 51.4581L0.000390001 0.375528Z" fill="#0369A1"/>
<path d="M73.2203 0.375531V51.4581L36.6161 77.5399L0.000387768 51.4581L73.2203 0.375531Z" fill="#38BDF8"/>
</g>
</svg>
