<svg width="249" height="249" viewBox="0 0 249 249" fill="none" xmlns="http://www.w3.org/2000/svg">
<path d="M131.669 244.338C62.3751 244.338 14 190.92 14 127.042C14 62.791 59.7602 9 126.252 9C198.161 9 240 58.8686 240 126.669C240 131.338 239.813 136.008 239.252 141.424C238.693 146.094 235.89 148.335 231.408 148.335H79.1851C87.59 173.737 109.256 187.932 134.284 187.932C151.467 187.932 163.795 182.702 175.375 174.484C179.298 171.495 182.846 172.056 185.647 175.978L208.622 208.664C211.236 212.4 210.862 216.135 207.314 218.937C187.329 234.439 161.741 244.338 131.669 244.338ZM78.6248 101.641H177.243C170.332 76.9865 152.589 63.3515 128.307 63.3515C104.587 63.3515 85.909 77.3598 78.6248 101.641Z" fill="#181A23"/>
</svg>
