<svg width="491" height="210" viewBox="0 0 491 210" fill="none" xmlns="http://www.w3.org/2000/svg">
<path d="M200.279 85.1726C240.836 45.1168 289.403 1.55611 318.944 0.0540186C325.954 -0.446688 330.46 2.5575 332.463 8.06518C334.466 18.0791 327.456 33.6007 313.437 48.121C284.396 80.1656 233.826 103.698 188.262 111.709C180.752 113.211 180.251 114.213 176.246 117.718C162.727 130.736 158.22 137.746 137.692 159.276C135.188 161.779 132.685 165.785 137.191 167.287L149.709 171.292C221.809 193.824 299.417 207.342 320.947 190.819C322.449 189.818 322.95 190.319 322.95 191.821C322.95 193.323 318.444 195.826 315.439 197.329C286.399 209.345 219.806 198.33 147.706 176.8L132.184 172.794C130.181 171.292 126.676 171.793 123.172 176.299L116.162 183.309C105.146 194.825 89.6249 207.843 75.6053 209.345C25.5356 215.354 0.500697 126.229 0 119.72L0.500697 116.716C2.50349 115.214 3.50488 115.214 4.50628 116.716C10.014 122.224 63.0879 144.255 123.672 164.283C125.675 164.283 127.177 162.78 128.679 161.278L137.191 151.765L167.233 118.719C170.738 115.214 172.24 113.712 165.23 114.213C158.721 114.213 152.212 114.213 146.204 113.712C122.17 112.21 94.6318 101.695 89.6249 87.1754C87.1214 80.6663 87.6221 71.1531 94.1311 68.6496C96.1339 68.1489 97.636 67.6482 99.1381 68.1489C99.6388 68.1489 100.64 68.6496 100.64 69.1503C101.141 70.6524 98.6374 72.1545 96.1339 72.1545C92.1283 73.6565 91.6277 81.6677 93.6304 84.1712C98.6374 97.69 122.671 106.202 147.706 108.204C155.216 108.705 162.727 108.705 170.237 108.204C174.243 108.204 177.748 107.203 183.756 101.195C188.763 96.6886 193.269 91.181 200.279 85.1726ZM310.432 44.6161C322.95 32.0986 329.96 15.5756 327.957 10.068C325.954 6.56309 322.95 4.5603 318.444 5.06099C291.907 7.56447 239.834 50.1238 202.783 89.6789L192.769 99.6933C189.264 105.2 191.767 105.2 195.272 104.699C235.328 96.6886 277.386 77.1614 310.432 44.6161ZM111.656 179.804L116.663 174.797C118.665 171.292 120.167 169.79 116.162 168.288C69.597 154.269 32.5453 138.246 12.5174 128.733C10.5146 126.73 7.00977 126.73 8.01116 130.736C15.5216 157.273 40.5565 210.847 77.6081 204.338C87.6221 202.836 99.1381 193.323 111.656 179.804ZM261.646 134.741C262.647 131.236 261.646 130.736 258.642 132.739C250.13 138.747 238.113 144.755 232.605 146.257C220.088 148.761 218.586 140.75 223.092 132.238C224.594 130.235 227.598 126.229 223.092 128.232C215.582 131.737 213.078 133.74 213.078 131.737C212.077 130.736 213.579 129.234 216.583 127.732C224.594 123.225 230.603 119.72 239.114 114.213C242.119 111.709 245.123 111.209 246.124 112.21C248.127 113.712 247.626 115.715 241.117 119.72C236.11 123.726 232.605 128.232 230.603 130.736C227.598 134.741 225.095 138.747 228.099 140.249C237.112 144.255 261.646 125.228 272.661 117.217C275.665 115.715 277.167 114.713 278.669 115.214C281.674 116.716 278.169 120.221 275.665 122.725C270.158 127.231 262.647 138.246 270.158 140.75C280.672 144.255 313.218 127.231 324.233 121.223C329.741 118.719 335.248 118.719 321.229 127.231C303.704 136.744 280.672 148.761 267.153 146.758C262.146 145.256 258.642 141.25 261.646 134.741ZM404.036 40.1098C419.557 53.128 312.408 118.218 305.398 120.221C299.89 123.726 297.387 128.733 292.881 134.241C292.38 135.242 292.38 135.743 292.38 135.743C292.38 135.743 292.881 135.743 293.381 135.743C297.387 134.241 300.892 131.236 304.897 129.234C307.401 127.732 304.397 126.229 307.401 123.726C307.902 123.225 309.404 122.725 310.906 122.725C312.408 122.725 311.406 123.225 312.909 123.225C313.91 123.225 314.911 123.225 315.913 122.725C324.925 116.216 345.454 105.2 356.469 105.2C361.977 105.2 364.981 106.702 363.98 112.21C362.478 119.72 351.963 124.227 341.448 127.732C332.936 129.734 322.923 130.235 320.419 130.235C316.413 130.235 316.914 133.74 318.416 135.242C327.93 145.256 345.454 143.754 360.475 137.746C369.988 133.74 380.002 127.732 395.023 120.221C396.525 118.719 398.027 119.72 398.528 120.221C398.528 121.723 392.019 126.73 390.517 127.231C379.001 133.74 369.988 139.248 360.475 142.753C342.45 150.263 322.923 149.762 311.907 137.746C310.405 136.243 309.404 133.74 305.398 135.242C301.893 136.243 283.367 148.761 281.865 152.266C280.363 153.768 279.362 154.269 278.861 154.269C267.345 154.269 293.381 124.727 296.886 119.72C310.405 103.197 325.426 87.6761 337.943 76.16C351.462 63.1419 383.507 39.1084 399.529 39.1084C400.531 39.1084 402.033 39.6091 404.036 40.1098ZM325.927 94.1852L316.413 104.699C313.409 108.204 310.405 112.21 318.917 106.702C337.443 96.1879 379.501 67.6482 389.515 58.1349C394.522 52.6273 403.535 44.1154 398.027 44.1154C380.002 44.1154 338.444 80.1656 325.927 94.1852ZM325.927 122.224C323.423 123.726 322.422 124.727 326.427 124.727C333.938 124.727 342.95 122.725 350.962 118.719C356.97 116.216 361.977 110.708 356.469 110.708C349.96 110.708 332.936 118.218 325.927 122.224ZM404.18 118.218C403.68 116.216 401.677 114.713 397.17 114.213C382.65 112.711 356.113 128.232 347.101 140.75C343.596 145.256 345.599 147.259 352.108 144.755C363.123 140.75 374.138 134.741 386.155 126.73C392.664 122.224 396.67 126.73 390.161 130.736C384.653 137.245 384.152 145.757 398.673 141.25C408.687 137.746 424.208 131.737 441.733 122.224C451.747 117.217 447.24 123.726 444.737 124.727L434.222 130.736C421.705 137.746 400.175 147.759 391.162 147.759C384.653 147.759 380.147 146.758 380.647 139.248C381.148 136.744 380.147 136.243 372.636 140.75C360.62 148.26 352.108 150.764 348.603 151.264C338.589 152.766 336.586 146.758 342.094 138.246C351.607 122.224 387.157 104.199 403.179 110.708C406.183 112.21 408.687 114.213 408.687 118.218C408.687 120.722 404.18 123.726 404.18 118.218ZM395.222 130.235C394.221 128.232 393.22 127.732 391.718 125.729C390.215 123.225 393.22 120.221 395.222 120.221C397.225 120.221 398.227 120.722 400.73 125.228C400.73 126.73 401.732 127.732 405.236 125.729L416.252 119.72C424.764 114.213 432.775 110.708 441.287 105.2C444.792 101.695 448.797 100.193 450.299 101.695C453.303 103.197 448.797 107.203 444.792 109.206C443.289 109.706 440.285 116.716 437.782 122.725C434.778 128.733 434.778 128.733 434.277 130.235C433.776 131.236 433.776 132.238 433.275 132.739C433.275 134.241 433.776 135.242 435.278 135.242C443.79 135.743 465.821 130.235 483.846 120.722C494.361 115.214 489.354 121.723 487.351 123.225C472.831 132.739 449.798 138.747 432.775 140.249C430.271 140.249 428.769 141.25 427.267 143.754C421.759 153.267 413.248 157.773 406.739 157.273C394.221 155.771 396.725 136.744 395.222 130.235ZM421.759 134.741C424.263 134.741 426.266 133.239 428.769 129.734L435.779 115.715C436.78 113.712 435.779 113.211 433.275 114.713L409.743 128.232C406.739 129.734 406.238 131.236 409.242 131.737C413.248 133.74 417.253 134.741 421.759 134.741ZM420.758 144.255C422.761 140.75 420.257 140.75 418.755 140.249C415.25 138.747 410.744 138.747 405.737 136.744C402.232 135.242 401.231 133.239 401.732 138.747C402.733 141.751 402.232 153.267 409.743 151.765C413.748 151.765 418.255 147.759 420.758 144.255Z" fill="white"/>
</svg>
