<svg width="1615" height="991" viewBox="0 0 1615 991" fill="none" xmlns="http://www.w3.org/2000/svg">
<path d="M239.834 88.1228C248.847 82.1144 280.891 43.5607 290.405 12.0168C295.412 3.50487 300.919 0 305.926 0C313.937 0 319.946 7.51045 319.946 15.5216C319.946 19.0265 318.944 22.0307 316.942 25.0349C314.438 32.0447 287.4 69.0963 282.394 135.689C265.87 360.502 109.152 828.154 50.5704 946.319C52.5732 945.317 54.576 943.815 56.5788 942.313C120.167 894.747 429.098 816.638 582.812 816.638C611.853 816.638 635.385 819.141 650.406 825.65C658.417 829.155 661.422 834.663 661.422 840.171C661.422 848.682 654.412 856.694 646.401 856.694C645.399 856.694 643.897 856.694 642.896 856.193C614.857 846.68 597.833 837.667 562.283 837.667H559.279C378.527 841.172 136.19 893.245 68.5955 958.335C58.5816 965.846 47.5662 979.865 37.5523 984.372C27.0376 988.878 18.5258 990.881 12.5174 990.881C4.00558 990.881 0 986.875 0 981.367C0 973.857 8.51186 962.341 24.0335 954.83H24.5342C64.0893 954.83 203.784 395.551 262.866 130.682L271.879 96.134L266.371 102.643C264.368 104.145 261.865 104.646 259.361 104.646C250.85 104.646 240.836 98.1367 239.834 88.1228ZM380.397 513.215C341.844 571.296 317.81 629.878 317.81 658.417C317.81 668.932 321.315 675.441 328.825 675.441C329.827 675.441 331.329 674.94 332.33 674.94C362.372 666.929 440.982 555.774 442.484 527.735C443.986 517.721 448.993 513.716 454 513.716C463.012 513.716 473.527 525.232 473.527 538.25C473.527 538.751 464.514 576.804 464.514 610.35C464.514 631.38 468.019 649.906 479.535 655.914C481.538 656.915 484.542 657.416 487.546 657.416C527.602 657.416 638.256 567.791 638.757 567.29C641.261 565.788 643.764 564.787 645.767 564.787C651.775 564.787 656.282 570.295 656.282 576.804C656.282 578.306 655.781 579.808 655.28 581.811C655.28 582.311 544.626 670.434 489.049 670.434C483.04 670.434 477.533 669.433 473.026 666.929C451.496 655.413 445.989 624.871 445.989 595.33V591.324C419.452 637.388 369.382 703.48 329.827 703.48C324.82 703.48 319.813 702.479 315.307 699.975C298.283 690.963 291.774 672.437 291.774 649.906C291.774 588.82 338.339 499.196 338.339 498.695C341.343 489.682 348.853 485.677 356.364 485.677C368.38 485.677 380.898 495.19 380.898 508.208C380.898 509.71 380.898 511.212 380.397 513.215ZM661.867 518.723C663.37 517.721 664.872 516.72 665.873 515.719L671.381 512.214C688.404 499.196 706.43 486.678 722.953 475.663C765.011 447.624 786.04 435.607 812.077 435.106C820.589 435.607 824.093 440.614 824.093 447.624C824.093 453.131 822.091 459.14 818.085 465.649C815.081 465.148 812.077 465.148 809.073 465.148C784.538 465.148 755.999 477.666 733.968 492.687C705.929 510.712 661.367 544.258 634.83 565.288C626.318 587.819 620.31 603.841 612.298 626.373C647.347 629.377 679.392 631.38 709.434 631.38C788.043 631.38 856.639 619.363 943.76 588.82C946.264 587.318 948.266 586.818 950.269 586.818C954.776 586.818 957.279 591.324 957.279 596.832C957.279 602.339 954.776 608.848 949.268 611.853C885.179 634.384 800.06 640.392 719.448 640.392C680.894 640.392 642.841 638.89 609.294 637.388C585.261 701.978 551.714 852.688 527.18 917.779C525.177 922.285 515.664 925.79 507.653 925.79C500.643 925.79 494.634 923.286 494.634 915.776C494.634 913.773 495.135 910.769 496.637 907.765L504.648 884.733C519.169 815.136 548.71 726.512 585.761 634.384C578.251 632.381 573.244 629.878 570.24 626.873C567.736 624.37 566.735 621.366 566.735 618.362C566.735 604.843 582.757 585.316 607.291 563.786C610.796 560.281 614.802 556.776 619.308 553.271C683.397 404.564 760.505 255.356 821.089 163.227C832.105 145.202 842.119 135.689 848.628 135.689C850.13 135.689 851.632 136.19 853.134 137.692C854.636 139.194 855.637 141.698 855.637 145.202C847.126 185.258 841.618 164.73 828.099 176.246C772.021 262.366 707.431 397.554 649.35 528.236L661.867 518.723ZM590.768 621.366C593.773 613.355 597.277 604.843 600.782 596.832C591.77 605.343 585.761 610.851 585.761 612.353L586.262 612.854C587.264 613.855 588.265 617.861 590.768 621.366ZM1023.2 575.302C1016.19 582.311 1013.19 584.815 1004.68 592.826C965.122 630.378 920.059 672.437 898.529 672.437C898.028 672.437 897.027 671.936 896.026 671.936C890.518 670.935 886.512 667.931 883.008 663.925C879.002 658.918 877.5 652.91 877.5 645.9C877.5 643.396 877.5 640.893 878.001 638.39C879.002 630.378 882.006 620.364 887.013 610.35C901.533 578.306 932.577 540.753 971.13 529.237C981.144 526.233 990.157 525.232 998.168 525.232C1013.69 525.232 1025.21 530.239 1032.72 537.749C1047.74 525.232 1065.26 512.714 1074.77 512.714C1076.28 512.714 1077.78 513.215 1078.78 513.716C1085.29 514.717 1088.79 521.226 1088.79 532.242C1088.79 544.258 1084.79 561.282 1076.28 582.812C1070.77 597.833 1068.27 610.35 1068.27 620.364C1068.27 646.401 1084.79 655.914 1109.32 655.914C1172.91 655.914 1291.08 588.82 1308.6 566.79C1311.6 560.781 1315.11 558.779 1318.11 558.779C1322.62 558.779 1325.62 562.784 1325.62 568.292C1325.62 571.296 1324.62 574.3 1322.12 577.304C1316.11 585.816 1181.92 664.426 1103.82 664.426C1071.77 664.426 1049.24 650.907 1049.24 613.355C1049.24 603.341 1050.74 591.825 1054.25 577.805C1057.25 558.779 1063.76 541.254 1063.76 537.249V536.748C1063.76 536.748 1056.25 543.758 1044.73 554.773C1046.74 560.781 1046.74 566.79 1046.74 569.794V571.797C1042.23 578.306 1036.22 581.31 1030.71 581.31C1028.71 581.31 1026.71 580.809 1024.7 579.808L1023.2 575.302ZM1004.18 562.283C1001.67 560.281 999.169 559.78 996.165 559.78C972.132 559.78 930.073 614.356 930.073 625.872C930.073 627.374 931.074 628.376 933.077 628.376C942.591 628.376 972.632 604.342 1004.18 562.283ZM1347.79 549.265C1347.79 548.765 1376.83 507.207 1376.83 493.187C1376.83 490.183 1375.83 488.18 1372.83 488.18C1370.32 488.18 1366.82 489.182 1362.31 491.685C1352.3 496.692 1334.77 512.214 1319.25 532.742C1308.74 546.762 1304.73 559.78 1304.73 572.297C1304.73 604.843 1334.27 634.384 1358.31 673.438C1404.37 640.392 1443.93 615.858 1495 590.823C1524.04 576.303 1562.09 557.777 1596.64 545.26C1608.15 546.261 1614.16 555.774 1614.16 564.787C1614.16 570.295 1611.66 575.802 1606.65 578.806C1572.1 582.812 1541.56 596.331 1513.02 610.35C1461.45 635.385 1413.38 656.915 1366.82 690.963C1375.83 707.486 1379.84 727.013 1379.84 746.54C1379.84 821.645 1323.26 906.763 1256.16 906.763C1249.66 906.763 1243.15 905.762 1236.64 904.26C1216.61 899.754 1208.6 880.226 1208.6 860.199C1208.6 852.688 1210.1 845.178 1212.1 838.168C1222.62 804.621 1264.68 746.54 1349.29 682.952C1330.27 650.907 1278.7 610.35 1278.7 563.285C1278.7 549.265 1283.2 534.745 1294.72 519.223C1313.24 494.189 1342.28 479.168 1353.3 473.66C1364.82 468.653 1373.83 466.65 1380.84 466.65C1394.36 466.65 1400.37 474.161 1401.87 486.177C1402.37 488.681 1402.37 491.184 1402.37 494.189C1402.37 524.731 1385.84 563.285 1385.84 563.786C1381.84 569.293 1375.33 571.296 1368.82 571.296C1358.31 571.296 1347.29 564.787 1347.29 553.772C1347.29 552.27 1347.29 550.767 1347.79 549.265ZM1356.3 698.473C1280.7 756.554 1240.64 814.635 1231.13 844.176C1229.63 848.682 1228.63 854.19 1228.63 859.197C1228.63 867.208 1231.63 874.719 1241.14 877.222C1245.65 878.724 1250.16 879.225 1255.16 879.225C1309.24 879.225 1363.31 797.111 1363.31 734.023C1363.31 721.005 1361.31 708.988 1356.3 698.473Z" fill="white"/>
</svg>
