<svg width="1326" height="271" viewBox="0 0 1326 271" fill="none" xmlns="http://www.w3.org/2000/svg">
<path d="M106.856 270.533C43.9298 270.533 0 222.024 0 164.016C0 105.669 41.5552 56.8208 101.937 56.8208C167.238 56.8208 205.232 102.107 205.232 163.677C205.232 167.917 205.062 172.158 204.553 177.076C204.045 181.317 201.5 183.352 197.43 183.352H59.195C66.8276 206.42 86.5028 219.31 109.231 219.31C124.835 219.31 136.03 214.561 146.546 207.098C150.108 204.384 153.33 204.893 155.874 208.455L176.737 238.137C179.111 241.53 178.772 244.922 175.55 247.466C157.401 261.544 134.164 270.533 106.856 270.533ZM58.6862 140.949H148.242C141.966 118.56 125.853 106.178 103.803 106.178C82.2624 106.178 65.3011 118.899 58.6862 140.949ZM313.379 56.8208C371.895 56.8208 419.726 103.973 419.726 162.999C419.726 222.194 372.235 269.855 313.379 269.855C290.142 269.855 272.841 261.883 260.12 250.01L255.88 260.187C254.353 263.749 251.809 265.445 248.078 265.445H214.325C209.915 265.445 207.54 263.07 207.54 258.66V6.7846C207.54 2.3746 209.915 0 214.325 0H258.424C262.834 0 265.209 2.3746 265.209 6.7846V72.2548C277.421 62.7568 293.025 56.8208 313.379 56.8208ZM312.361 214.731C341.026 214.731 362.058 193.699 362.058 163.847C362.058 133.995 340.687 111.945 312.022 111.945C283.527 111.945 261.647 133.995 261.647 163.847C261.647 193.699 283.866 214.731 312.361 214.731ZM540.543 56.8208C590.919 56.8208 623.823 93.1178 623.823 148.412V258.66C623.823 263.07 621.449 265.445 617.039 265.445H572.939C568.53 265.445 566.155 263.07 566.155 258.66V154.857C566.155 127.549 551.907 109.57 527.653 109.57C501.532 109.57 479.822 130.263 479.822 152.313V258.66C479.822 263.07 477.447 265.445 473.037 265.445H428.938C424.528 265.445 422.153 263.07 422.153 258.66V66.9968C422.153 62.5878 424.528 60.2128 428.938 60.2128H462.691C466.422 60.2128 468.967 61.9088 470.493 65.4708L477.786 82.9408C493.391 67.8458 519.172 56.8208 540.543 56.8208ZM728.205 270.533C665.279 270.533 621.349 222.024 621.349 164.016C621.349 105.669 662.904 56.8208 723.286 56.8208C788.588 56.8208 826.581 102.107 826.581 163.677C826.581 167.917 826.411 172.158 825.902 177.076C825.394 181.317 822.849 183.352 818.779 183.352H680.544C688.176 206.42 707.852 219.31 730.58 219.31C746.184 219.31 757.379 214.561 767.895 207.098C771.457 204.384 774.679 204.893 777.223 208.455L798.086 238.137C800.46 241.53 800.121 244.922 796.899 247.466C778.75 261.544 755.513 270.533 728.205 270.533ZM680.035 140.949H769.591C763.315 118.56 747.202 106.178 725.152 106.178C703.611 106.178 686.65 118.899 680.035 140.949ZM937.272 56.8208C951.689 56.8208 965.258 61.0608 978.488 68.8628C982.22 71.2378 983.068 74.2908 981.032 78.1918L961.527 114.828C959.491 118.73 956.269 119.578 952.368 117.373C944.396 112.963 936.763 110.588 928.961 110.588C908.268 110.588 886.558 128.228 886.558 163.507V258.66C886.558 263.07 884.183 265.445 879.773 265.445H835.674C831.264 265.445 828.889 263.07 828.889 258.66V66.9968C828.889 62.5878 831.264 60.2128 835.674 60.2128H869.427C873.158 60.2128 875.702 61.9088 877.229 65.4708L885.54 85.3158C895.886 68.0148 914.035 56.8208 937.272 56.8208Z" fill="#020617"/>
<path d="M1321.14 27.4448H1268.54C1266.38 27.4448 1264.62 29.1972 1264.62 31.3589V259.986C1264.62 262.147 1266.38 263.9 1268.54 263.9H1321.14C1323.3 263.9 1325.05 262.147 1325.05 259.986V31.3589C1325.05 29.1972 1323.3 27.4448 1321.14 27.4448Z" fill="#020617"/>
<path d="M1263.65 58.3289L1218.09 32.0293C1216.22 30.9484 1213.83 31.5899 1212.75 33.462L1098.43 231.459C1097.35 233.331 1097.99 235.724 1099.87 236.805L1145.42 263.105C1147.29 264.186 1149.68 263.544 1150.76 261.672L1265.08 63.6757C1266.16 61.8036 1265.52 59.4098 1263.65 58.3289Z" fill="#020617"/>
<path d="M1150.86 142.068L1124.56 96.5157C1123.48 94.6436 1121.09 94.0022 1119.21 95.083L921.217 209.396C919.345 210.477 918.703 212.871 919.784 214.743L946.084 260.295C947.165 262.168 949.559 262.809 951.431 261.728L1149.43 147.415C1151.3 146.334 1151.94 143.94 1150.86 142.068Z" fill="#020617"/>
</svg>
