<svg width="1078" height="235" viewBox="0 0 1078 235" fill="none" xmlns="http://www.w3.org/2000/svg">
<path d="M414.844 193.167C426.036 190.691 437.123 197.732 439.639 208.915C442.156 220.098 435.154 231.21 423.981 233.766C412.75 236.337 401.568 229.292 399.039 218.052C396.509 206.812 403.594 195.657 414.844 193.167Z" fill="#B7160E"/>
<path d="M664.861 193.142C676.006 191.066 686.76 198.326 688.995 209.444C691.236 220.561 684.126 231.415 673.046 233.811C665.729 235.392 658.132 232.913 653.157 227.322C648.187 221.732 646.612 213.897 649.031 206.818C651.457 199.739 657.502 194.513 664.861 193.142Z" fill="#EA4155"/>
<path d="M615.179 193.152C626.372 191.065 637.155 198.393 639.33 209.569C641.512 220.745 634.272 231.588 623.114 233.859C611.826 236.156 600.829 228.813 598.624 217.506C596.418 206.201 603.855 195.264 615.179 193.152Z" fill="#F48D00"/>
<path d="M465.923 193.133C477.09 191.448 487.544 199.035 489.401 210.176C491.259 221.316 483.832 231.885 472.721 233.913C465.38 235.253 457.888 232.534 453.115 226.798C448.343 221.062 447.032 213.199 449.685 206.225C452.339 199.251 458.544 194.247 465.923 193.133Z" fill="#FED802"/>
<path d="M365.86 193.472C376.914 191.75 387.276 199.299 389.027 210.348C390.777 221.398 383.255 231.779 372.21 233.558C361.124 235.345 350.695 227.789 348.939 216.698C347.181 205.608 354.765 195.199 365.86 193.472Z" fill="#13AD3E"/>
<path d="M565.039 193.567C575.893 191.57 586.349 198.652 588.519 209.476C590.688 220.3 583.775 230.865 572.986 233.208C565.853 234.758 558.434 232.341 553.584 226.886C548.733 221.43 547.2 213.784 549.571 206.88C551.949 199.977 557.858 194.888 565.039 193.567Z" fill="#5C3A8E"/>
<path d="M517.121 193.434C528.157 192.172 538.146 200.051 539.484 211.077C540.827 222.104 533.019 232.147 522.002 233.567C510.873 235 500.706 227.096 499.352 215.958C497.997 204.819 505.973 194.71 517.121 193.434Z" fill="#0589C9"/>
<path d="M716.529 193.495C727.579 192.091 737.679 199.892 739.111 210.936C740.544 221.979 732.769 232.1 721.73 233.563C710.65 235.032 700.479 227.222 699.041 216.135C697.602 205.05 705.443 194.903 716.529 193.495Z" fill="#17A8B2"/>
<path d="M830.493 0.661301C849.158 0.017786 850.995 22.7889 845.627 36.0016C843.695 40.7426 840.337 43.0555 835.617 44.6878C815.418 45.429 814.431 22.8133 820.346 8.50432C822.147 4.14173 826.106 1.95089 830.493 0.661301Z" fill="#1E538B"/>
<path d="M831.955 6.56104C832.698 6.67076 833.441 6.80861 834.172 6.97421C843.582 9.15715 845.104 32.5381 834.178 39.0582C820.37 38.0257 820.483 11.1569 831.955 6.56104Z" fill="white"/>
<path d="M252.704 0.660149C260.737 0.464645 267.036 4.18497 269.164 12.0774C272.37 23.9666 271.579 40.1769 258.086 44.6511C249.573 44.9055 243.477 42.0576 241.206 33.3893C238.028 21.2596 238.946 5.00176 252.704 0.660149Z" fill="#1E538B"/>
<path d="M254.196 6.50195C254.666 6.54077 256.828 6.8806 257.24 7.05642C266.534 11.0271 265.669 30.4149 259.862 36.9167C259.4 37.4338 257.203 38.688 256.491 39.0792C244.599 37.6086 245.291 22.511 247.824 13.5976C248.874 9.90237 250.807 8.11805 254.196 6.50195Z" fill="white"/>
<path d="M916.602 1.2677C927.605 1.1446 946.775 -1.18439 943.934 15.8582C943.179 20.3824 939.636 22.9244 936.111 25.2712C939.612 30.9728 943.108 36.5294 946.205 42.4682C944.035 43.6505 942.382 44.9273 940.088 44.6551L939.107 43.109C936.052 37.4365 932.967 31.78 929.852 26.1402L922.772 26.1069C922.784 29.5028 923.646 41.856 921.524 43.9406C919.699 44.0505 918.635 44.2306 916.899 43.556C916.192 40.1327 916.584 6.71522 916.602 1.2677Z" fill="#1E538B"/>
<path d="M922.879 7.14649C930.797 6.92816 941.58 6.27585 936.034 18.0213C931.594 21.0595 928.306 20.3992 922.826 20.3966L922.879 7.14649Z" fill="white"/>
<path d="M772.043 1.26234C783.111 1.13198 802.4 -1.15218 799.368 16.0518C798.59 20.4758 795.047 23.0011 791.552 25.2403C795.148 31.0882 798.465 36.4617 801.705 42.5336C799.178 43.7296 798.156 44.8061 795.653 44.6628L794.518 43.0847C792.063 38.0601 788.045 31.1874 785.298 26.1159L778.112 26.1426C778.183 29.4761 778.843 41.809 777.375 43.8913C775.449 44.0143 774.135 44.2396 772.322 43.5441C771.502 37.6202 772.025 8.79995 772.043 1.26234Z" fill="#1E538B"/>
<path d="M778.332 7.14C786.303 6.91828 796.884 6.2706 791.582 17.9679C787.118 21.0801 783.813 20.4066 778.272 20.4082L778.332 7.14Z" fill="white"/>
<path d="M1032.58 1.26012L1040.36 1.26845C1041.02 13.583 1041.9 30.0476 1042.05 42.6747C1042.08 45.0583 1037.52 44.326 1035.61 43.6466C1035.38 34.1936 1035.1 24.7424 1034.77 15.2927L1034.51 13.7317C1032.73 14.6082 1027.18 29.3426 1025.42 32.7724C1022.27 26.6047 1018.98 17.7183 1016.36 11.1735C1015.92 19.2494 1015.6 27.3947 1015.71 35.4805C1015.76 39.3585 1016.23 42.8638 1012.04 44.8479C1010.05 44.6262 1010.71 44.949 1009.31 43.6306C1008.24 40.6882 1010.19 6.62478 1010.42 1.23938L1018.12 1.23926L1025.65 18.3264C1028.06 12.9124 1030.36 6.80561 1032.58 1.26012Z" fill="#1E538B"/>
<path d="M288.901 1.32791L296.271 1.28785C301.898 11.9814 306.503 24.4393 311.965 34.4225C311.776 24.9148 311.437 14.7706 311.465 5.22181C311.47 3.49973 312.457 2.01993 313.812 0.938982C315.629 0.615084 315.356 0.360259 316.664 1.07808C318.757 3.62883 317.819 38.4283 317.796 43.9712L310.319 44.2636C305.189 33.1576 300.115 22.0253 295.096 10.8681C295.161 20.8924 295.337 32.09 295.211 42.1707C295.195 43.3797 294.91 43.3988 294.121 43.9878C292.342 44.0455 290.922 44.2476 289.332 43.4243C288.613 39.9511 288.989 32.7123 288.985 28.7327L288.901 1.32791Z" fill="#1E538B"/>
<path d="M724.922 1.31718L727.65 1.29251C734.587 1.24507 744.354 0.353035 749.543 5.56089C751.552 7.57085 752.664 10.3053 752.634 13.1462C752.587 16.5225 751.202 19.7428 748.782 22.0948C744.259 26.4965 739.485 26.1671 733.767 26.1101L731.883 26.3039C728.542 29.9583 734.421 42.7407 728.572 44.9757C723.02 43.41 724.839 34.5526 724.857 29.827L724.922 1.31718Z" fill="#1E538B"/>
<path d="M731.199 7.18143C739.426 6.99265 749.781 6.77117 744.021 18.6672C739.848 20.8015 735.729 20.2957 731.021 20.2632L731.199 7.18143Z" fill="white"/>
<path d="M444.184 1.21533L451.644 1.30865C456.024 14.1798 461.573 30.3353 465.134 43.2817L458.999 45.4026C457.89 41.8486 456.782 38.1852 455.599 34.6466C454.981 32.7998 454.538 32.8129 452.899 32.606L440.837 32.653L437.011 45.021L430.825 43.5123C434.709 29.5983 439.705 15.0182 444.184 1.21533Z" fill="#1E538B"/>
<path d="M447.641 11.0259C449.076 11.9895 453.383 25.4399 452.228 27.1804L448.866 27.2351C446.332 27.1358 445.472 27.1013 443.032 26.4368C443.249 23.9961 446.699 13.9383 447.641 11.0259Z" fill="white"/>
<path d="M973.739 1.23389L980.913 1.27841C985.52 14.4094 990.638 30.0499 994.496 43.3922L988.296 45.2937C987.197 41.8818 985.99 36.0024 984.076 33.0767C983.743 32.5673 982.732 32.6743 981.942 32.6142L970.297 32.663L966.255 45.2224L960.144 43.5051C963.086 32.0507 969.637 12.4304 973.739 1.23389Z" fill="#1E538B"/>
<path d="M977.145 11.0459C978.678 12.0782 982.75 24.4936 981.228 27.0609L978.672 27.0532L971.938 26.8392C973.596 21.5501 975.332 16.2854 977.145 11.0459Z" fill="white"/>
<path d="M879.89 0.649563C887.885 0.481581 892.046 3.13499 896.308 9.68552C891.796 12.3963 890.316 12.6916 886.435 8.60439C882.975 4.96205 879.474 6.48833 876.276 9.67452C870.32 14.8468 871.128 31.9493 877.31 36.6167C888.343 44.9379 889.656 34.0696 889.49 26.4432L887.802 26.5247C884.889 26.6572 881.061 27.2855 879.093 25.4916C879.218 24.1381 879.349 23.3077 879.628 21.9762C881.959 19.7996 891.832 20.8242 895.523 20.8848L895.589 40.1891C893.181 41.9408 890.483 43.2557 887.623 44.0748C866.069 50.0183 861.694 22.06 869.333 8.01562C871.734 3.59876 875.176 1.85117 879.89 0.649563Z" fill="#1E538B"/>
<path d="M579.923 1.36215C584.084 1.34361 604.752 0.474869 606.607 2.34383C606.72 4.7042 607.017 4.12993 606.007 5.9659C602.791 8.12494 590.92 7.20942 586.307 7.21531L586.034 18.5677C590.92 18.6872 598.903 17.2112 602.398 19.482C603.569 21.4558 603.308 20.6074 603.266 23.0613C601.144 26.2373 590.753 23.0803 586.414 24.9188L586.105 26.0958L586.034 38.3509C589.933 38.2986 593.833 38.267 597.738 38.2558C600.336 38.2569 605.18 37.9449 606.916 39.6806C606.833 41.8549 607.166 42.0945 606.054 43.7315C600.978 44.5245 586.034 44.1601 579.911 44.2314L579.923 1.36215Z" fill="#1E538B"/>
<path d="M12.6335 0.655419C18.7514 0.518287 31.8229 5.84865 26.1812 13.1681C21.1006 15.231 16.3428 0.259004 9.02058 9.29371C4.4197 16.0803 20.697 19.5328 24.2059 23.3132C33.7827 33.6311 26.9926 43.984 14.0697 44.7894C4.69968 43.817 2.44857 39.7399 0 31.4341C4.51659 29.9724 5.64957 28.7057 7.77347 33.5169C11.0529 40.9459 17.4484 41.5469 21.6742 34.7396C26.174 27.4919 10.7486 24.0616 7.525 21.8652C-2.41957 15.092 1.0009 3.4953 12.6335 0.655419Z" fill="#1E538B"/>
<path d="M735.634 92.27C737.976 92.2421 740.324 92.2433 742.666 92.2742C746.328 92.3384 752.492 92.805 754.971 95.846C760.41 102.514 759.518 115.056 753.348 120.879C749.769 122.235 739.444 123.653 736.109 122.007C735.895 119.123 738.523 116.824 738.665 114.476C738.927 109.681 738.909 104.786 738.796 99.9784C738.648 93.9035 735.931 98.9792 735.634 92.27Z" fill="#1E538B"/>
<path d="M742.981 96.4966C744.508 96.5198 747.588 96.4764 748.883 97.1897C755.844 101.018 754.132 110.746 751.231 116.494C749.115 118.196 746.428 119.152 744.039 117.617C741.911 113.648 742.903 101.926 742.981 96.4966Z" fill="white"/>
<path d="M406.391 92.1892C424.404 91.1305 424.355 116.281 412.452 122.745C394.393 123.813 394.775 98.786 406.391 92.1892Z" fill="#1E538B"/>
<path d="M408.683 96.1309C408.946 96.182 409.209 96.2367 409.47 96.2961C417.936 98.1923 417.849 114.351 409.807 119.219C401.362 116.499 400.996 101.048 408.683 96.1309Z" fill="white"/>
<path d="M432.5 92.2672C442.815 92.2143 459.205 91.0409 450.822 106.469C451.104 108.408 453.317 109.37 454.892 112.069C455.501 115.326 454.414 117.137 452.721 119.878C448.872 122.37 436.628 124.111 433.012 121.904C432.708 119.289 434.955 117.426 435.323 115.703C436.061 112.249 436.212 99.3711 435.03 96.7039C432.071 95.3742 432.673 95.3213 432.5 92.2672Z" fill="#1E538B"/>
<path d="M440.3 108.807C444.542 108.798 447.729 108.474 449.894 112.518C450.055 114.935 449.829 115.429 448.824 117.643C445.974 118.531 443.302 118.383 440.337 118.384L440.3 108.807Z" fill="white"/>
<path d="M440.39 96.3779C443.907 96.4778 445.677 96.1194 447.993 98.9042C448.648 100.901 447.985 102.114 447.261 104.064C444.824 104.741 443.127 105.465 440.906 104.016C439.836 102.042 440.277 98.7277 440.39 96.3779Z" fill="white"/>
<path d="M230.378 92.2593C242.148 92.3015 257.371 92.1671 248.675 106.475C247.388 108.591 257.72 110.541 250.146 120.241C249.118 120.902 247.997 121.405 246.819 121.733C244.166 122.491 233.512 123.373 230.89 121.927C230.359 119.899 233.276 116.549 233.439 114.436C233.748 109.509 233.931 104.101 233.662 99.1884C233.375 93.9492 230.741 99.1301 230.378 92.2593Z" fill="#1E538B"/>
<path d="M238.029 108.882C244.637 108.687 249.229 109.065 247.061 117.129C244.419 118.601 241.123 119.447 238.726 117.356C237.589 115.127 237.966 111.489 238.029 108.882Z" fill="white"/>
<path d="M238.175 96.2925C241.653 96.3561 243.865 96.2717 245.972 99.2235C246.482 101.278 245.966 102.108 245.142 104.018C244.547 104.199 243.948 104.365 243.345 104.514C241.297 105.007 240.37 105.014 238.759 104.034C237.612 102.054 238.065 98.6868 238.175 96.2925Z" fill="white"/>
<path d="M205.136 0.67496C213.339 0.107293 217.93 3.43394 221.731 10.3806L215.658 13.1334C214.407 10.7215 210.597 5.75419 207.489 6.14793C192.618 8.03193 196.808 51.9797 214.566 35.6636C215.504 34.1966 215.818 33.5611 217.296 32.5792C219.734 32.8258 220.678 33.9748 222.87 35.4781C220.279 39.4875 217.085 42.8507 212.409 44.3563C208.759 45.5113 204.799 45.1576 201.411 43.3743C190.63 37.7833 189.392 19.2524 194.263 9.24043C196.629 4.3758 200.125 2.27965 205.136 0.67496Z" fill="#1E538B"/>
<path d="M388.352 0.012207C389.759 1.69292 398.449 26.1892 399.897 30.0274L410.848 0.0653485L416.876 2.48539L411.967 15.5855C408.124 25.6168 404.08 36.9137 399.776 46.6437C395.131 37.4849 386.565 13.0148 382.635 2.50305L388.352 0.012207Z" fill="#1E538B"/>
<path d="M640.162 21.0226C643.884 14.2855 647.195 6.98099 651.005 0.121734L656.967 3.16663C653.846 8.6091 650.731 14.4468 647.682 19.9621L643.063 28.1788C643.141 33.1106 643.866 40.63 641.232 44.7142L638.896 44.8254C636.132 41.3677 636.851 32.7034 636.976 28.2043C632.34 20.7176 627.471 11.0401 623.257 3.13477L628.969 0C631.603 3.32695 637.66 16.4319 640.162 21.0226Z" fill="#1E538B"/>
<path d="M502.029 92.2657C507.881 92.1623 511.924 91.7266 517.388 94.4193C525.728 98.5309 521.736 105.531 515.583 109.08C517.531 112.128 522.261 118.462 521.91 121.538C520.081 122.718 520.875 122.464 518.677 122.538L517.625 121.242C515.046 116.671 513.246 113.126 509.598 109.236C509.151 109.255 508.63 109.277 508.036 109.302C506.517 111.695 507.064 120.525 505.444 122.238C503.528 122.406 503.929 122.624 502.396 121.931C501.608 119.898 502.029 96.4653 502.029 92.2657Z" fill="#1E538B"/>
<path d="M506.543 96.4655C510.702 96.3805 514.72 95.7445 516.547 100.039C516.57 102.275 516.048 102.975 514.958 104.901C511.918 105.838 509.604 105.681 506.469 105.661L506.543 96.4655Z" fill="white"/>
<path d="M149.858 1.23697C154.396 1.22152 163.287 0.964548 167.426 1.60693L168.629 3.66944C168.595 7.31154 165.715 7.1221 162.45 7.79659C161.809 9.3851 161.924 34.6282 162.326 37.3714C163.883 39.361 164.874 37.2805 167.474 38.9431C168.523 40.4802 168.042 42.163 167.795 44.0515C161.83 44.0765 155.865 44.1335 149.9 44.2221C149.203 35.4354 152.009 40.0891 155.114 37.5522C156.418 30.2242 155.512 15.9809 155.615 8.15781C155.632 6.89462 153.241 8.08084 150.672 6.63492C149.342 4.44485 149.826 4.23514 149.858 1.23697Z" fill="#1E538B"/>
<path d="M53.5751 1.20916C58.4678 1.30224 63.7832 0.989045 68.6873 1.27942C70.807 1.40496 71.5506 2.59218 72.1046 4.41323C70.1983 8.71936 68.4477 6.20242 65.979 8.15276C65.2069 14.3402 65.6569 31.3819 65.6438 38.2991C67.6482 38.2444 69.0201 38.0893 70.9431 38.7193C72.1243 40.6429 71.6951 41.4608 71.7034 44.0388C67.2446 44.0893 57.9745 44.4311 53.9448 43.776C52.6525 42.3691 52.2965 41.2611 53.0502 39.5753C54.4067 38.434 57.0216 38.2349 58.8875 37.9258C59.7678 36.1961 59.6412 11.2816 58.8286 7.9758C58.5909 7.00816 55.7311 7.18999 54.2842 6.69579C53.033 4.52831 53.5139 4.12488 53.5751 1.20916Z" fill="#1E538B"/>
<path d="M99.9904 1.26955C101.929 1.22925 104.093 0.94934 105.722 1.88358C106.67 5.36543 106.203 33.0438 106.181 38.4066C110.547 38.4286 123.925 38.1273 127.564 38.7746C128.313 39.7993 127.91 42.5901 127.831 44.0239L99.9726 44.223C99.84 29.9053 99.846 15.5869 99.9904 1.26955Z" fill="#1E538B"/>
<path d="M485.381 1.31009C487.748 1.19596 488.511 1.15209 490.841 1.60623C492.056 2.99538 491.507 34.1472 491.492 38.3658C496.736 38.4573 508.303 38.0317 512.917 38.7646C513.678 40.1211 513.383 42.3935 513.324 44.0359L485.38 44.1946L485.381 1.31009Z" fill="#1E538B"/>
<path d="M533.583 1.28799C535.267 1.24983 538.271 1.02538 539.401 2.09848C540.275 10.2325 539.704 29.464 539.68 38.3993C544.495 38.3862 556.235 38.0759 560.479 38.7452C561.294 40.1171 560.985 42.3551 560.919 44.0349C551.985 44.2483 542.539 44.1407 533.561 44.1901L533.583 1.28799Z" fill="#1E538B"/>
<path d="M806.603 91.8174C810.372 93.0371 817.136 111.05 819.276 115.523C819.49 109.564 819.193 103.678 818.943 97.7277C818.807 94.4364 818.7 93.9698 821.464 92.1526C825.767 92.7185 823.039 116.309 823.425 120.622C823.544 121.963 822.516 122.471 821.476 123.304C818.331 122.452 818.385 122.201 816.893 119.289C813.522 112.71 810.639 105.864 807.661 99.0972C807.566 103.321 808.773 119.566 806.966 121.723C805.361 122.69 805.949 122.645 804.356 122.384C802.567 120.657 803.357 97.1433 803.631 93.2612C803.684 92.5354 805.925 92.0367 806.603 91.8174Z" fill="#1E538B"/>
<path d="M634.682 92.5961C636.644 92.4897 637.559 92.5194 639.497 92.6852C642.059 94.972 648.8 111.657 650.678 116.012C650.743 111.081 649.745 96.6054 651.611 93.0645C653.157 92.4356 652.568 92.5521 654.364 92.9307C655.588 96.6018 654.952 117.189 654.887 122.417C653.508 122.429 652.01 122.353 650.625 122.31C647.658 120.439 641.75 104.278 638.986 99.417C639.134 103.857 639.301 108.428 639.313 112.872C639.324 116.697 640.68 121.508 636.334 122.693L635.288 121.98C634.26 116.001 634.676 99.2131 634.682 92.5961Z" fill="#1E538B"/>
<path d="M844.616 92.2054C849.473 91.6972 856.511 92.4396 857.135 98.5045L856.107 99.5286C853.016 99.8716 853.812 99.5423 851.173 98.0842C840.069 91.9564 840.996 107.701 842.465 113.789C844.456 122.022 856.273 118.54 852.719 111.114C850.347 109.716 849.735 110.223 846.649 110.276C846.21 108.702 846.049 107.79 846.869 106.434C849.443 105.3 854.478 105.976 857.539 106.151L857.551 119.528L857.272 119.707C836.895 132.695 829.482 101.216 844.616 92.2054Z" fill="#1E538B"/>
<path d="M600.912 92.5024C603.397 92.5161 603.26 92.1291 605.032 93.3578C606.191 96.3304 605.614 100.916 605.555 104.417L616.373 104.475C616.486 100.287 615.196 95.6498 617.711 92.7836C619.476 92.7247 619.203 92.4828 620.57 93.2341C620.695 94.2375 620.79 95.2433 620.855 96.252C621.099 99.8244 621.515 121.133 619.881 122.988L617.663 122.485C615.375 120.008 616.397 112.708 616.439 108.699L605.555 108.682C605.602 112.817 606.738 119.374 603.962 122.223C602.042 122.466 602.452 122.727 601.227 121.808C600.514 114.798 600.924 99.9992 600.912 92.5024Z" fill="#1E538B"/>
<path d="M673.516 92.4159C676.78 92.3179 688.335 91.3935 689.53 94.6902C686.784 97.1576 678.61 96.6761 674.978 96.6553L674.966 104.532C677.493 104.455 684.81 103.826 686.397 105.111C687.146 106.979 687.099 106.224 686.605 108.152C684.4 109.571 679.175 107.791 675.454 108.948C674.729 110.3 674.955 113.741 674.961 115.451C674.919 116.33 675.163 116.871 675.43 117.706C679.3 119.566 688.187 116.695 689.661 120.312L688.757 122.065C686.445 122.627 673.463 122.459 670.288 122.467C670.229 114.088 669.795 101.393 670.449 93.3682C671.513 92.2019 671.614 92.5378 673.516 92.4159Z" fill="#1E538B"/>
<path d="M468.448 92.4047C472.052 92.3262 484.857 91.5933 487.204 93.206L487.175 94.837C484.445 97.5749 477.327 96.6779 473 96.6851L472.97 104.481C475.199 104.45 482.892 104.078 484.39 104.908C485.179 106.769 485.085 105.992 484.588 108.105C482.775 109.13 477.111 108.209 473.568 108.89L472.932 109.915L473.051 118.327C476.71 118.355 484.311 117.271 486.95 119.377C487.369 121.045 487.441 120.444 486.857 121.958C483.224 122.902 472.693 122.501 468.324 122.446C468.562 112.64 468.421 102.255 468.448 92.4047Z" fill="#1E538B"/>
<path d="M332.094 92.3164C339.156 92.3141 346.218 92.4234 353.277 92.6446L338.079 118.352C341.808 118.346 350.399 117.395 352.958 119.163C353.428 119.488 353.492 121.552 353.581 122.356C346.828 122.692 337.328 122.39 330.371 122.38C335.422 113.664 340.602 105.024 345.911 96.4619C341.889 96.2961 337.29 97.2566 333.698 96.1124C332.005 94.7096 332.484 94.9729 332.094 92.3164Z" fill="#1E538B"/>
<path d="M541.25 92.1174C541.945 92.0758 542.641 92.0592 543.336 92.0675C548.05 92.1258 553.049 94.2241 552.906 99.6665L552.098 100.377C548.888 100.576 545.696 95.5894 541.826 96.4668C540.334 98.1157 540.744 97.7382 540.31 100.128C542.296 106.529 560.794 106.68 551.301 120.188C549.756 122.386 547.105 122.578 544.715 122.846C540.209 122.406 533.205 118.515 534.738 113.518C539.264 110.724 538.89 115.649 541.446 117.657C544.174 119.795 547.039 118.886 549.031 116.172C550.695 108.006 521.871 102.368 541.25 92.1174Z" fill="#1E538B"/>
<path d="M575.227 92.1191C580.06 91.9111 586.159 92.8318 587.217 98.6434C583.674 104.1 582.176 96.3585 578.687 96.3829C572.79 96.4239 572.065 102.132 571.435 106.431C570.531 112.519 575.524 123.584 582.253 116.63C583.151 115.351 583.305 115.196 584.583 114.3C586.521 114.233 585.885 113.98 587.258 115.163C587.466 115.987 587.556 116.573 587.312 117.41C586.747 119.381 585.374 121.021 583.531 121.927C580.94 123.232 577.248 123.134 574.526 122.195C565.978 119.244 565.306 107.279 567.826 100.046C569.342 95.704 571.203 94.0331 575.227 92.1191Z" fill="#1E538B"/>
<path d="M298.14 92.2807C303.177 92.4079 315.475 90.7114 318.511 94.3308L318.36 95.7069C316.383 96.8279 313.038 96.5527 310.662 96.548L310.656 116.64C310.688 118.256 310.609 119.85 310.545 121.464C309.345 122.728 309.908 122.38 308.226 122.879L307.09 121.979C305.152 116.993 306.045 102.623 306.162 96.5432C304.018 96.6591 301.145 96.9991 299.2 96.3156C297.785 94.6464 298.21 94.8872 298.14 92.2807Z" fill="#1E538B"/>
<path d="M267.884 92.3187C271.797 92.2533 276.42 92.0078 280.23 92.6527C282.667 96.2394 276.249 96.3149 276.441 99.8C276.691 104.345 275.541 114.162 277.391 118.255C277.584 118.682 279.275 118.652 279.943 118.701C281.19 120.021 280.86 120.212 281.093 122.278C279.246 122.35 277.398 122.412 275.55 122.465C273.3 122.526 269.482 122.894 267.959 121.452C267.87 118.646 271.639 118.441 271.926 115.373C272.25 111.912 272.832 99.0189 271.307 96.5771L268.859 96.1788C267.547 94.7986 267.949 94.6048 267.884 92.3187Z" fill="#1E538B"/>
<path d="M773.083 92.2916C776.834 92.2601 783.747 91.5391 786.262 93.5024C786.505 95.3029 786.565 94.6354 785.679 96.3907C784.252 96.786 783.581 96.843 782.101 96.9732C781.185 98.4937 781.506 115.515 782.065 117.889C785.845 119.039 785.875 118.543 786.571 122.246C783.563 122.37 775.098 123.233 773.142 121.435C773.267 118.775 777.357 117.802 777.369 114.872C777.381 110.844 778.433 99.3699 776.388 96.4697L774.117 96.2082C772.768 94.7953 773.172 94.6253 773.083 92.2916Z" fill="#1E538B"/>
<path d="M705.871 92.2776C708.576 92.2597 716.541 91.8603 718.39 93.1282C718.639 96.026 714.217 97.0983 714.241 100.397C714.259 103.706 713.521 116.336 715.204 118.469L717.534 118.663C718.907 120.051 718.503 120.043 718.598 122.37C716.042 122.404 708.172 122.748 706.24 121.975C705.271 118.952 709.973 117.572 710.038 115.237C710.169 110.605 710.93 101.134 709.402 96.763C709.319 96.5104 707.405 96.281 706.959 96.2055C705.538 94.7854 705.96 94.6939 705.871 92.2776Z" fill="#1E538B"/>
<path d="M1069.54 31.3981L1077.77 31.3643L1077.66 43.998L1069.61 44.2048L1069.54 31.3981Z" fill="#1E538B"/>
</svg>
