<svg width="534" height="534" viewBox="0 0 534 534" fill="none" xmlns="http://www.w3.org/2000/svg">
<path d="M262.672 0.0350757C410.12 -2.33121 531.558 115.326 533.876 262.8C536.195 410.274 418.518 531.694 271.069 533.968C123.684 536.238 2.35189 418.607 0.0337005 271.199C-2.28452 123.79 115.289 2.40013 262.672 0.0350757Z" fill="#023964"/>
<path d="M95.3529 73.7389C101.661 67.0969 113.124 58.7518 120.759 53.5034C157.251 28.2289 199.657 12.8199 243.859 8.77294C246.521 8.5482 249.259 8.75222 251.873 8.60489C263.459 7.95197 275.171 8.75394 286.651 8.64632C290.322 8.70675 291.968 8.78819 295.506 9.6221C307.44 10.521 321.69 13.4691 333.265 16.5607C382.92 29.8055 427.471 57.6296 461.162 96.4424C461.173 96.4579 461.188 96.4735 461.199 96.4893C462.491 97.9902 463.693 99.3453 464.844 100.962C497.815 140.554 518.122 189.148 523.125 240.431C523.404 243.425 523.269 246.773 523.349 249.831C523.473 254.516 524.14 259.341 524.097 264.014C524.017 272.725 523.131 281.458 523.122 290.197C523.122 292.393 522.17 296.277 521.865 298.597C516.864 339.242 502.036 378.057 478.669 411.681C476.499 414.832 467.37 427.473 464.577 430.045C463.095 432.068 461.803 433.663 460.025 435.458C458.69 436.908 452.93 443.328 451.572 444.407C448.626 447.452 445.591 450.41 442.475 453.282C440.801 455.115 438.867 456.841 437.04 458.536C435.182 460.26 432.475 462.775 430.291 464.067C425.641 468.51 417.83 474.009 412.493 477.712C391.894 492.002 369.297 503.103 345.406 510.691C340.639 512.205 333.213 514.616 328.357 515.555C320.131 517.405 313.149 518.593 305.075 520.196C302.745 520.786 300.323 520.587 297.932 520.818C296.597 520.947 295.363 521.229 294.013 521.387C291.148 522.133 289.6 522.268 286.622 522.233C279.924 522.147 273.235 522.501 266.546 522.498C260.775 522.495 254.967 522.276 249.183 522.228C245.509 522.337 243.945 522.248 240.366 521.462C230.746 520.184 221.317 519.393 211.836 516.996C208.771 516.222 205.442 515.825 202.472 514.72C200.825 514.352 197.652 513.9 196.588 512.852C196.969 513.143 189.747 511.022 189.216 510.855C145.329 497.095 106.025 471.471 75.4037 437.124C44.2696 402.551 23.1733 360.121 14.3942 314.426C13.6476 310.682 13.1683 306.953 12.4916 303.224C11.2067 296.136 11.0594 289.161 10.2884 282.031C9.41663 277.32 9.15654 254.594 10.0208 250.033C10.1719 247.76 10.7806 245.088 10.9892 242.717C14.4975 198.896 29.4087 156.756 54.2412 120.483C61.023 110.627 68.4812 101.166 76.5326 92.3336C77.4783 91.2959 78.4039 90.1892 79.324 89.1257C84.2993 83.6267 89.6555 78.4851 95.3529 73.7389Z" fill="#C6A260"/>
<path d="M10.0208 250.033C11.3802 252.773 11.6912 261.01 11.4996 264.261C11.2375 268.707 12.3676 278.416 10.2884 282.03C9.41663 277.32 9.15654 254.594 10.0208 250.033Z" fill="#D3B386"/>
<path d="M95.3527 73.7388L96.0921 74.1681C96.1496 76.0912 90.2387 80.6713 88.5315 82.2264C85.9202 84.6047 83.0308 88.4663 80.3367 90.4628L79.791 90.3836L79.3237 89.1256C84.299 83.6266 89.6552 78.485 95.3527 73.7388Z" fill="#DBC09C"/>
<path d="M305.075 520.196L304.615 520.147L304.442 519.758L304.871 519.35C306.64 519.088 308.827 518.42 310.55 517.885C312.711 517.212 314.129 517.62 316.319 517.396C316.822 517.344 318.5 515.995 318.661 515.995C321.391 515.989 325.767 515.534 328.356 515.554C320.131 517.405 313.148 518.593 305.075 520.196Z" fill="#D3B386"/>
<path d="M450.456 443.452C451.276 441.536 457.41 436.244 459.456 433.939C459.628 434.707 459.588 434.825 460.025 435.458C458.69 436.909 452.93 443.328 451.572 444.407C451.244 444.068 450.827 443.754 450.456 443.452Z" fill="#D3B386"/>
<path d="M450.456 443.452C450.827 443.754 451.244 444.068 451.572 444.407C448.626 447.452 445.591 450.41 442.475 453.282C442.3 450.082 448.054 446.053 450.281 443.645L450.456 443.452Z" fill="#D3B386"/>
<path d="M430.291 464.066C429.992 464 430.144 464.066 429.854 463.833C430.334 463.226 430.472 463.137 431.168 462.797L430.196 462.812L430.127 462.421C431.35 461.002 433.246 459.396 434.914 458.542C436.051 457.96 436.079 458.165 437.04 458.536C435.182 460.259 432.475 462.774 430.291 464.066Z" fill="#D3B386"/>
<path d="M240.366 521.462C242.417 521.068 249.806 520.15 251.194 521.626L251.047 521.899L249.183 522.227C245.509 522.337 243.945 522.247 240.366 521.462Z" fill="#D3B386"/>
<path d="M459.456 433.939C460.805 432.031 462.039 429.179 464.577 430.045C463.095 432.068 461.803 433.662 460.025 435.458C459.588 434.825 459.628 434.707 459.456 433.939Z" fill="#D3B386"/>
<path d="M286.651 8.64648C290.322 8.70691 291.968 8.78835 295.506 9.62226C294.169 9.95893 286.274 10.2927 285.258 9.45507L285.463 8.99639L286.651 8.64648Z" fill="#D3B386"/>
<path d="M286.622 522.233C285.753 522.11 285.178 522.069 284.346 521.756L284.312 521.376C286.078 520.633 291.924 521.183 294.013 521.387C291.147 522.133 289.6 522.268 286.622 522.233Z" fill="#D3B386"/>
<path d="M461.199 96.4893C462.49 97.9902 463.693 99.3452 464.844 100.962C462.885 102.474 460.261 98.8391 461.199 96.4893Z" fill="#D3B386"/>
<path d="M196.588 512.853C198.503 512.338 201.738 511.774 202.607 514.058L202.471 514.72C200.825 514.352 197.652 513.9 196.588 512.853Z" fill="#D3B386"/>
<path d="M258.838 46.0468C379.718 42.3659 480.717 137.342 484.489 258.239C488.258 379.136 393.375 480.224 272.501 484.085C151.498 487.953 50.2971 392.928 46.5227 271.904C42.748 150.879 137.831 49.7318 258.838 46.0468Z" fill="#FEFEFE"/>
<path d="M261.104 49.467C380.207 47.0407 478.709 141.681 481.062 260.805C483.419 379.933 388.735 478.394 269.627 480.675C150.621 482.957 52.2788 388.355 49.9263 269.332C47.5737 150.307 142.101 51.8913 261.104 49.467Z" fill="#C6A260"/>
<path d="M259.281 54.4391C375.319 50.5815 472.523 141.522 476.41 257.577C480.297 373.634 389.396 470.877 273.362 474.797C157.282 478.716 60.0117 387.76 56.1231 271.66C52.2345 155.561 143.2 58.2979 259.281 54.4391Z" fill="#043466"/>
<path d="M259.473 59.5731C372.692 55.8228 467.514 144.576 471.271 257.813C475.029 371.053 386.295 465.897 273.077 469.66C159.849 473.424 65.0103 384.669 61.2532 271.421C57.4963 158.173 146.244 63.3237 259.473 59.5731Z" fill="#FEFEFE"/>
<path d="M300.366 212.937C294.353 212.247 272.769 213.678 269.354 212.527C268.773 212.331 268.485 211.948 268.235 211.392C267.513 209.781 267.49 165.303 267.823 159.795C267.91 158.374 268.074 156.415 268.715 155.152C268.925 154.737 269.176 154.733 269.601 154.648C271.325 154.301 273.511 154.689 275.238 154.9C283.204 155.874 290.828 158.102 297.676 162.376C309.607 169.708 318.08 181.539 321.181 195.196C325.045 214.009 319.786 232.753 305.268 245.677C303.905 246.746 301.79 249.049 300.245 249.773C294.833 252.309 289.997 253.767 286.864 259.373C284.669 263.298 284.939 265.108 280.822 267.366C280.077 268.912 279.13 270.532 277.813 271.438C272.605 275.021 263.147 293.411 256.748 282.358C256.759 282.376 252.168 281.993 251.424 281.625C249.564 280.701 249.158 278.934 248.474 277.136C243.9 275.372 242.678 275.021 242.804 270.011C237.583 266.391 238.715 264.434 240.023 258.909C239.403 257.603 238.217 255.453 236.982 254.7C220.611 244.715 209.388 231.396 207.653 211.352C206.527 197.505 210.892 183.77 219.806 173.115C229.785 161.359 242.277 155.987 257.353 154.689C257.964 154.648 258.578 154.64 259.19 154.665C261.856 154.766 262.133 156.154 262.147 158.415C262.234 172.896 262.122 187.378 262.199 201.859C262.218 205.382 262.371 209.084 262.069 212.584C253.214 213.478 239.121 212.552 229.464 212.989C240.217 225.388 255.494 222.786 257.119 224.193C257.917 224.883 258.539 229.039 260.485 230.82C261.754 231.98 263.48 232.679 265.209 232.583C267.826 232.436 269.832 230.825 271.486 228.952C271.693 227.133 271.906 225.919 272.283 224.124C283.578 222.365 292.065 222.749 300.366 212.937Z" fill="#043466"/>
<path d="M256.836 159.936C257.377 160.782 257.138 203.016 257.135 207.762C252.648 207.813 227.006 207.53 224.371 208.27C222.732 210.038 223.961 212.913 224.982 214.743C231 225.53 242.439 227.147 253.259 229.192C254.758 233.129 255.986 234.394 259.54 236.261C256.618 239.106 248.079 245.592 246.513 249.736C246.394 250.299 247.009 251.051 247.342 251.371C254.523 258.288 261.436 251.822 266.462 246.555C268.655 248.892 281.719 260.947 281.095 262.843C276.02 264.112 269.339 249.554 264.573 252.096C263.254 254.158 264.511 255.318 265.996 256.746C268.364 259.024 270.732 261.301 273.059 263.617C274.256 264.869 275.686 266.077 275.994 267.755C275.62 268.817 275.942 268.394 274.927 269.015C272.081 267.689 264.642 259.027 261.469 256.798C260.946 256.43 261.132 256.543 260.396 256.705C259.566 257.577 259.567 257.686 259.138 258.846C259.403 262.688 268.951 268.451 271.543 273.991L271.73 274.393C265.578 271.303 261.636 266.569 256.686 262.054C252.604 260.193 253.97 260.411 252.153 256.815C250.6 253.74 246.548 255.104 244.756 256.322C239.209 247.263 235.909 248.506 228.666 242.295C219.334 234.173 213.597 222.687 212.709 210.347C211.83 197.683 216.082 185.197 224.507 175.703C232.787 166.395 244.404 160.729 256.836 159.936Z" fill="#FEFEFE"/>
<path d="M244.494 173.725C245.937 173.283 247.506 173.665 248.584 174.722C249.661 175.779 250.074 177.34 249.661 178.792C249.248 180.243 248.074 181.352 246.602 181.683C244.442 182.167 242.285 180.858 241.719 178.718C241.152 176.578 242.378 174.373 244.494 173.725Z" fill="#043466"/>
<path d="M273.016 159.904C281.38 160.301 290.005 163.468 296.916 168.124C307.058 175.066 314.083 185.7 316.486 197.754C320.131 216.606 311.716 238.994 293.179 247.285C287.822 249.682 285.601 252.102 282.419 256.833C278.278 252.711 273.623 248.344 269.713 244.064C268.755 242.668 268.039 241.298 266.508 240.627C262.436 242.212 260.129 247.086 253.288 249.77L253.428 249.584C255.934 246.305 262.034 240.289 265.668 238.588C273.097 235.111 273.123 236.182 277.188 228.817C287.891 227.488 301.902 224.151 305.91 212.184C306.31 210.985 306.508 209.537 305.872 208.391C304.437 207.402 276.132 207.675 272.982 207.653C272.732 192.241 272.829 175.321 273.016 159.904Z" fill="#FEFEFE"/>
<path d="M283.23 173.704C284.683 173.282 286.248 173.686 287.315 174.758C288.383 175.829 288.78 177.397 288.351 178.848C287.922 180.298 286.737 181.399 285.261 181.719C283.083 182.192 280.923 180.853 280.376 178.692C279.826 176.531 281.089 174.325 283.23 173.704Z" fill="#043466"/>
<path d="M253.183 264.394C254.093 264.564 254.386 265.016 254.732 265.824C254.792 268.866 250.659 272.037 248.001 272.886L246.878 272.302C245.02 269.502 251.113 265.726 253.183 264.394Z" fill="#FEFEFE"/>
<path d="M258.8 270.166C259.853 270.301 259.791 270.255 260.581 270.957C261.464 273.789 256.945 277.193 254.745 278.295C253.941 278.272 253.859 278.197 253.082 277.941C252.444 277.204 252.629 277.625 252.558 276.612C253.519 274.114 256.624 271.662 258.8 270.166Z" fill="#FEFEFE"/>
<path d="M248.454 258.679C251.952 260.46 245.341 265.013 243.739 265.965C242.929 265.646 243.309 265.85 242.721 264.88C242.722 262.092 246.167 259.724 248.454 258.679Z" fill="#FEFEFE"/>
<path d="M265.232 275.648C266.5 275.723 266.684 275.659 266.937 276.81C266.241 279.018 263.756 280.813 261.834 281.964C260.952 281.999 261.346 282.102 260.602 281.697C260.348 278.917 263.128 277.021 265.232 275.648Z" fill="#FEFEFE"/>
<path d="M354.026 131.377C361.471 130.622 369.274 131.887 376.487 133.991C398.591 140.44 410.695 163.305 403.741 185.325C395.596 209.067 365.125 214.39 345.158 224.777C325.534 234.985 319.098 246.397 329.947 267.093C326.265 267.136 322.579 267.105 318.897 267.001C314.768 262.515 311.304 253.297 310.323 247.298C318.948 239.368 321.529 234.082 325.661 223.225C327.85 216.022 328.046 211.99 328.972 204.689C332.117 201.912 339.258 198.817 343.286 197.089L363.868 188.309C374.079 183.918 386.715 179.339 389.045 166.86C391.781 152.19 381.058 141.363 367.182 138.926C358.036 137.239 348.594 139.276 340.958 144.584C330.649 151.864 327.749 160.36 326.639 172.263C326.558 173.118 326.357 173.351 325.715 173.803C324.953 173.766 324.09 173.671 323.745 172.858C319.656 163.199 316.417 156.196 309.005 148.402C310.855 146.852 314.564 144.877 316.822 143.707C327.942 137.944 341.513 132.461 354.026 131.377Z" fill="#C6A260"/>
<path d="M167.502 131.086C185.585 129.731 205.525 138.725 220.857 147.735C218.511 151.195 216.02 153.74 213.591 157.684C211.72 160.761 210.029 163.944 208.528 167.218C207.756 168.93 206.642 172.786 205.053 173.475C203.696 173.237 203.242 171.587 203.19 170.326C202.205 146.388 178.312 132.043 156.207 140.636C145.89 144.647 138.802 154.183 140.953 166.275C143.123 178.473 154.469 183.059 164.675 187.406C175.958 192.683 191.216 197.36 201.206 204.41C201.717 208.105 202.022 211.769 202.576 215.567C205.553 230.15 210.09 237.247 219.978 247.62C217.768 254.827 216.005 260.334 211.373 266.5C207.862 266.653 203.788 266.535 200.231 266.5C201.831 262.734 203.513 260.814 204.483 256.508C208.769 237.474 195.154 229.073 179.859 222.031C158.817 212.187 127.067 205.45 124.682 177.299C122.302 149.195 141.344 133.664 167.502 131.086Z" fill="#C6A260"/>
<path d="M171.965 291.932C183.254 291.432 188 295.564 187.461 307.077C187.095 314.904 184.848 318.667 176.627 319.767C165.964 320.688 159.991 316.973 160.44 305.457C160.769 297.02 162.888 292.908 171.965 291.932Z" fill="#043466"/>
<path d="M173.159 293.647C181.187 293.325 181.589 300.366 181.485 306.564C181.4 311.655 181.194 316.44 175.555 318.066C165.313 318.333 166.876 310.912 166.693 303.186C166.585 298.677 168.166 294.309 173.159 293.647Z" fill="#FEFEFE"/>
<path d="M265.974 291.935C269.742 291.849 273.876 292.016 277.127 294.349C282.634 298.303 282.542 310.688 278.819 315.796C276.86 318.483 273.327 319.367 270.13 319.769C262.822 320.339 255.272 318.702 254.522 310.006C253.674 300.176 254.629 292.988 265.974 291.935Z" fill="#043466"/>
<path d="M266.577 293.638C275.022 293.405 275.234 299.5 275.252 306.386C275.26 311.091 274.981 316.463 269.67 318.046C258.654 318.443 260.708 310.501 260.538 302.116C260.456 298.098 262.415 294.467 266.577 293.638Z" fill="#FEFEFE"/>
<path d="M202.052 291.944C213.886 291.466 218.001 295.834 217.4 307.419C216.986 315.399 214.696 318.682 206.548 319.77C199.791 320.256 191.605 318.964 190.867 310.452C190.028 300.772 190.506 293.135 202.052 291.944Z" fill="#043466"/>
<path d="M203.021 293.653C211.491 293.319 211.459 300.159 211.43 306.711C211.409 311.444 211.024 316.823 205.518 318.097C204.21 318.103 202.715 318.005 201.393 317.951C195.556 314.725 196.651 307.148 196.853 301.422C196.989 297.549 198.967 294.231 203.021 293.653Z" fill="#FEFEFE"/>
<path d="M81.0942 272.659C87.9681 272.4 95.9692 272.578 102.92 272.578L141.418 272.581H186.685C193.805 272.581 200.946 272.552 208.067 272.541C208.843 272.541 210.496 272.82 211.151 273.283C211.827 273.761 211.757 273.985 211.823 274.618C211.389 275.697 211.212 275.729 210.199 276.419C207.099 276.762 200.001 276.569 196.667 276.563L171.059 276.552L83.517 276.624C81.5496 276.641 79.3634 276.278 79.4997 273.815C80.2748 272.736 79.7791 273.13 81.0942 272.659Z" fill="#00225D"/>
<path d="M320.827 272.661C327.988 272.27 337.963 272.572 345.357 272.575L392.288 272.584L429.528 272.578C435.202 272.569 441.045 272.563 446.73 272.538C447.403 272.535 448.989 272.909 449.492 273.386C450.099 273.956 449.97 274.135 449.955 274.796C449.443 275.827 449.279 275.85 448.255 276.488C441.209 276.9 430.748 276.552 423.374 276.549L374.896 276.546H337.908C332.511 276.546 327.114 276.601 321.719 276.589C319.619 276.586 317.332 273.519 320.827 272.661Z" fill="#00225D"/>
<path d="M423.57 241.985C427.342 241.088 431.306 242.295 433.936 245.143C436.568 247.991 437.46 252.037 436.269 255.727C435.078 259.418 431.991 262.178 428.193 262.952C422.451 264.12 416.832 260.466 415.572 254.742C414.309 249.018 417.87 243.341 423.57 241.985Z" fill="#043466"/>
<path d="M433.131 258.541C432.86 258.814 432.578 259.076 432.29 259.329C430.348 260.993 427.569 261.628 425.06 261.392C422.494 261.171 420.126 259.925 418.495 257.934C415.287 253.945 416.236 248.502 420.207 245.458C422.255 243.913 424.83 243.244 427.371 243.596C430.095 243.955 432.546 245.436 434.135 247.681C435.913 250.236 435.933 252.53 435.377 255.402C434.65 256.554 434.094 257.577 433.131 258.541Z" fill="#FEFEFE"/>
<path d="M419.021 247.385C421.898 246.82 426.363 246.45 429.229 247.067C428.662 248.182 428.944 248.06 428.038 248.488C426.87 248.433 425.949 248.264 424.905 248.724C424.007 249.772 424.28 250.41 424.516 251.729C424.349 252.469 424.243 252.696 424.321 253.453C424.191 257.882 425.302 255.275 426.286 257.445C425.172 258.46 420.822 258.319 419.87 257.393C420.275 256.73 421.389 256.431 422.166 256.12C422.206 253.519 422.186 251.451 422.033 248.857L419.021 247.385Z" fill="#023964"/>
<path d="M427.739 252.161L427.911 252.131C429.198 253.674 430.325 255.153 431.534 256.759C432.311 256.368 433.372 255.728 434.181 255.686L435.377 255.402C434.65 256.554 434.094 257.577 433.13 258.541L432.069 258.037C428.124 258.492 427.981 256.015 427.129 252.842L427.739 252.161Z" fill="#023964"/>
<path d="M434.181 255.686L435.377 255.402C434.65 256.554 434.094 257.577 433.131 258.541L432.069 258.037C432.48 257.281 433.507 256.436 434.181 255.686Z" fill="#CAE5FB"/>
<path d="M428.038 248.488C428.732 249.822 428.634 251.501 426.847 251.743L424.517 251.729C424.281 250.411 424.007 249.772 424.905 248.724C425.949 248.264 426.87 248.433 428.038 248.488Z" fill="#FEFEFE"/>
<path d="M429.229 247.067C430.515 248.017 432.284 249.161 430.932 250.859C430.049 251.967 429.039 251.728 427.911 252.131L427.739 252.161L426.847 251.743C428.633 251.502 428.731 249.823 428.038 248.488C428.944 248.06 428.662 248.183 429.229 247.067Z" fill="#023964"/>
<path d="M424.516 251.729L426.847 251.743L427.739 252.161L427.129 252.842C426.248 253.037 425.193 253.302 424.321 253.453C424.243 252.696 424.35 252.469 424.516 251.729Z" fill="#00225D"/>
<path d="M402.233 234.379C404.155 234.304 406.264 234.375 408.203 234.404C408.267 244.488 407.677 257.038 406.96 267.11C402.789 267.076 398.614 267.064 394.442 267.073L388.383 267.099C390.089 264.57 392.017 262.302 393.683 259.724C399.141 251.281 400.688 243.989 402.233 234.379Z" fill="#C6A260"/>
<path d="M121.602 234.037C123.576 234.053 125.651 233.989 127.634 233.959C129.373 244.108 131.755 253.745 138.147 262.043C138.998 263.151 141.163 265.542 141.085 266.734C135.517 266.653 128.492 266.382 123.022 266.728C122.642 256.136 121.626 244.471 121.602 234.037Z" fill="#C6A260"/>
<path d="M358.065 292.295C360.568 292.404 363.433 292.125 365.876 292.502L366.034 292.905C365.352 293.926 363.163 294.358 361.707 295.564C359.121 297.71 356.799 300.375 354.506 302.829C357.446 307.336 362.605 315.516 366.705 318.457L366.014 319.395L358.916 319.421C356.655 315.456 352.466 309.356 349.848 305.508C349.687 308.803 349.5 313.013 349.88 316.27C350.11 318.256 351.292 317.252 352.987 318.452L353.036 319.041C351.643 319.899 341.271 319.372 339.249 319.191C340.532 318.529 342.181 317.965 343.553 317.444C344.197 313.836 344.281 297.802 343.449 294.309C341.933 293.756 340.71 293.247 339.24 292.605C341.939 292.266 350.274 292.07 352.768 292.836L352.906 293.224C351.894 294.038 351.289 293.992 349.946 294.202C349.601 297.529 349.753 301.647 349.808 305.034C350.136 304.706 350.57 304.297 350.861 303.937C354.048 300.015 358.235 297.788 358.065 292.295Z" fill="#043466"/>
<path d="M437.806 291.932C440.438 291.8 445.148 291.958 447.545 292.962C448.957 294.289 448.508 297.987 447.602 299.33L447.033 299.397C445.485 298.32 444.622 295.903 443.082 294.479C441.839 292.608 436.802 293.806 435.847 295.555C431.931 302.726 444.322 302.596 447.507 305.687C448.966 307.103 449.682 308.133 449.697 309.56C449.766 317.191 445.703 319.197 439.014 319.948C436.051 319.977 432.63 319.614 429.793 318.757C429.632 317.358 428.996 312.898 429.854 312.069C432.992 309.359 432.843 316.337 435.168 317.568C438.718 319.583 445.289 316.65 443.856 311.923C442.869 308.668 436.396 307.741 433.577 306.133C429.057 303.552 428.312 300.214 431.03 295.811C432.575 293.311 435.11 292.404 437.806 291.932Z" fill="#043466"/>
<path d="M88.9677 291.923C91.1356 291.854 96.1063 291.685 97.9056 293.063C99.2708 294.11 99.0527 298.306 98.0811 299.486H97.4415C96.0519 298.386 95.4135 296.234 94.0058 294.824C92.3143 292.462 87.7548 293.282 86.3404 295.607C83.6328 300.058 88.7177 302.087 91.7197 302.855C94.7716 303.678 100.248 305.707 100.355 309.554C100.565 317.139 95.5177 319.415 89.4508 319.939C87.7841 319.928 81.5409 319.787 80.7828 318.581C79.8265 317.056 79.4254 312.42 81.6016 311.194C84.1032 312.012 83.2735 319.116 89.1343 318.092C92.0871 318.06 95.1508 315.562 94.3625 312.248C93.0598 306.763 80.4776 308.041 80.0949 301.204C79.7784 295.549 83.6173 292.669 88.9677 291.923Z" fill="#043466"/>
<path d="M326.855 291.912C330.624 291.866 333.052 292.179 336.772 292.841C336.789 293.224 336.801 293.604 336.806 293.984C336.838 295.702 337.149 298.49 335.989 299.693C334.298 299.091 333.316 295.696 332.056 294.369C331.09 293.354 327.968 293.774 326.587 293.874C325.358 294.697 322.87 296.873 323.595 298.55C325.756 303.034 331.956 302.455 335.704 305.402C339.422 308.323 339.171 312.964 336.378 316.509C334.401 319.015 330.799 319.634 327.698 319.91C320.971 320.164 316.995 320.138 318.422 312.101C319.063 311.217 318.664 311.485 319.567 311.137C320.911 311.681 321.88 315.853 323.603 317.079C324.832 317.954 325.655 318.302 327.301 318.164C328.638 317.991 330.603 317.496 331.397 316.282C336.498 308.466 325.531 308.604 321.411 305.658C319.978 304.631 318.554 303.195 318.405 301.454C317.887 295.434 321.417 292.798 326.855 291.912Z" fill="#043466"/>
<path d="M115.742 291.932C118.089 291.869 124.503 291.975 126.437 292.887C127.447 294.386 127.576 298.611 126.386 300.035C123.828 299.943 124.281 294.979 120.57 293.765C107.882 289.621 106.684 315.991 116.186 317.965C118.479 318.443 120.448 318.097 122.381 316.8C123.754 315.033 124.212 312.506 125.196 311.496L125.95 311.514C129.424 313.692 128.046 319.007 122.979 319.574C114.474 320.526 105.299 320.103 104.098 309.399C103.076 300.28 105.496 292.928 115.742 291.932Z" fill="#043466"/>
<path d="M382.184 292.453C383.783 292.177 393.893 292.191 394.94 292.905C390.219 295.684 391.684 297.011 391.692 302.277C391.669 307.471 391.71 312.665 391.81 317.856C395.007 317.778 399.337 318.417 400.459 314.8C401.014 313.004 400.663 311.865 402.832 311.528C403.767 311.937 403.457 311.609 403.836 312.512C403.851 315.056 403.828 316.938 403.621 319.464C400.053 319.444 385.009 319.715 382.914 318.978L382.837 318.515C383.559 317.824 384.362 317.804 385.374 317.606C385.768 314.342 386.338 295.61 384.695 293.972C382.975 293.831 382.92 294.004 382.184 292.453Z" fill="#043466"/>
<path d="M293.743 292.369C297.362 292.332 301.105 292.338 304.713 292.22C304.736 294.044 305.064 297.756 304.063 299.06C301.531 298.801 301.666 294.381 298.608 294.122C296.798 293.969 294.508 294.142 292.819 293.912C292.756 295.978 292.724 300.956 292.485 302.786C293.136 303.695 292.713 303.448 293.748 303.623L295.299 303.88C295.339 304.714 295.391 304.8 295.63 305.615C294.666 305.31 293.823 305.269 292.819 305.166C292.623 309.453 292.549 313.053 292.885 317.329C294.091 317.879 296.03 318.564 297.313 319.067C294.931 319.533 286.084 319.766 283.889 318.964L283.828 318.512C284.76 317.72 285.356 317.752 286.619 317.533C287.01 312.84 286.889 299.008 286.61 294.217C285.511 294.05 284.743 294.056 283.866 293.397L283.808 292.93C285.514 292.056 291.556 292.349 293.743 292.369Z" fill="#043466"/>
<path d="M292.485 302.786C293.136 303.695 292.713 303.448 293.748 303.624L295.299 303.88C295.339 304.714 295.391 304.8 295.63 305.615C294.666 305.31 293.823 305.269 292.819 305.166C292.531 304.075 292.439 303.888 292.485 302.786Z" fill="#023964"/>
<path d="M219.7 292.464C221.668 292.159 231.082 292.384 233.269 292.467C231.757 293.345 230.641 294.015 229.197 295.017C228.719 298.677 228.916 313.752 229.207 317.683C230.882 317.703 232.591 317.741 234.256 317.651C238.596 317.421 237.474 312.978 239.377 311.637C240.284 311.516 240.235 311.473 241.059 311.842L241.281 312.483L241.271 319.507C237.97 319.418 222.372 319.867 220.236 319.297L220.092 318.771C220.815 317.81 222.028 317.413 223.164 316.877C223.587 312.377 223.485 299.316 223.115 294.743C221.355 294.107 220.582 294.012 219.7 292.464Z" fill="#043466"/>
<path d="M132.697 294.424C131.956 293.894 131.123 294.147 129.757 293.077L129.741 292.671C130.868 292.205 131.809 292.335 133.045 292.352C135.286 292.372 137.821 292.455 140.029 292.274C141.378 292.384 141.202 292.165 142.13 292.847L142.055 293.287C141.245 293.745 141.104 293.67 140.181 293.693C138.104 295.621 138.797 301.068 138.886 303.853L138.846 306.34C138.818 308.621 138.405 315.487 139.481 317.435C139.824 318.057 141.526 317.657 142.288 318.837L141.859 319.205C139.973 319.582 131.584 319.631 129.994 318.992L129.972 318.537C130.763 317.847 131.305 317.855 132.348 317.651L132.763 317.573C133.008 311.6 133.053 300.366 132.697 294.424Z" fill="#043466"/>
<path d="M132.697 294.424C131.956 293.895 131.123 294.148 129.757 293.077L129.741 292.672C130.868 292.205 131.809 292.335 133.045 292.352C132.967 293.316 132.969 293.454 132.697 294.424Z" fill="#00225D"/>
<path d="M370.247 293.877L369.956 293.831C369.188 293.702 368.822 293.733 368.299 293.178L368.457 292.741C369.927 292.154 379.111 292.145 380.345 292.505L380.541 293.086C379.724 293.788 377.503 294.395 377.514 295.552C377.56 301.497 376.697 311.712 377.549 317.384C378.725 317.643 379.399 317.66 380.285 318.408L380.331 318.872C378.74 319.755 375.552 319.439 373.713 319.355L370.454 319.453C369.611 319.154 369.418 318.926 368.742 318.362L370.252 317.888C371.449 316.854 371.42 315.03 371.403 313.494C371.337 307.488 371.694 301.37 371.187 295.394C371.121 294.625 370.736 294.384 370.247 293.877Z" fill="#043466"/>
<path d="M377.548 317.384C378.725 317.643 379.398 317.66 380.285 318.408L380.331 318.872C378.74 319.755 375.552 319.439 373.713 319.355C374.43 318.837 375.532 318.987 376.441 319.067L376.682 319.09C377.505 318.532 377.244 318.679 377.548 317.384Z" fill="#023964"/>
<path d="M148.808 294.246C147.585 294.044 146.943 294.079 146.033 293.319L146.072 292.856C148.36 291.969 157.455 292.3 160.015 292.683C158.542 293.181 156.791 293.578 155.658 294.516C154.735 296.847 154.643 314.596 155.454 316.903C156.745 318.29 157.995 318.348 159.758 319.119C157.514 319.375 156.514 319.508 154.282 319.358C152.352 319.384 147.79 319.663 146.168 319.312L145.918 318.849L146.106 318.316C146.993 317.795 147.495 317.853 148.518 317.787C149.593 315.62 149.202 308.999 149.153 306.334L149.182 303.836C149.195 300.562 149.289 297.5 148.808 294.246Z" fill="#043466"/>
<path d="M154.282 319.358C152.352 319.384 147.79 319.663 146.168 319.312L145.918 318.849L146.106 318.316C146.993 317.796 147.495 317.853 148.518 317.787C149.423 320.184 151.835 318.627 154.282 319.358Z" fill="#043466"/>
<path d="M406.892 292.151C409.217 292.597 416.547 292.03 417.888 292.557C417.439 293.616 414.717 294.769 414.674 295.667C414.364 302.329 414.582 311.304 414.723 317.752L414.709 318.932C413.921 319.384 413.273 318.76 411.892 319.171L411.691 319.352C409.179 319.43 406.722 319.398 404.21 319.378C404.792 319.096 407.758 317.709 407.882 317.378C409.081 314.23 409.501 295.834 407.485 294.01C406.457 293.731 405.847 293.693 405.324 292.908C405.908 292.252 405.902 292.427 406.892 292.151Z" fill="#043466"/>
<path d="M407.484 294.01C406.457 293.731 405.847 293.693 405.324 292.908C405.908 292.252 405.902 292.427 406.892 292.151L407.484 294.01Z" fill="#043466"/>
<path d="M414.723 317.752C417.215 317.729 420.101 317.979 422.253 316.869C424.235 314.716 422.788 310.987 426.482 311.793C427.115 312.642 426.882 318.083 426.87 319.412C421.81 319.49 416.749 319.47 411.691 319.352L411.892 319.171C413.273 318.759 413.921 319.384 414.709 318.932L414.723 317.752Z" fill="#023964"/>
<path d="M295.299 303.88C296.214 303.448 296.203 303.632 296.677 302.904L297.293 301.972C297.917 301.025 298.087 300.881 299.019 300.225L299.572 300.167C300.133 300.97 300.121 308.662 299.221 309.727C297.771 309.278 297.44 307.16 295.63 305.615C295.391 304.8 295.34 304.714 295.299 303.88Z" fill="#043466"/>
<path d="M138.886 303.854L149.182 303.836L149.153 306.334C145.717 306.291 142.281 306.294 138.846 306.34L138.886 303.854Z" fill="#023964"/>
<path d="M366.705 318.457L368.742 318.362C369.418 318.926 369.611 319.154 370.454 319.453C368.644 319.315 367.833 319.237 366.015 319.395L366.705 318.457Z" fill="#023964"/>
<path d="M201.208 21.4267C209.421 20.1713 213.553 26.2671 215.235 33.3357C217.819 44.189 213.093 49.4246 202.926 51.5793C199.963 52.0734 197.393 52.0072 194.82 50.2663C188.729 46.1454 184.993 33.7553 189.387 27.4702C192.159 23.5046 196.737 22.1654 201.208 21.4267Z" fill="#043466"/>
<path d="M199.754 23.4021C201.356 23.1885 203.232 23.2024 204.733 24.0751C210.343 27.3362 213.697 39.7033 210.696 45.3778C209.388 47.852 206.587 48.9201 203.989 49.5068C202.419 49.7146 199.799 49.9244 198.449 48.8706C193.286 44.8409 189.376 32.6539 193.1 26.8856C194.542 24.6532 197.325 23.8679 199.754 23.4021Z" fill="#C6A260"/>
<path d="M267.072 12.2427C273.905 12.0119 280.667 14.3813 281.688 22.0053C283.106 32.5993 281.553 40.4993 269.768 42.4707C262.069 43.3921 255.683 39.1201 254.955 31.0491C254.114 21.7121 256.137 13.3246 267.072 12.2427Z" fill="#043466"/>
<path d="M265.109 14.2313C266.543 14.1418 270.603 13.871 271.808 14.2879C277.928 16.5442 277.738 23.7386 277.655 29.0791C277.574 34.1223 276.636 38.4063 271.535 40.5412C261.932 42.8438 258.727 35.7285 259.021 27.5491C259.223 21.9108 259.571 17.2003 265.109 14.2313Z" fill="#C6A260"/>
<path d="M173.151 31.2412C180.592 31.7425 184.811 40.3973 185.861 46.8867C187.3 55.7875 177.939 61.1674 170.372 62.0977C162.282 60.9797 158.335 53.2461 157.149 45.862C155.671 36.6614 165.385 31.9338 173.151 31.2412Z" fill="#023964"/>
<path d="M168.835 33.7576C171.139 33.5196 172.251 33.3608 174.257 34.5624C178.308 37.0714 180.336 41.8858 181.569 46.257C183.49 53.0676 181.248 57.4533 174.299 59.2871C172.287 59.3691 171.128 59.6034 169.301 58.7162C165.409 56.7471 163.154 52.209 161.815 48.2627C159.339 40.9716 161.182 36.0185 168.835 33.7576Z" fill="#C6A260"/>
<path d="M419.344 430.727C422.954 426.647 429.707 417.571 435.386 417.292C441.178 417.007 452.165 427.479 451.754 433.306C451.354 438.966 442.869 445.826 439.285 450.142C438.588 450.977 438.404 451.054 437.633 451.115L436.957 450.746C436.736 449.837 436.934 449.67 437.535 448.692C437.774 448.306 438.019 447.926 438.263 447.547C434.822 443.581 425.092 434.232 420.851 431.645C420.549 431.723 420.705 431.709 420.31 431.651C419.775 431.57 419.654 431.145 419.344 430.727Z" fill="#043466"/>
<path d="M432.938 421.064C435.113 421.021 436.24 421.2 438.111 422.23C443.05 424.943 451.126 432.131 447.081 438.307C446.14 439.743 442.628 444.439 441.129 444.824L440.467 444.367C434.897 439.484 429.474 434.071 423.817 429.09C426.467 425.62 428.631 422.5 432.938 421.064Z" fill="#C6A260"/>
<path d="M459.188 381.193C461.113 377.409 462.876 373.433 465.123 369.844C469.013 363.64 475.446 367.298 477.454 373.027C477.075 374.201 476.701 375.43 476.281 376.586C479.411 376.598 489.124 376.578 491.601 374.722C492.199 374.284 492.792 373.835 493.376 373.378L493.75 373.47C494.248 375.191 492.372 377.976 491.434 379.464C488.16 379.855 476.591 380.152 474.894 381.392L473.662 383.769C476.764 385.294 481.41 387.889 484.46 388.96C485.225 388.091 485.979 387.006 487.026 386.632L487.352 386.937C486.966 389.742 483.447 395.253 481.1 397.287C481.514 395.972 482.015 394.617 482.472 393.311C479.417 390.381 465.106 383.467 460.805 381.97C460.339 381.884 459.645 381.444 459.188 381.193Z" fill="#043466"/>
<path d="M462.876 377.798C464.686 373.887 468.944 366.259 474.014 373.792C475.366 375.801 474.129 378.805 473.208 380.943C472.943 381.645 472.725 382.428 472.25 382.986C469.108 380.998 466.536 380.52 462.876 377.798Z" fill="#C6A260"/>
<path d="M472.25 382.986C472.724 382.428 472.943 381.645 473.208 380.943L474.894 381.392L473.662 383.769C472.998 383.498 472.857 383.383 472.25 382.986Z" fill="#023964"/>
<path d="M490.39 254.085C491.627 249.325 496.233 247.942 500.563 249.307C503.958 250.378 505.207 252.612 506.133 255.768C506.55 258.466 506.605 260.127 506.68 262.884L509.646 262.849C511.674 262.717 514.266 262.478 516.249 262.481C516.444 260.898 516.45 259.876 517.175 258.455L517.61 258.386C518.752 260.317 519.201 268.63 517.955 270.463L517.546 270.42C516.611 269.085 516.594 268.052 516.159 266.443L500.367 267.001C497.062 267.131 493.39 266.17 492.323 269.715L491.946 270.967L491.454 271.205L490.821 270.926C490.404 269.292 490.421 266.365 490.372 264.561C490.033 262.42 490.059 256.198 490.39 254.085Z" fill="#C6A260"/>
<path d="M506.133 255.768C506.55 258.466 506.605 260.126 506.68 262.883L509.646 262.849C511.674 262.716 514.267 262.477 516.249 262.48C516.444 260.898 516.45 259.876 517.175 258.455L517.61 258.385C518.752 260.316 519.201 268.63 517.955 270.463L517.546 270.419C516.611 269.084 516.594 268.051 516.16 266.443L500.367 267.001C497.062 267.13 493.391 266.169 492.323 269.714L491.946 270.966L491.454 271.205L490.821 270.926C490.404 269.291 490.421 266.365 490.373 264.561L490.657 262.575L491.138 262.244L491.981 262.523C493.627 263.979 499.565 263.015 502.108 263.013C503.121 262.949 503.803 263.007 504.68 262.515C505.267 261.234 504.709 259.583 504.433 258.02C506.021 257.175 505.739 257.393 506.133 255.768Z" fill="#043466"/>
<path d="M506.133 255.768C506.55 258.466 506.605 260.126 506.68 262.883L509.646 262.849C508.814 263.306 503.388 263.108 502.108 263.013C503.121 262.949 503.802 263.007 504.68 262.515C505.267 261.234 504.709 259.583 504.433 258.02C506.021 257.175 505.739 257.393 506.133 255.768Z" fill="#294655"/>
<path d="M490.39 254.085C491.627 249.325 496.233 247.942 500.563 249.307C503.958 250.378 505.207 252.612 506.133 255.768C505.739 257.393 506.021 257.175 504.433 258.02C504.381 257.678 504.317 257.333 504.246 256.993C503.149 251.797 494.11 252.109 491.736 256.204C490.988 255.829 491.368 255.895 490.562 255.96L490.39 254.085Z" fill="#043466"/>
<path d="M490.39 254.085L490.562 255.959C491.368 255.895 490.988 255.829 491.736 256.204C492.107 257.876 491.871 260.696 491.981 262.524L491.138 262.245L490.657 262.575L490.372 264.561C490.033 262.42 490.059 256.197 490.39 254.085Z" fill="#023964"/>
<path d="M296.482 491.029C301.773 487.029 308.655 493.285 302.788 500.327L301.096 501.97L307.95 507.293C308.347 507.497 308.744 507.705 309.138 507.915L309.23 508.289C310.668 509.325 312.098 510.372 313.571 511.356C314.046 512.441 314.043 512.522 313.712 513.742C310.677 514.064 310.435 513.739 308.479 511.549C304.848 515.67 304.158 516.118 298.887 517.226C289.988 514.524 293.058 508.519 297.584 503.454C293.815 499.504 290.742 495.003 296.482 491.029Z" fill="#043466"/>
<path d="M297.584 503.454L298.778 504.323C301.427 506.482 304.155 508.45 306.851 510.536C307.415 510.867 307.955 511.16 308.479 511.549C304.848 515.67 304.158 516.118 298.887 517.226C289.988 514.524 293.058 508.519 297.584 503.454Z" fill="#023964"/>
<path d="M298.778 504.323C301.427 506.481 304.155 508.45 306.851 510.536C304.071 514.343 298.988 516.538 296.862 510.452C296.119 508.323 297.644 506.127 298.778 504.323Z" fill="#C6A260"/>
<path d="M296.482 491.029C301.773 487.029 308.655 493.285 302.788 500.327L301.097 501.97L300.208 501.262C297.641 498.79 297.477 498.079 296.186 494.825C295.955 493.121 296.318 493.069 296.922 491.533L296.482 491.029Z" fill="#C6A260"/>
<path d="M296.482 491.029C301.773 487.029 308.655 493.285 302.788 500.327C302.386 499.23 302.342 499.04 302.178 497.878C302.403 495.322 302.437 492.534 299.638 491.441C297.521 491.38 296.729 493.069 296.186 494.825C295.955 493.121 296.318 493.069 296.922 491.533L296.482 491.029Z" fill="#023964"/>
<path d="M300.208 501.262C301.37 500.214 301.617 499.293 302.178 497.878C302.342 499.04 302.385 499.23 302.788 500.326L301.097 501.97L300.208 501.262Z" fill="#294655"/>
<path d="M77.6965 389.245C80.7528 389.331 82.3217 392.539 83.5807 394.933C82.3058 398.128 81.4669 401.891 80.6046 405.25C79.1647 410.858 77.8458 416.311 76.1308 421.847C79.5695 419.206 88.9855 411.684 91.5829 408.855C91.2126 407.105 90.8585 405.35 90.5213 403.595C92.3278 405.209 97.3727 410.639 96.8577 413.048L96.4831 413.18C95.8571 412.38 95.1988 411.43 94.0753 411.376C91.8013 411.266 76.6001 424.224 73.9986 426.48L73.6203 426.52C72.7221 426.117 72.1852 425.211 71.5718 424.402C72.3624 420.785 74.1261 415.373 75.1089 411.442C76.1636 407.223 77.7854 399.785 79.2009 396.087C75.6311 399.103 65.3404 406.665 63.0586 410C63.4355 411.14 63.8216 412.274 64.216 413.407L63.857 413.672C62.0542 412.944 57.9136 407.764 57.4912 405.857L57.8822 405.684C59.0727 406.058 59.935 406.674 61.0012 407.327C64.38 405.408 76.14 396.306 79.1621 392.908C79.6831 392.321 78.187 390.053 77.6965 389.245Z" fill="#043466"/>
<path d="M40.4903 285.299C41.3796 285.403 41.3534 285.414 42.18 285.777C43.6639 287.46 44.4842 294.395 43.3331 296.323L42.8166 296.337C42.0591 295.609 41.9872 294.579 41.7625 293.52C41.3689 293.514 40.975 293.52 40.5817 293.54C35.1222 293.779 29.0971 295.356 23.7314 296.36C13.8936 298.205 17.9448 314.46 27.2276 312.288C32.4592 311.065 38.7436 311.065 43.6602 308.656C44.0802 308.449 44.6965 305.928 45.2155 305.284L45.7838 305.24C46.2611 305.85 46.1261 305.764 46.3689 306.573C46.6411 308.578 47.7859 312.676 46.9346 314.299L46.3698 314.342C45.2656 313.626 44.9077 312.765 44.2227 311.623C33.6992 313.119 20.9145 319.62 17.2016 306.702C12.3149 289.705 29.3929 291.805 40.6476 288.928L40.4903 285.299Z" fill="#043466"/>
<path d="M480.193 335.728C482.457 337.072 484.845 337.544 486.034 338.344L486.108 339.348C484.949 341.498 480.622 339.319 478.444 341.691C476.482 343.829 476.278 348.634 478.806 350.254C485.214 354.852 489.961 340.79 495.421 341C506.697 341.429 505.618 354.096 500.289 360.671C499.518 361.623 498.917 362.642 497.795 362.806C495.332 361.669 493.203 360.734 490.876 359.307C493.971 356.711 493.459 358.3 497.654 358.464L498.06 358.478C501.702 356.162 502.643 353.477 502.024 348.939C501.771 347.607 500.281 346.113 499.098 345.644C490.87 342.375 487.714 360.438 478.398 353.992C471.617 349.299 476.721 340.79 480.193 335.728Z" fill="#023964"/>
<path d="M332.281 21.0779C337.117 21.0046 341.082 22.7204 344.971 25.3663C344.436 27.4721 343.872 30.5321 342.345 32.0569L341.674 32.0397C339.767 29.5837 342.434 27.8028 340.359 25.263C338.363 22.8183 333.521 22.37 331.098 24.3627C329.875 25.3701 330.175 28.3363 330.226 29.8447C332.404 32.6379 335.681 34.3299 338.233 36.7683C344.954 43.1821 339.263 51.1753 330.715 50.8162C326.032 49.7049 322.97 48.6445 319.406 45.384C320.188 43.5389 321.287 39.1268 323.086 38.3386C324.513 39.6637 323.462 44.6623 324.426 46.2144C325.376 47.7378 329.619 48.9092 331.311 49.4137C333.052 48.8163 336.274 47.1528 336.798 45.4852C339.022 38.4226 328.664 37.204 325.85 29.3293L325.718 28.9451C326.627 24.5911 328.025 22.6079 332.281 21.0779Z" fill="#023964"/>
<path d="M249.551 486.986C252.909 486.779 255.833 487.697 259.117 488.459C259.186 490.186 259.411 494.401 258.939 495.984L258.303 496.22C255.386 495.383 256.69 487.979 251.206 488.431C244.878 488.954 243.166 495.302 248.64 498.341C251.978 500.108 259.72 502.22 260.122 506.927C260.741 514.167 254.91 516.864 249.261 517.448C245.147 516.953 244.04 516.521 240.103 514.982C240.103 512.585 239.495 508.329 241.775 507.146C243.802 507.448 242.799 512.878 245.015 514.538C249.302 517.891 257.435 514.064 256.033 508.404C254.626 502.726 243.072 502.907 241.97 496.574C241.018 491.104 244.811 488.169 249.551 486.986Z" fill="#043466"/>
<path d="M120.797 60.9912C122.181 61.2384 125.264 65.155 124.903 66.904C123.394 67.2605 121.037 65.4799 119.085 64.5873C118.645 64.7162 118.211 64.8624 117.783 65.0255C112.201 67.1112 108.286 71.7549 110.72 78.0418C114.618 88.1094 127.76 95.7646 133.348 81.9423C132.717 80.1798 130.892 77.3607 131.798 75.5786L132.303 75.4791C133.069 75.7959 133.311 76.0856 133.918 76.6315C135.301 78.3903 136.238 79.497 137.787 81.1026C133.965 86.1924 126.109 94.9096 119.013 92.4499C112.708 90.2647 104.493 80.1191 106.897 73.097C108.971 67.0392 115.561 63.7525 120.797 60.9912Z" fill="#023964"/>
<path d="M103.362 455.52C104.986 458.11 106.397 459.284 109.18 460.337C111.749 461.31 115.535 458.74 115.691 456.309C116.158 449.02 105.187 443.426 113.88 436.716C120.101 431.913 126.05 439.538 129.445 444.16C128.28 445.783 126.6 448.703 124.93 449.187C123.778 448.824 124.231 449.147 123.506 448.208C123.037 444.81 128.087 443.84 122.569 439.3C118.5 435.947 113.563 440.054 115.026 444.413C116.299 448.206 121.736 453.04 119.604 457.949C117.538 462.213 112.46 464.708 108.122 462.257C105.158 460.579 103.168 459.091 101.236 456.435C101.828 456.666 101.892 456.671 102.506 456.815C102.793 456.363 103.064 455.961 103.362 455.52Z" fill="#023964"/>
<path d="M400.858 444.134C405.456 446.438 410.591 449.843 415.111 452.493C417.163 453.696 423.325 457.37 424.905 458.737C425.546 459.387 426.11 459.874 426.614 460.625C425.126 461.813 422.011 464.791 420.247 465.039L419.945 464.656C420.083 463.396 420.906 462.458 421.639 461.364C419.254 459.197 416.288 457.563 413.486 455.998C410.764 457.773 408.834 460.058 406.132 461.571C405.591 460.924 405.669 460.887 405.548 460.029C405.079 459.456 402.524 451.137 401.655 449.224L400.217 449.497L399.175 446.473L400.858 444.134Z" fill="#043466"/>
<path d="M401.655 449.224C403.681 449.564 409.4 453.558 411.918 454.795C412.677 455.244 412.925 455.316 413.486 455.998C410.764 457.773 408.834 460.058 406.132 461.572C405.591 460.924 405.669 460.887 405.548 460.029C405.079 459.457 402.524 451.138 401.655 449.224Z" fill="#C6A260"/>
<path d="M411.918 454.795C412.677 455.244 412.925 455.316 413.486 455.998C410.764 457.773 408.833 460.058 406.132 461.572C405.591 460.924 405.669 460.887 405.548 460.029C407.263 458.389 410.004 456.32 411.918 454.795Z" fill="#023964"/>
<path d="M65.8456 369.971C67.1921 369.91 67.6634 369.781 68.8683 370.27C69.215 370.69 69.6736 371.407 69.4468 371.881C66.5589 377.936 55.4019 388.413 52.3752 393.831C52.7685 395.307 53.247 396.953 53.5571 398.435C51.0081 396.168 50.4994 395.048 48.8652 391.99C49.052 390.939 49.6372 390.534 50.3958 389.754C52.7711 387.253 54.985 384.528 57.1889 381.869C55.351 379.044 54.1884 376.943 52.77 373.896C53.0617 373.864 53.7864 373.74 54.0756 373.801C55.3562 373.358 64.0181 371.476 65.1005 371.873L65.8456 369.971Z" fill="#043466"/>
<path d="M54.0756 373.801C55.3562 373.358 64.0182 371.476 65.1005 371.873C62.9108 374.75 60.6888 377.608 58.4347 380.436C57.9945 380.972 57.6783 381.372 57.1889 381.869C55.351 379.044 54.1884 376.943 52.77 373.896C53.0618 373.864 53.7865 373.74 54.0756 373.801Z" fill="#C6A260"/>
<path d="M52.77 373.896C53.0618 373.864 53.7865 373.741 54.0756 373.801C55.4627 376.034 56.8759 378.319 58.4347 380.437C57.9945 380.972 57.6783 381.372 57.1889 381.87C55.351 379.044 54.1884 376.943 52.77 373.896Z" fill="#023964"/>
<path d="M412.867 62.1677C415.143 62.0989 421.403 67.1361 422.324 69.0588L422.114 69.4484C420.992 69.5382 419.953 68.9561 418.886 68.5092C416.886 70.0185 405.772 84.1156 403.781 86.9945C406.963 90.2027 408.48 91.3227 412.602 93.1341C413.874 91.9917 416.665 89.0816 418.42 90.0186C418.406 90.8835 418.403 90.5932 417.965 91.4588C416.51 93.4799 415.313 94.965 413.699 96.8703C411.043 95.6223 398.045 85.7909 396.986 83.5357L397.328 83.2232C398.626 83.2322 399.434 83.7136 400.634 84.2361C403.304 81.8107 413.647 68.8608 415.402 65.6826C414.576 64.4369 413.733 63.5299 412.867 62.1677Z" fill="#043466"/>
<path d="M391.669 47.8122C393.622 47.6211 394.198 48.0605 395.91 49.0769C397.345 49.9286 401.293 52.0407 401.624 53.727L401.157 54.0026C399.797 54.0254 399.149 53.6219 397.898 53.0833C393.611 59.6884 389.439 66.3502 385.017 72.8675C387.077 75.0867 390.461 77.2969 393.326 78.325C393.573 78.1973 393.821 78.0698 394.068 77.942C396.258 77.1996 396.442 75.03 398.669 74.5293C399.569 74.7624 399.241 74.51 399.705 75.2803C399.762 76.6443 399.736 76.2305 398.945 77.6088C397.737 79.2732 396.848 80.5983 395.763 82.3458C391.568 80.3687 381.795 73.6249 377.591 70.7594L377.545 70.2694C378.757 69.8075 380.287 70.5111 381.507 70.9735C383.961 68.6243 393.625 53.7811 394.67 50.648C393.438 49.6181 392.696 49.0676 391.669 47.8122Z" fill="#023964"/>
<path d="M45.307 324.094C47.8377 322.972 46.2892 321.602 47.5508 319.533C48.4499 320.086 49.8441 324.592 50.3125 325.91C49.2117 327.303 47.9294 328.566 46.6209 329.766C41.8283 334.157 37.6509 339.199 33.0421 343.759C37.736 344.453 42.4507 344.997 47.1791 345.394C49.122 345.552 54.3703 345.814 56.0934 346.188C54.8623 346.202 52.8078 345.975 51.8978 346.49C51.8267 347.351 51.7582 346.951 52.115 347.739L52.1127 348.11L49.4387 348.723L48.5986 347.374C41.135 347.164 34.0105 345.912 26.5776 345.48C28.4627 342.865 31.0549 340.591 33.2501 338.22C36.8741 334.307 40.9166 330.635 44.157 326.396C44.5345 326.117 45.0915 324.607 45.307 324.094Z" fill="#083661"/>
<path d="M48.5981 347.374C49.7438 347.411 51.0589 347.359 52.1145 347.739L52.1122 348.11L49.4382 348.723L48.5981 347.374Z" fill="#D3B386"/>
<path d="M16.9319 257.11C16.6933 257.966 16.0339 261.01 15.3584 261.378C14.2211 259.52 13.8157 250.263 15.1046 248.735L15.5132 248.795C16.145 250.252 16.5791 251.594 17.078 253.092C22.3177 253.77 34.8093 253.068 40.2412 252.916C40.3868 251.308 40.2455 249.97 41.3946 248.956L41.8489 249.255C42.7301 251.343 43.2621 259.419 41.6829 260.901C38.7011 259.24 43.662 256.169 34.9011 256.779C33.7834 257.157 31.8341 257.037 30.5815 257.034C30.4828 260.947 30.1908 267.056 30.7187 270.831C29.5759 270.644 30.1191 270.575 29.0379 271.099C28.2862 266.972 28.4171 261.2 28.6167 256.967C25.7063 257.019 22.7953 257.013 19.8852 256.949L16.9319 257.11Z" fill="#043466"/>
<path d="M19.8853 256.949C21.4049 256.615 32.9178 256.633 34.9012 256.779C33.7835 257.157 31.8342 257.037 30.5816 257.033C30.4829 260.947 30.1909 267.056 30.7188 270.831C29.576 270.644 30.1192 270.575 29.038 271.099C28.2863 266.972 28.4172 261.2 28.6168 256.967C25.7064 257.019 22.7954 257.013 19.8853 256.949Z" fill="#294655"/>
<path d="M290.497 15.547C289.004 15.3375 288.584 15.37 287.298 14.6754L287.292 14.2598C289.79 13.5514 291.156 14.0104 293.697 14.5033C294.304 15.0943 294.758 15.4019 294.974 16.2128C294.413 18.0737 293.403 25.0408 293.34 27.0212C295.311 27.4407 296.928 27.8321 298.944 27.9615C300.115 26.3553 301.39 24.4052 302.8 23.0591C302.748 26.1907 302.687 30.5427 301.355 33.3742L300.872 33.7509C299.485 33.0801 299.549 31.3913 299.333 29.9531C297.543 29.499 294.752 28.8826 293.193 28.0061C292.759 30.8307 291.542 37.6925 291.686 40.3289C293.075 40.6132 293.728 40.6242 294.859 41.4978L295.034 42.008C293.702 43.2255 291.536 42.5187 289.91 42.1956C287.896 41.8952 285.773 41.726 284.018 40.7157L283.969 40.2688C284.884 39.5442 286.317 39.5298 287.531 39.3788C288.506 35.8172 290.351 19.303 290.497 15.547Z" fill="#043466"/>
<path d="M349.693 501.046C349.837 498.839 342.751 482.419 341.304 479.726C339.523 478.869 337.909 479.717 336.81 478.929C338.142 477.366 345.818 474.552 348.286 473.539C347.121 474.992 346.036 476.342 344.796 477.732C346.505 482.621 348.692 487.395 350.642 492.194C351.598 494.545 352.935 497.273 353.635 499.673C356.656 498.554 360.62 497.247 363.025 495.124C362.887 493.328 362.194 489.346 363.172 488.128C364.691 488.698 366.544 493.789 367.499 495.463C362.528 498.119 355.597 500.827 350.28 502.971C349.48 502.404 349.696 501.923 349.693 501.046Z" fill="#043466"/>
<path d="M187.109 477.585C185.985 476.978 185.113 476.662 184.396 475.631L184.561 475.183C186.741 474.863 191.812 476.644 194.226 477.269C194.532 478.072 194.474 478.428 193.821 479.105C192.418 478.661 192.324 478.313 191.326 478.765C189.625 481.271 184.334 498.98 183.835 502.326C186.889 503.374 190.347 504.404 193.584 504.597C194.605 503.118 196.513 499.63 198.013 499.314C199.164 500.801 197.492 505.566 196.609 507.06C194.607 508.205 182.185 503.241 178.831 502.559C179.481 501.817 179.588 501.788 179.929 500.839C181.792 496.223 186.273 482.21 187.109 477.585Z" fill="#023964"/>
<path d="M453.051 388.597C454.412 389.265 459.456 391.921 458.601 393.754C453.871 395.82 455.934 386.709 446.535 401.284C448.9 402.674 452.784 405.658 455.117 407.362C455.894 407.75 455.698 407.569 456.28 408.156C459.631 410.659 463.032 413.097 466.484 415.462C467.284 415.971 467.224 415.942 467.681 416.788C466.559 418.377 464.695 421.378 462.963 422.049L462.638 421.651C462.669 420.285 463.233 419.372 463.809 418.109C462.81 417.26 461.688 416.486 460.612 415.729C455.356 412.04 450.264 408.046 444.883 404.539C443.034 405.834 441.805 406.694 439.823 407.744C440.663 406.127 441.273 405.143 442.363 403.658C446.006 398.697 449.521 393.639 453.051 388.597Z" fill="#043466"/>
<path d="M369.45 464.947C370.146 465.523 370.442 465.877 371.254 466.236C373.173 469.249 374.942 472.354 376.553 475.542C377.543 476.095 377.244 475.709 377.661 476.575C378.334 479.476 381.982 484.204 383.334 487.432C385.964 486.106 391.028 484.005 391.966 481.208C392.829 478.633 390.124 477.574 391.12 475.318C393.004 474.717 395.418 479.959 396.509 481.292C393.108 484.299 384.997 488.569 380.736 490.871C380.224 490.042 380.052 489.501 379.709 488.604C376.369 483.571 372.888 476 369.634 470.743C367.959 468.032 366.351 468.961 364.254 468.53L364.142 468.003C365.482 466.982 367.89 465.785 369.45 464.947Z" fill="#043466"/>
<path d="M90.8711 84.0938L91.8324 84.2431C91.6997 84.9723 91.4103 85.0805 91.1312 85.7371C90.1867 87.0769 88.5168 89.2909 88.9101 90.942C89.6323 93.7761 92.322 95.3202 95.0498 94.6773C99.1326 93.7157 105.07 88.9283 109.151 91.9043C116.789 97.4726 112.589 104.441 107.096 108.697L105.976 107.539C110.088 104.892 113.102 98.8259 108.49 96.1325C101.362 91.9701 90.0532 107.328 86.2615 91.6723C85.7258 89.4609 89.2427 85.6243 90.8711 84.0938Z" fill="#0D385F"/>
<path d="M40.3981 270.546C40.5336 269.208 40.5014 268.158 41.1769 267.027L41.6632 266.794C43.4602 268.049 43.4843 276.54 42.736 278.56L42.3211 278.808C41.0972 278.137 40.5385 275.884 40.1377 274.583C37.1588 274.5 32.8559 274.719 29.8126 274.802C27.2477 274.874 19.2109 274.578 17.0611 275.05C16.7372 276.583 16.6615 277.927 15.6008 278.986L15.0722 279.187C14.2566 278.163 14.3674 268.722 15.1508 267.157L15.6143 267.09C16.6092 268.092 16.8931 269.677 17.2076 271.038C21.0974 271.084 25.2006 271.007 29.0381 271.099C30.1193 270.575 29.5761 270.644 30.7188 270.831C32.5567 271.481 37.9912 270.561 40.3981 270.546Z" fill="#043466"/>
<path d="M489.825 284.796C489.892 283.061 489.751 281.032 490.844 279.7L491.394 279.697C492.372 280.799 492.354 282.051 492.625 283.587C498.333 284.353 509.332 284.663 515.4 284.92C515.699 283.757 515.949 282.292 516.666 281.386L517.244 281.115C518.674 282.632 517.598 291.046 516.504 292.853L515.946 293.167C514.807 292.597 515.239 290.231 515.287 289.032C509.013 288.335 498.753 287.722 492.331 287.478C492.061 288.709 491.486 291.043 490.24 291.518C488.885 290.272 489.636 286.471 489.825 284.796Z" fill="#043466"/>
<path d="M492.331 287.478C492.061 288.709 491.486 291.043 490.24 291.518C488.885 290.272 489.636 286.47 489.825 284.796C489.909 285.929 489.733 286.289 490.3 287.049L492.331 287.478Z" fill="#023964"/>
<path d="M489.682 307.327C488.959 308.731 488.652 309.548 487.426 310.584L486.917 310.578C486.206 308.967 487.791 300.812 489.503 299.952C490.7 300.639 490.3 302.153 490.225 303.425C497.57 304.982 505.454 306.789 512.799 308.115C513.19 306.996 513.412 305.951 514.237 305.151C515.023 305.065 514.965 305.056 515.679 305.396C516.22 306.838 514.203 314.446 513.109 315.79L512.589 315.862C511.717 314.947 511.786 313.347 511.68 312.032C510.172 311.709 501.371 309.629 500.603 309.807C499.806 309.732 499.682 309.577 498.937 309.226C495.836 308.671 492.749 308.038 489.682 307.327Z" fill="#043466"/>
<path d="M483.341 324.117C483.694 322.149 484.195 318.141 485.501 316.846L486.013 317.03C486.733 318.284 486.681 319.381 486.807 320.843C490.07 321.691 493.393 321.976 496.69 323.096L497.76 323.263C501.685 323.919 505.41 324.937 509.309 325.547C509.801 324.477 510.163 323.3 511.113 322.676L511.553 322.811C512.212 324.632 510.911 332.373 509.277 333.371C508.244 332.666 508.342 330.79 508.247 329.582C501.685 327.706 492.633 326.189 485.752 324.805C485.188 326.083 485.611 327.449 483.453 327.858L482.946 327.435C482.63 326.379 483.07 325.228 483.341 324.117Z" fill="#043466"/>
<path d="M483.341 324.117C484.192 324.673 484.75 324.661 485.752 324.805C485.188 326.083 485.611 327.45 483.453 327.858L482.946 327.435C482.63 326.379 483.07 325.228 483.341 324.117Z" fill="#023964"/>
<path d="M138.74 453.797C137.901 452.597 136.792 452.418 136.445 450.418L136.828 450.119C137.956 450.326 139.376 451.319 140.411 451.941C142.801 453.362 144.895 454.292 146.434 456.596L147.001 457.437C142.214 455.017 141.686 456.182 139.402 460.841C138.658 462.357 137.779 463.954 136.932 465.425L136.711 465.894C134.607 469.577 132.49 471.963 131.04 476.175C132.306 477.864 132.731 478.483 133.691 480.351C131.403 479.05 124.903 475.738 123.625 473.931L123.828 473.453C124.834 473.174 126.052 473.715 127.104 474.037C129.41 470.829 137.147 457.126 138.74 453.797Z" fill="#043466"/>
<path d="M138.74 453.797C137.901 452.597 136.792 452.418 136.445 450.418L136.828 450.119C137.956 450.326 139.376 451.319 140.411 451.941C139.26 452.384 138.855 452.323 138.74 453.797Z" fill="#294655"/>
<path d="M141.097 77.5084C138.299 71.9092 133.163 63.1779 129.292 58.0078C128.57 57.0436 126.559 58.0815 124.91 58.089C125.179 56.4045 132.697 51.8922 134.46 51.8335L134.585 52.321C134.095 53.5246 133.376 54.1039 132.466 55.0422C134.087 57.9529 136.128 61.1596 137.853 64.0746L138.718 65.2227C140.69 68.7143 142.588 72.0077 144.839 75.335C146.143 74.8443 147.14 74.3189 148.505 74.4018L148.794 74.7992C147.751 76.6178 144.049 78.3998 142.122 79.4458C141.199 80.112 140.79 80.4699 139.75 80.8981L139.397 80.6788C139.527 79.714 139.52 79.6352 140.098 78.8556L141.097 77.5084Z" fill="#043466"/>
<path d="M141.097 77.5078C141.393 78.2827 141.529 78.8761 142.123 79.4453C141.199 80.1114 140.79 80.4694 139.751 80.8976L139.397 80.6783C139.528 79.7134 139.52 79.6346 140.098 78.8551L141.097 77.5078Z" fill="#294655"/>
<path d="M169.269 470.245C168.807 468.898 166.642 467.882 167.162 466.113C168.154 466.237 170.135 467.448 171.115 467.98C172.842 468.749 175.634 469.871 177.064 470.938L177.173 471.422C176.001 472.029 174.446 471.721 173.075 471.609L172.872 471.963C171.643 474.135 169.766 478.224 168.873 480.5C167.9 482.981 163.544 491.15 163.906 493.288C164.534 494.402 165.492 494.701 166.666 495.311L166.665 495.754C164.787 496.802 156.636 492.825 155.721 491.398L155.911 490.914C157.626 490.664 159.41 492.215 160.265 490.402C163.345 483.864 166.643 476.947 169.269 470.245Z" fill="#043466"/>
<path d="M169.269 470.245C168.806 468.898 166.642 467.882 167.162 466.113C168.154 466.237 170.134 467.448 171.115 467.98C169.542 468.556 169.672 468.469 169.269 470.245Z" fill="#023964"/>
<path d="M149.341 56.477C147.983 54.5079 145.153 49.2794 143.471 48.2927C142.083 48.8184 141.515 49.1289 140 48.9171L139.612 48.5911C140.851 46.9921 147.622 42.8018 149.663 42.75L149.952 43.1137C149.586 44.0763 148.495 44.6711 147.618 45.305C149.344 49.9139 156.848 61.7139 159.814 66.2707C161.038 65.8627 161.95 65.4509 163.233 65.4642L163.556 65.7994C162.524 67.4724 158.833 69.4101 157.025 70.4696C156.091 69.7563 156.389 70.0196 155.885 68.8133C155.759 66.4158 151.505 60.2512 149.981 58.1705L149.341 56.477Z" fill="#043466"/>
<path d="M219.291 20.2399C217.727 20.054 216.563 20.1584 215.582 19.0152C216.332 17.4141 224.539 16.588 226.328 16.7155L226.761 17.0481C226.579 18.1997 226.833 17.7603 226.192 18.5266C225.614 18.6771 223.949 18.9427 223.935 19.2302C223.643 25.5363 226.391 36.6744 226.78 42.9146L226.753 44.9113L223.651 45.3876C222.537 45.7525 220.476 46.1432 219.552 45.3338L219.731 44.8031C221.006 43.8677 222.482 43.7295 223.074 42.687C222.362 38.6559 221.701 34.6161 221.092 30.5682C220.716 27.9986 220.066 22.6383 219.291 20.2399Z" fill="#043466"/>
<path d="M223.074 42.687C223.318 43.4398 223.153 43.9313 223.022 44.7148C223.332 45.2523 223.153 45.1082 223.651 45.3876C222.537 45.7525 220.476 46.1432 219.552 45.3338L219.731 44.8032C221.006 43.8677 222.482 43.7295 223.074 42.687Z" fill="#023964"/>
<path d="M377.218 39.166C380.825 40.8474 386.519 43.5646 389.523 46.0008C387.831 45.8845 386.065 45.81 384.399 45.5363C380.857 51.3547 376.07 60.0748 373.443 66.2169C374.487 67.0629 375.091 67.4183 375.745 68.6122L375.448 69.192L375.676 69.2332C373.941 69.3212 367.738 65.6417 366.426 64.6078L366.76 63.5494C367.795 63.845 368.333 64.1186 369.363 63.8352C371.156 62.3576 379.459 46.5435 380.779 43.6302C379.611 42.1952 378.302 40.6454 377.218 39.166Z" fill="#043466"/>
<path d="M428.384 87.7825C428.49 87.5098 428.602 87.2384 428.714 86.9685C430.843 81.961 434.529 79.9277 439.552 82.2646C439.36 82.8956 439.207 83.2173 439.164 83.874C426.122 82.279 438.169 97.0054 436.716 102.179C435.079 108.008 429.126 109.676 424.183 106.685C425.181 105.884 425.216 105.863 426.436 105.803C429.943 106.244 431.065 104.547 432.886 101.846C432.365 96.835 429.609 93.0505 428.384 87.7825Z" fill="#043466"/>
<path d="M215.728 486.811C214.858 486.175 212.498 484.661 212.298 483.781C213.579 483.127 221.551 484.719 223.165 485.265C223.526 486.252 223.489 485.749 223.185 486.828C221.836 487.72 221.862 486.575 220.39 487.297C218.978 488.928 215.38 508.835 215.587 511.14L215.872 512.755C214.558 512.372 213.293 512.153 211.952 511.891C211.575 510.97 211.716 510.265 211.772 509.261C213.053 502.936 214.783 493.253 215.728 486.811Z" fill="#043466"/>
<path d="M353.893 30.7062C353.05 30.0346 351.221 28.7668 351.31 27.6606C352.97 27.2914 361.034 30.897 361.653 32.4952C360.485 33.0747 359.472 32.5268 358.39 32.0483L358.008 31.8756C356.621 34.0755 354.569 38.8436 353.416 41.3802C353.246 41.7977 353.105 42.1568 352.947 42.583L352.604 42.7346C351.609 46.0372 349.046 51.2401 348.579 53.7743C348.628 54.9984 348.683 55.0954 348.067 56.0916C346.43 55.4444 341.24 53.5504 340.509 51.9744L340.935 51.6881C342.402 51.8576 343.038 52.1701 344.402 52.688C346.793 48.5009 352.112 35.5696 353.893 30.7062Z" fill="#043662"/>
<path d="M56.0929 346.188C56.9379 346.344 57.4466 346.246 57.814 347C58.4901 348.389 59.7744 351.785 59.5653 353.23C58.7977 352.876 56.7262 350.387 56.101 350.516C50.348 351.73 44.5266 354.458 38.8752 356.346C34.5843 357.779 34.8194 357.575 34.5003 361.572L34.1352 361.606C32.4708 359.672 30.5973 354.622 30.7682 352.127L31.1408 351.814C32.0776 352.283 32.5327 353.35 33.0886 354.288C38.1922 353.112 44.3226 350.32 49.4383 348.723L52.1122 348.11L52.1145 347.739C51.7578 346.951 51.8263 347.351 51.8973 346.49C52.8073 345.975 54.8618 346.203 56.0929 346.188Z" fill="#043466"/>
<path d="M353.416 41.3802L355.602 41.0444C356.54 41.5454 356.983 41.527 357.294 42.6392C357.214 42.8786 357.136 43.118 357.055 43.3574C358.899 48.4486 360.899 54.1807 362.973 59.1168C363.58 60.5605 365.925 62.7405 366.76 63.5497L366.426 64.608C364.444 62.9727 361.63 62.4965 359.878 60.7513C358.943 59.8218 353.919 45.6465 352.604 42.7347L352.947 42.5831C353.105 42.1569 353.246 41.7978 353.416 41.3802Z" fill="#023964"/>
<path d="M139.456 464.225C140.255 464.421 140.26 464.351 140.802 464.947C140.883 465.549 140.96 465.292 140.64 465.736C140.736 469.413 143.298 479.887 144.882 483.513C145.314 484.5 146.624 486.411 147.283 487.36C144.308 486.506 143.476 486.296 140.991 484.35C139.856 481.516 139.269 476.857 138.521 473.735C138.03 471.683 136.911 467.773 136.711 465.894L136.932 465.425L139.456 464.225Z" fill="#023964"/>
<path d="M40.9962 373.162C42.9998 372.569 48.3508 371.994 50.6286 371.723C55.5018 371.142 60.9903 370.241 65.8454 369.971L65.1002 371.873C64.0178 371.476 55.3559 373.358 54.0753 373.801C53.7862 373.741 53.0614 373.864 52.7697 373.896C50.7445 373.631 44.8077 374.65 42.8982 375.571C41.9874 376.903 43.135 379.113 43.6471 380.58C40.8089 378.373 40.331 377.317 38.486 374.204C37.8947 373.323 36.9629 372.27 37.4807 371.254C38.4353 371.369 38.4889 371.441 39.2406 371.965L40.9962 373.162Z" fill="#023964"/>
<path d="M38.486 374.204C37.8947 373.323 36.9629 372.27 37.4807 371.254C38.4353 371.369 38.4889 371.441 39.2406 371.965L40.9962 373.162C40.1058 373.505 39.3419 373.787 38.486 374.204Z" fill="#023964"/>
<path d="M400.217 449.497L401.655 449.224C402.524 451.138 405.079 459.457 405.548 460.029C405.669 460.887 405.591 460.924 406.132 461.572C406.233 463.874 408.379 469.117 409.389 471.292C410.623 470.676 411.849 469.922 413.233 470.184L413.218 470.699C411.506 473.136 407.32 476.169 404.63 477.413C405.467 475.735 406.109 474.391 406.823 472.662C405.229 465.623 402.142 456.829 400.217 449.497Z" fill="#023964"/>
<path d="M25.0599 331.003C30.5908 329.772 39.4015 326.031 45.3067 324.094C45.0912 324.606 44.5342 326.117 44.1567 326.396C43.1572 326.333 28.6991 332.393 26.7724 333.377C25.8451 333.849 25.806 336.056 25.5859 337.222L25.0953 337.478L24.5202 337.15C23.9503 334.54 22.1602 330.77 21.9521 328.836L22.2591 328.569C23.4387 329.029 24.1706 330.042 25.0599 331.003Z" fill="#023964"/>
<path d="M454.078 115.319C455.477 114.832 457.03 115.142 458.135 116.129C459.24 117.115 459.723 118.623 459.395 120.068C459.07 121.513 457.985 122.667 456.564 123.084C454.441 123.705 452.211 122.52 451.535 120.413C450.862 118.307 451.99 116.046 454.078 115.319Z" fill="#043466"/>
<path d="M76.115 115.158C82.1557 114.821 83.6644 120.536 78.0591 123.402C74.0369 123.742 71.2237 118.419 76.115 115.158Z" fill="#043466"/>
<path d="M226.78 42.9146C243.516 42.5339 234.135 37.1987 238.572 34.2529C240.619 34.4578 240.913 40.7378 241.111 42.5017C236.023 43.6277 231.92 44.2207 226.753 44.9113L226.78 42.9146Z" fill="#023964"/>
<path d="M472.322 406.118C471.22 404.179 469.451 402.821 468.634 401.143L468.841 400.674C471.22 400.124 474.621 403.445 476.534 404.777C473.666 408.501 470.458 413.468 467.681 416.788C467.224 415.942 467.284 415.971 466.484 415.462C468.524 412.881 471.047 409.16 472.322 406.118Z" fill="#023964"/>
<path d="M139.456 464.225C142.449 463.554 150.657 462.536 152.534 460.326C152.639 460.202 153.04 459.327 153.1 459.195C155.278 460.449 157.444 461.724 159.599 463.019L159.372 463.462C157.984 463.845 155.061 463.307 152.853 463.577C148.761 464.078 144.625 465.407 140.639 465.735C140.96 465.292 140.883 465.548 140.801 464.947C140.259 464.351 140.254 464.42 139.456 464.225Z" fill="#023964"/>
<path d="M382.84 457.451C383.565 459.114 385.633 462.757 385.259 464.061C383.579 464.265 381.775 462.193 380.431 461.252C376.85 462.55 374.321 463.908 371.254 466.236C370.442 465.877 370.146 465.523 369.45 464.947C373.593 462.441 378.484 459.33 382.84 457.451Z" fill="#023964"/>
<path d="M221.647 512.346C222.711 512.357 224.054 512.493 224.995 512.093C226.605 510.283 227.931 506.784 229.575 506.352C230.71 507.748 229.258 513.304 228.607 514.979C226.129 514.737 223.039 514.225 220.645 513.557C219.259 513.399 217.281 512.999 215.872 512.755L215.587 511.14C216.957 511.474 220.959 512.09 221.647 512.346Z" fill="#043466"/>
<path d="M215.587 511.14C216.957 511.474 220.959 512.09 221.647 512.346L221.455 512.72L219.896 512.657L219.757 512.967L221.317 513.287C221.02 513.618 221.066 513.572 220.645 513.557C219.259 513.399 217.281 512.999 215.872 512.754L215.587 511.14Z" fill="#023964"/>
<path d="M355.602 41.0442C359.046 39.9461 361.934 39.0647 365.257 37.5877C366.797 36.9048 369.11 35.1645 370.033 34.9072L370.531 35.2088C371.817 35.7567 374.386 36.6738 375.178 37.6455C374.386 38.516 372.378 38.179 371.216 38.12C367.815 38.8356 360.579 41.2568 357.294 42.6389C356.983 41.5267 356.54 41.5451 355.602 41.0442Z" fill="#023964"/>
<path d="M370.531 35.209C371.817 35.7569 374.387 36.6739 375.178 37.6457C374.387 38.5161 372.378 38.1792 371.216 38.1202L370.411 37.6005C370.074 36.6406 370.293 36.2026 370.531 35.209Z" fill="#023964"/>
<path d="M293.697 14.5034C297.972 15.0234 305.251 16.1853 309.207 16.4219C308.908 18.5524 308.586 20.6798 308.246 22.804C307.455 23.3657 307.909 23.1651 306.738 23.1605C305.219 21.796 306.316 19.1098 304.883 18.0908C302.314 16.2648 297.958 17.0302 294.974 16.213C294.758 15.4021 294.304 15.0945 293.697 14.5034Z" fill="#023964"/>
<path d="M439.552 82.2646C442.921 84.2838 445.628 87.2414 447.343 90.7756C446.279 92.3697 444.141 95.4185 442.216 95.8184C439.103 94.7822 444.679 90.07 443.632 88.1702C442.449 86.023 441.215 84.9753 439.164 83.8741C439.207 83.2174 439.359 82.8957 439.552 82.2646Z" fill="#023964"/>
<path d="M458.684 401.65C457.692 400.372 457.041 399.748 456.619 398.185L456.872 397.756C458.687 397.863 464.686 402.067 464.548 403.943C463.144 404.349 462.22 403.71 460.822 403.083L456.279 408.156C455.698 407.569 455.894 407.75 455.117 407.362C456.475 405.534 457.72 403.727 458.684 401.65Z" fill="#023964"/>
<path d="M380.339 466.561C381.208 467.18 382.037 467.98 382.834 468.702C384.189 470.725 386.718 474.426 386.87 476.814L386.816 476.964C385.374 476.895 383.855 475.131 382.897 474.026C381.249 474.777 379.174 475.651 377.661 476.575C377.244 475.709 377.543 476.095 376.553 475.542C378.222 474.472 380.506 473.185 381.718 471.706C381.113 470.023 380.751 468.299 380.339 466.561Z" fill="#023964"/>
<path d="M380.339 466.561C381.208 467.18 382.037 467.98 382.834 468.702C382.514 470.152 382.474 470.446 381.717 471.706C381.113 470.023 380.751 468.299 380.339 466.561Z" fill="#023964"/>
<path d="M307.95 507.293C308.608 506.283 309.319 504.928 309.08 503.693C308.053 501.967 306.287 501.958 305.861 500.971C306.799 499.526 313.258 499.121 315.007 499.532L315.292 499.944C314.734 500.87 314.006 501.017 312.924 501.474C311.261 503.892 310.502 506.499 309.23 508.289L309.138 507.914C308.744 507.704 308.347 507.497 307.95 507.293Z" fill="#023964"/>
<path d="M96.1318 80.1201C97.9288 81.6392 100.243 83.5821 101.369 85.6798C100.984 86.5825 99.2954 86.6421 98.621 86.1748C95.4194 83.9567 94.7123 83.1041 91.1312 85.7368C91.4103 85.0801 91.6997 84.9719 91.8323 84.2428L90.8711 84.0934C92.5875 82.7395 94.3158 81.329 96.1318 80.1201Z" fill="#023964"/>
<path d="M102.136 112.117C100.767 110.889 97.7715 107.523 96.9136 105.948L97.2269 105.298C100.769 105.519 102.074 108.462 105.976 107.539L107.096 108.697L102.136 112.117Z" fill="#023964"/>
<path d="M98.7822 453.215C100.014 451.906 103.069 447.745 104.753 447.696C105.55 449.198 103.366 453.014 103.362 455.52C103.064 455.961 102.793 456.363 102.506 456.815C101.892 456.671 101.828 456.666 101.236 456.435L98.7822 453.215Z" fill="#043466"/>
<path d="M415.816 96.9427C417.467 95.7701 420.508 92.1617 422.387 92.4129C423 93.7679 420.698 97.3985 419.847 98.6416C419.217 99.0793 418.42 99.9457 417.893 100.209L415.816 96.9427Z" fill="#043466"/>
<path d="M149.341 56.4771L149.981 58.1705C146.949 60.215 140.945 63.3167 138.718 65.2222L137.853 64.074C140.209 61.9225 146.484 58.2286 149.341 56.4771Z" fill="#023964"/>
<path d="M498.937 309.226C499.683 309.577 499.806 309.733 500.603 309.807C499.875 313.315 498.707 320.086 497.761 323.263L496.69 323.096C497.013 318.178 498.569 313.902 498.937 309.226Z" fill="#023964"/>
<path d="M417.894 100.21C418.42 99.9462 419.217 99.0798 419.847 98.6421C420.664 102.608 422.583 104.489 426.436 105.803C425.216 105.864 425.181 105.884 424.183 106.685C421.395 105.614 419.375 102.638 417.894 100.21Z" fill="#1D4557"/>
<path d="M211.772 509.261C211.716 510.265 211.575 510.97 211.952 511.891C210.684 511.816 208.262 511.44 207.498 510.317L207.757 509.814C209.002 509.181 210.335 509.302 211.772 509.261Z" fill="#023964"/>
<path d="M48.8649 391.99C47.7852 390.281 46.9051 389.193 46.8726 387.144L47.2118 386.923C48.381 387.472 48.8131 388.485 49.9493 389.4L50.3955 389.754C49.6368 390.534 49.0516 390.94 48.8649 391.99Z" fill="#043466"/>
<path d="M313.571 511.356L314.078 511.353C315.588 511.33 315.87 510.861 317.007 511.333C317.392 512.343 317.366 511.848 317.13 512.87C316.192 513.756 314.993 513.69 313.712 513.742C314.043 512.522 314.046 512.441 313.571 511.356Z" fill="#3D5253"/>
<path d="M424.905 458.737C426.458 458.533 428.026 457.204 429.312 457.667C429.102 458.97 428.012 459.627 426.956 460.383L426.614 460.625C426.11 459.874 425.546 459.388 424.905 458.737Z" fill="#023964"/>
<path d="M376.794 493.231C377.876 491.205 378.325 490.419 379.709 488.604C380.051 489.501 380.224 490.042 380.736 490.871C379.602 491.622 377.994 492.52 376.794 493.231Z" fill="#294655"/>
<path d="M459.188 381.193C459.645 381.444 460.339 381.884 460.805 381.97C460.042 383.265 460.457 384.235 458.581 384.281L458.253 383.769C458.21 382.707 458.664 382.14 459.188 381.193Z" fill="#294655"/>
<path d="M420.851 431.645C419.899 432.451 419.781 433.303 418.581 434.226L418.155 433.988L417.845 432.848C418.006 431.809 418.567 431.467 419.344 430.727C419.654 431.145 419.775 431.57 420.31 431.651C420.705 431.709 420.549 431.723 420.851 431.645Z" fill="#023964"/>
<path d="M178.831 502.559C177.658 502.09 176.811 501.696 176.184 500.548C176.607 499.949 176.334 500.154 177.078 500.013C178.21 500.525 178.689 500.864 179.929 500.839C179.588 501.788 179.481 501.817 178.831 502.559Z" fill="#294655"/>
<path d="M348.58 53.7744C349.313 55.2143 351.462 56.0088 351.267 57.167C349.94 57.2036 349.192 56.8073 348.067 56.0917C348.683 55.0955 348.628 54.9985 348.58 53.7744Z" fill="#023964"/>
<path d="M157.024 70.4698C156.074 71.1918 155.365 71.9894 154.173 71.6315L154.04 70.9719C154.372 69.9553 155.06 69.5326 155.885 68.8135C156.389 70.0197 156.091 69.7565 157.024 70.4698Z" fill="#294655"/>
<path d="M349.693 501.046C349.696 501.924 349.48 502.404 350.28 502.971C349.195 503.627 348.533 504.116 347.348 503.992L347.256 503.483C347.719 502.332 348.666 501.823 349.693 501.046Z" fill="#023964"/>
</svg>
