<svg width="944" height="164" viewBox="0 0 944 164" fill="none" xmlns="http://www.w3.org/2000/svg">
<path d="M0 0H46.9862H565.862H711.652H804.739H851.451H943.641V164H851.484H804.937H723.35H676.717H622.061H575.063H46.7964H0V0Z" fill="#FDFDFD"/>
<path d="M861.22 0.608887C868.97 0.830162 876.227 1.42469 883.7 3.66223C968.356 29.0127 960.67 148.477 872.365 162.576C868.578 162.908 865.104 163.044 861.312 163.174C861.164 159.115 861.196 154.697 861.15 150.607C879.203 150.794 896.952 143.094 909.848 130.581C922.75 118.163 930.205 101.141 930.583 83.2404C930.878 65.1907 924.003 47.7602 911.461 34.7704C897.864 20.798 880.687 13.5547 861.247 13.2843C861.146 9.1144 861.206 4.79221 861.22 0.608887Z" fill="#314166"/>
<path d="M0 0H46.9862L46.7964 164H0V0Z" fill="#C1C1C0"/>
<path d="M804.739 0H851.451L851.484 164H804.937C804.2 109.646 805.186 54.5236 804.739 0Z" fill="#C1C1C0"/>
<path d="M574.939 22.9625C590.153 22.3471 606.782 22.4721 622.079 22.5536L622.061 164H575.063L574.939 22.9625Z" fill="#C1C1C0"/>
<path d="M676.477 22.7129C691.604 22.6264 708.343 22.2187 723.364 22.8085C723.405 69.6752 723.829 117.197 723.35 164H676.716C676.269 150.581 676.371 136.634 676.477 123.163C676.739 89.7371 676.039 56.1162 676.477 22.7129Z" fill="#C1C1C0"/>
<path d="M565.862 0H711.651C714.909 1.03394 720.185 0.759864 723.709 0.731657L723.751 12.7401C698.57 11.9169 669.344 12.7279 643.924 12.8475L643.73 162.618L631.612 162.725C631.013 123.9 632.036 84.8193 631.589 45.9683C631.465 34.9512 631.313 23.5129 631.672 12.5169C621.471 12.9295 610.33 12.6421 600.041 12.633L551.836 12.8324L551.868 0.786468C556.402 0.814348 561.429 0.86545 565.862 0Z" fill="#314166"/>
<path d="M780.421 0.904435L792.949 0.705078C793.589 54.3258 792.953 109.484 792.962 163.211L780.425 163.364C780.176 151.712 780.379 139.528 780.407 127.837L780.43 88.1301C765.045 88.4839 749.467 88.1089 733.939 88.4249C733.925 84.16 733.838 79.8956 733.676 75.6339C749.103 75.9098 764.676 75.398 780.181 75.6472C780.849 50.8897 779.693 25.4379 780.421 0.904435Z" fill="#314166"/>
<path d="M127.755 58.5521C139.96 56.2888 151.697 64.3221 154.002 76.517C156.307 88.712 148.312 100.473 136.123 102.819C123.875 105.176 112.042 97.1354 109.727 84.8824C107.41 72.6294 115.492 60.8265 127.755 58.5521Z" fill="#314166"/>
<path d="M129.527 62.6199C136.069 61.7487 142.574 64.4686 146.548 69.7364C150.523 75.0046 151.351 82.0046 148.716 88.0551C146.081 94.1051 140.391 98.2673 133.826 98.9468C123.879 99.9769 114.948 92.8304 113.773 82.9015C112.598 72.9722 119.614 63.9393 129.527 62.6199Z" fill="#FDFDFD"/>
<path d="M423.869 118.091C428.793 117.87 433.985 119.083 438.037 121.945C442.927 125.411 446.239 130.68 447.242 136.59C448.257 142.606 447.068 148.869 443.494 153.862C439.51 159.427 434.282 161.965 427.664 163.048C421.619 163.253 416.14 162.288 411.294 158.417C406.798 154.764 403.92 149.489 403.282 143.731C402.597 137.499 404.141 131.302 408.095 126.389C412.228 121.253 417.423 118.801 423.869 118.091Z" fill="#314166"/>
<path d="M422.13 122.704C432.005 120.864 441.517 127.326 443.443 137.183C445.368 147.04 438.987 156.606 429.145 158.616C419.183 160.651 409.472 154.175 407.523 144.197C405.574 134.219 412.134 124.566 422.13 122.704Z" fill="#FDFDFD"/>
<path d="M355.393 118.84C364.316 118.744 375.365 117.232 382.74 123.213C387.207 126.836 389.739 132.168 390.324 137.831C391.103 145.381 389.13 150.777 384.422 156.568C376.383 163.969 365.616 162.342 355.51 162.218C355.335 147.776 356.132 133.27 355.393 118.84Z" fill="#314166"/>
<path d="M359.779 122.984C367.026 122.855 375.483 122.085 381.248 127.411C384.648 130.551 385.938 135.091 386.121 139.589C386.34 144.955 385.404 149.624 381.699 153.644C375.247 159.419 367.956 158.464 359.879 158.311C359.76 146.536 359.726 134.759 359.779 122.984Z" fill="#FDFDFD"/>
<path d="M62.73 118.838C71.6715 118.768 82.9796 117.31 90.2578 123.496C94.7576 127.32 97.1461 133.109 97.6101 138.912C98.1372 145.504 96.1039 151.401 91.8405 156.398C91.7856 156.453 91.7308 156.508 91.6751 156.563C84.0494 164.071 72.4981 162.322 62.7226 162.204C62.5567 147.756 62.8037 133.29 62.73 118.838Z" fill="#314166"/>
<path d="M67.1807 123.068C73.918 122.932 81.68 122.013 87.316 126.495C90.9063 129.351 92.8235 133.826 93.3345 138.303C94.0187 144.298 92.3107 149.263 88.6029 153.904C88.5868 153.919 88.5711 153.934 88.5545 153.95C82.6061 159.476 74.4326 158.45 66.9466 158.254C66.761 146.548 67.0978 134.78 67.1807 123.068Z" fill="#FDFDFD"/>
<path d="M227.708 118.102C229.884 118.063 232.001 118.153 234.148 118.534C241.006 119.75 245.081 124.052 248.92 129.528C247.836 129.769 245.579 130.301 244.761 129.646C236.945 122.938 227.851 117.929 218.435 125.785C202.328 139.223 216.161 166.523 237.113 157.568C242.424 155.298 245.074 150.67 246.939 145.552L237.062 145.49C234.275 145.514 227.788 145.699 225.338 145.351L224.732 144.445C224.588 143.213 224.498 142.841 225.14 141.772C228.788 141.047 247.268 141.417 251.76 141.435C248.632 170.001 211.312 170.042 207.191 143.957C205.167 131.15 214.309 119.517 227.708 118.102Z" fill="#314166"/>
<path d="M171.175 118.103C177.44 117.71 191.229 122.497 190.68 129.788L189.875 130.254C184.363 129.791 184.338 125.507 179.421 123.5C174.664 121.559 169.994 121.364 165.225 123.475C160.8 125.431 157.342 129.074 155.617 133.594C153.8 138.358 153.773 144.193 155.881 148.872C157.797 153.082 161.302 156.36 165.63 157.991C170.261 159.678 175.368 159.488 179.862 157.463C185.412 154.901 187.791 151.017 189.784 145.569L179.006 145.5C176.749 145.526 169.174 145.872 167.791 144.886C167.621 143.457 167.652 143.184 168.086 141.811C170.172 141.114 190.891 141.433 194.673 141.445C191.799 170.097 153.277 169.957 150.063 143.442C148.458 130.206 157.452 119.29 171.175 118.103Z" fill="#314166"/>
<path d="M265.526 1.74549L271.049 1.67871C272.872 5.05501 276.981 11.0952 279.223 14.6705C284.498 23.0606 289.717 31.4855 294.881 39.9448C294.748 29.0078 294.068 13.0418 294.643 2.4156C295.77 1.54671 295.948 1.84126 297.656 1.81857C299.3 3.78201 298.508 12.7177 298.512 15.9041L298.57 44.7889C297.175 44.8363 295.962 44.7764 294.577 44.7083C291.889 43.4808 272.621 10.8583 269.692 5.92623C269.519 11.2951 270.251 43.0915 269.353 44.6122C267.394 44.7711 267.989 44.9462 266.37 44.1465C264.57 41.5833 265.606 35.1807 265.585 31.8551L265.526 1.74549Z" fill="#314166"/>
<path d="M88.3115 78.3667C88.4525 72.6313 88.3774 66.8715 88.2793 61.1329C88.259 59.9393 89.1077 59.3238 89.873 58.6416C91.5534 58.3661 91.0807 58.2154 92.4819 58.8959C92.9523 61.1006 92.7583 71.7109 92.7491 74.2897C92.6994 83.7773 92.6998 93.2654 92.7496 102.753C91.3581 102.757 90.4951 102.684 89.1114 102.521C87.8872 101.265 88.4332 85.3869 88.4511 82.5487C81.5167 82.5948 74.5822 82.5902 67.6477 82.534L67.6339 102.011L67.051 102.581C65.8931 102.618 64.386 102.824 63.4875 102.184C62.889 99.7061 63.141 90.5096 63.1475 87.5014L63.2203 58.6411C64.6399 58.6218 66.2115 58.4683 67.4588 59.1188C67.7689 60.4806 67.6404 75.5759 67.6491 78.3239L88.3115 78.3667Z" fill="#314166"/>
<path d="M461.605 118.821C468.296 118.776 477.156 117.642 483.151 121.012C486.113 122.677 488.283 125.306 489.187 128.595C490.14 132.052 489.809 135.986 488.021 139.124C485.814 143.005 482.874 144.616 478.672 145.781C480.529 148.809 488.565 158.818 488.528 161.535L487.68 162.181C486.436 162.361 485.708 162.377 484.584 161.775C482.215 158.376 472.364 144.624 471.862 141.896C472.797 141.183 474.392 141.332 475.53 141.298C478.17 141.107 480.612 140.951 482.621 138.983C484.436 137.207 485.385 134.823 485.381 132.294C485.39 129.928 484.432 127.661 482.731 126.018C478.4 121.843 471.369 122.959 465.895 123.044L465.918 149.571C465.927 152.842 466.328 156.244 466.135 159.485C466.093 160.191 465.909 160.759 465.494 161.332C464.513 162.019 463.72 162.002 462.555 161.983C460.988 160.283 461.707 124.227 461.605 118.821Z" fill="#314166"/>
<path d="M477.082 20.6781C477.115 17.9693 476.857 3.32873 477.81 2.21511C479.363 1.53047 478.769 1.63776 480.492 1.80388L481.275 2.42515C481.653 6.78357 481.897 42.8835 480.879 44.5511L480.017 45.1892C475.58 44.3251 477.34 29.109 477.304 24.7856L456.052 24.8291C456.347 27.4428 456.815 43.49 455.361 44.6578C454.036 44.7357 451.54 44.7363 451.859 42.8943C452.764 37.6637 450.803 4.37128 452.824 2.05887C454.213 2.02773 455.053 1.75873 456.057 2.43538C456.579 5.45038 456.115 16.6215 456.04 20.5067C462.836 20.5503 470.341 20.4591 477.082 20.6781Z" fill="#314166"/>
<path d="M332.539 58.0998C341.204 57.6889 352.944 60.305 355.753 69.7562L355.364 70.3316C350.613 71.2447 345.885 61.2439 336.057 62.1293C311.836 64.312 313.448 100.49 339.142 99.4094C347.977 97.6127 347.34 94.3853 352.375 91.3817C353.377 91.4692 354.859 91.4632 355.586 92.0676C355.224 95.6927 347.561 101.294 343.707 102.349C313.031 110.746 301.85 66.643 332.539 58.0998Z" fill="#314166"/>
<path d="M377.68 100.705C377.883 101.371 377.734 101.695 377.546 102.372L376.296 102.917C374.683 102.732 375.124 102.985 373.947 101.996L373.782 75.8531C373.747 70.5484 373.539 64.8651 374.04 59.6092C374.111 58.8657 374.182 59.026 374.939 58.4304C376.454 58.3456 375.922 58.2401 377.291 58.9141C378.43 60.3781 377.854 74.5452 377.664 77.0803C378.305 78.0404 378.503 78.2642 379.765 78.2937C386.004 78.4379 392.552 78.3656 398.777 78.3329C398.814 74.7949 397.811 58.7174 401.137 57.9692C401.75 58.2065 402.732 58.5861 402.74 59.2992C402.832 68.0119 403.756 95.6082 402.728 102.369C401.7 102.952 401.111 102.785 399.947 102.637C399.099 101.923 398.611 101.374 398.685 100.158C399.045 94.2842 398.956 88.4285 398.933 82.5439C392.111 82.5623 384.609 82.7222 377.845 82.5444C377.834 87.5869 378.076 95.9214 377.68 100.705Z" fill="#314166"/>
<path d="M377.68 100.705C377.883 101.37 377.734 101.694 377.546 102.372L376.296 102.916C374.683 102.732 375.124 102.985 373.947 101.995L373.782 75.8527C373.747 70.548 373.539 64.8647 374.04 59.6089C374.111 58.8653 374.182 59.0256 374.939 58.43C376.454 58.3452 375.922 58.2397 377.291 58.9137C378.43 60.3777 377.854 74.5448 377.664 77.0799C376.868 78.4076 377.067 98.7929 377.68 100.705Z" fill="#314166"/>
<path d="M186.825 58.1462C187.626 58.0817 188.429 58.0315 189.233 57.9956C195.491 57.7187 201.049 59.1445 205.869 63.4002C207.381 64.7343 210.27 68.147 210.36 70.2283C207.746 72.2539 201.969 65.1531 199.155 63.8738C196.202 62.5318 194.127 61.9371 190.836 62.0578C186.137 62.1942 181.693 64.2244 178.514 67.6868C167.474 79.6219 175.178 100.255 193.505 99.4051C200.689 98.0816 201.111 95.8745 206.747 91.6142C208.123 91.4585 208.491 91.575 209.832 91.9229L210.089 92.6097C208.491 96.0814 203.3 100.752 199.627 101.935C169.007 111.799 155.508 68.1438 186.825 58.1462Z" fill="#314166"/>
<path d="M170.217 1.06359C174.199 0.240333 179.389 1.16924 183.147 2.77741C185.787 3.90676 193.573 9.82719 192.126 12.8448C186.943 14.1818 183.42 4.04857 173.587 4.54055C148.162 5.81255 149.323 42.7027 175.874 41.392C184.367 39.7016 181.869 38.1053 188.717 34.0108C189.425 33.5874 190.754 33.551 191.765 34.0865C191.862 35.3833 191.268 36.0733 190.55 37.1179C184.087 46.5279 168.883 48.506 159.773 41.5687C155.071 37.9491 152.003 32.6067 151.248 26.7214C149.443 13.3239 156.662 2.85401 170.217 1.06359Z" fill="#314166"/>
<path d="M408.06 1.03462C418.588 -1.03006 425.765 4.32302 431.493 12.3394L426.65 12.7923C422.543 7.59949 417.457 4.09126 410.567 4.44363C405.928 4.6878 401.575 6.76295 398.466 10.2134C395.072 14.0286 393.332 19.0348 393.627 24.1322C394.246 35.9827 402.66 42.031 414.05 41.4486C420.425 40.141 421.763 38.3531 426.554 34.0098C427.989 33.6892 429.75 33.1223 430.624 34.5141C429.48 38.8115 420.031 44.675 415.516 45.4476C386.016 50.4975 378.227 5.85773 408.06 1.03462Z" fill="#314166"/>
<path d="M504.479 58.618C507.755 58.6346 525.407 57.9537 526.946 59.2736C526.918 60.9946 527.176 61.4447 526.347 62.8092C523.97 63.363 511.663 63.07 508.658 63.0681C508.562 68.077 508.686 73.2831 508.746 78.3086C512.317 78.2778 524.55 77.8217 527.098 79.0512C527.181 80.4577 527.089 80.6995 526.306 81.8738C522.467 84.6788 511.349 80.9197 508.658 83.3917L508.645 98.341C511.644 98.3742 525.37 97.9089 527.089 99.3803C527.006 101.007 527.264 101.215 526.467 102.348C522.154 102.957 509.612 102.631 504.346 102.645L504.479 58.618Z" fill="#314166"/>
<path d="M107.716 1.65098C111.194 1.47757 128.001 1.04259 130.336 2.16745C130.591 3.54452 130.612 3.07763 129.907 4.38198C127.112 6.20814 115.993 5.51639 112.001 5.52827L111.924 20.6352C116.743 20.5796 125.694 20.2233 129.997 20.9514C130.66 21.964 130.456 21.7483 130.314 23.1699C127.623 26.2614 116.352 24.8923 111.942 24.8889C111.941 28.8083 112.135 36.9591 111.584 40.4964C115.864 40.59 126.944 39.6659 129.993 41.4422C130.727 42.7293 130.539 42.336 130.335 43.9689C129.018 45.2162 110.861 44.7769 107.415 44.7882C107.641 30.4103 107.742 16.0306 107.716 1.65098Z" fill="#314166"/>
<path d="M111.924 20.635C116.743 20.5794 125.694 20.2231 129.996 20.9512C130.66 21.9638 130.456 21.7481 130.313 23.1697C127.623 26.2612 116.352 24.8922 111.942 24.8887C111.941 28.8081 112.135 36.9589 111.583 40.4962C110.659 37.0714 111.537 24.4394 111.924 20.635Z" fill="#354473"/>
<path d="M445.518 58.6431C446.948 58.6477 448.217 58.5454 449.501 59.2009C449.963 62.2921 449.62 68.0883 449.508 71.5299C449.237 79.9506 451.407 93.335 445.305 99.9775C441.521 104.831 429.384 104.409 425.624 99.937C419.971 93.212 421.635 74.4935 421.647 65.7609C421.688 62.4326 420.344 60.6318 423.304 58.7232C424.823 58.6334 424.596 58.4201 425.741 59.1185C427.236 66.9462 424.933 79.9746 425.986 88.5837C427.46 100.639 436.846 103.604 444.676 93.8897C446.045 87.5186 445.552 66.4598 445.518 58.6431Z" fill="#314166"/>
<path d="M283.951 58.1181C290.669 57.5026 296.347 59.091 297.942 66.7184C298.185 67.8784 298.393 69.2171 297.694 70.2513L296.666 70.4466C291.756 68.0322 294.165 64.5569 291.412 62.9307C286.392 59.9654 278.785 64.4141 280.326 70.6396C282.037 77.5507 289.485 76.7878 294.418 80.1618C300.172 84.0964 300.664 92.0702 297.243 97.637C294.875 101.387 292.398 102.402 288.132 103.34C281.383 103.362 277.296 100.67 275.065 93.9825C274.669 92.7948 274.788 91.6584 275.438 90.5781C276.831 89.753 276.279 89.9138 277.915 89.8954C278.474 91.2272 279.08 92.5387 279.733 93.8268C283.61 101.405 291.997 101.054 294.706 93.4651C299.213 80.8422 280.614 82.6255 277.022 74.8953C273.569 67.467 277.109 61.7592 283.951 58.1181Z" fill="#314166"/>
<path d="M356.024 1.01208C361.468 0.484062 366.418 1.27848 368.783 7.02413C369.336 8.3699 370.162 10.2722 369.893 11.7217C365.526 14.5196 365.079 7.08724 362.73 5.61728C357.807 2.537 350.354 6.24227 351.616 12.6992C352.953 19.5384 361.793 19.5032 366.421 23.1666C372.621 27.5771 371.442 35.089 367.951 40.9349C366.193 43.8787 362.245 45.0337 358.864 45.565C352.175 45.4854 346.457 41.6058 346.071 34.0842C346.025 33.1894 347.078 32.6558 347.747 32.2506C348.232 32.2424 348.772 32.2333 349.364 32.2234C350.767 35.074 351.424 38.5949 354.336 40.3771C354.663 40.5551 355.225 40.9227 355.597 40.9627C358.95 41.3244 363.08 41.4578 364.909 38.0551C374.367 20.4597 342.493 26.3289 347.22 9.65614C348.057 6.70345 349.567 3.89722 352.296 2.29805C353.417 1.63436 354.738 1.3247 356.024 1.01208Z" fill="#314166"/>
<path d="M265.945 118.848C270.379 118.896 285.319 118.382 288.571 119.279C288.928 120.522 288.747 121.249 288.561 122.524C287.25 123.39 273.078 123.034 270.483 123.021C270.46 125.435 270.129 137.261 270.947 138.605C270.993 139.81 271.115 141.373 270.868 142.52C270.17 144.596 270.539 155.296 270.595 158.214C273.984 158.342 287.21 157.495 289.033 159.284C288.995 160.883 289.261 160.734 288.375 161.701C283.141 162.613 271.859 162.237 266.077 162.203C265.525 148.154 266.604 133.186 265.945 118.848Z" fill="#314166"/>
<path d="M112.448 118.849C115.68 118.876 133.367 118.312 134.896 119.65C134.96 121.246 135.159 120.819 134.342 122.075C131.496 123.792 120.82 123.037 116.846 123.017C116.826 125.848 116.208 137.428 117.839 138.756C117.26 139.691 117.025 139.977 117.18 141.094C118.33 142.098 119.552 141.662 120.929 141.978L118.241 142.524L117.451 142.665C116.306 144.203 116.929 155.456 117 158.216C121.035 158.326 133.007 157.541 135.685 159.372L135.598 160.892C133.351 163.116 116.632 162.242 112.5 162.223C112.205 148.156 112.5 133.022 112.448 118.849Z" fill="#314166"/>
<path d="M504.981 118.812C509.69 118.841 522.555 118.445 526.305 119.18C527.098 120.356 526.794 120.414 526.697 122.16C524.868 123.529 512.602 123.031 509.552 123.01C509.566 126.67 508.64 134.658 510.073 138.084C510.322 138.677 511.934 138.68 512.8 138.786C516.233 138.298 523.573 137.676 526.471 139.543L526.983 140.459C525.398 144.037 512.639 143.151 509.492 142.427C509.418 148.156 509.603 153.807 509.635 159.521C509.644 160.605 508.455 161.395 507.718 161.93C506.331 162.102 506.654 162.262 505.543 161.659C504.322 158.227 505.101 125.106 504.981 118.812Z" fill="#314166"/>
<path d="M512.801 138.787C516.233 138.299 523.573 137.677 526.471 139.543L526.983 140.46C525.398 144.038 512.639 143.151 509.492 142.427C510.142 142.226 512.778 142.098 513.607 142.041C511.967 141.722 511.271 141.544 509.709 140.958L509.437 140.21C510.234 139.136 511.492 139.043 512.801 138.787Z" fill="#354473"/>
<path d="M504.286 1.69291C508.493 1.58303 523.398 0.894065 526.527 2.18162C526.826 3.50476 526.849 2.99197 526.458 4.27573C524.218 6.07429 511.944 5.48481 508.488 5.49951C508.211 10.5348 508.276 15.5831 508.681 20.6097C508.451 22.0174 508.142 23.5179 508.258 24.9324L508.23 40.4812C511.013 40.4671 525.495 39.9202 526.762 41.2503C526.734 42.7123 526.951 43.2875 526.278 44.4639C522.099 45.1088 509.308 44.7663 504.092 44.7697L504.286 1.69291Z" fill="#314166"/>
<path d="M309.594 124.163C309.456 132.517 309.42 140.871 309.486 149.226C309.512 152.564 310.002 158.271 309.481 161.213C308.53 162.031 308.355 161.784 306.836 161.921L306.175 161.346C305.54 159.308 305.764 123.125 306.079 119.402L306.661 118.916C308.34 118.901 309.06 118.907 310.706 119.204C312.686 121.36 317.139 128.897 318.864 131.698C323.783 139.655 328.651 147.645 333.468 155.665C333.274 157.039 333.155 158.898 332.4 160.007C324.517 150.532 316.568 132.431 309.594 124.163Z" fill="#314166"/>
<path d="M253.369 78.3868C253.378 73.8445 252.633 61.6887 254.588 58.7777C255.802 57.9904 255.316 58.06 256.666 58.3134C257.209 59.0168 257.797 59.6198 257.725 60.5776C256.768 73.4405 258.996 89.4222 257.465 101.938C256.657 102.89 255.106 102.898 253.982 102.463C252.96 101.236 253.44 85.5337 253.426 82.5587C250.394 82.5494 233.942 81.8312 232.521 83.2916C232.349 83.4689 232.285 83.6758 232.239 83.9149C231.71 81.6705 232.052 76.5289 232.285 74.109C232.479 75.696 232.368 77.0025 233.224 78.1417C238.609 78.8065 247.58 78.208 253.369 78.3868Z" fill="#314166"/>
<path d="M468.148 58.7822C469.858 58.8375 470.876 58.5961 472.217 59.3857C472.599 61.9664 472.369 69.3165 472.355 72.3159L472.253 98.2035C476.949 98.3758 482.925 98.1464 487.472 98.69C488.007 99.5031 487.634 101.394 487.523 102.461L468.028 102.684L468.148 58.7822Z" fill="#314166"/>
<path d="M333.468 155.665L334.225 155.999C335.892 151.216 333.16 121.777 334.957 118.751C336.468 118.692 337.042 118.617 338.441 119.162C338.803 122.339 338.683 126.124 338.645 129.346C338.518 140.198 338.738 151.098 338.58 161.943C336.938 162.128 334.905 162.574 333.508 161.796L332.4 160.007C333.155 158.898 333.274 157.039 333.468 155.665Z" fill="#314166"/>
<path d="M218.029 24.9055C218.036 27.586 218.386 43.2443 217.683 44.5457C215.996 44.6992 215.612 44.7234 213.976 44.3081C212.354 40.152 214.643 14.5588 213.642 8.57914C213.218 6.04778 213.465 3.26597 215.681 1.57048C216.672 1.36298 216.647 1.19208 217.398 1.60033C218.83 3.50246 218.098 16.4018 217.924 19.3569C217.986 21.2059 218.02 23.0556 218.029 24.9055Z" fill="#314166"/>
<path d="M239.069 16.4457C238.958 12.8175 238.655 5.68612 239.242 2.37892C240.275 1.55534 240.638 1.83958 242.225 1.83172L243.209 2.38775C243.826 5.34499 243.359 43.5981 242.57 44.8301C241.069 45.2301 241.587 45.1986 240.033 44.5941C239.681 44.1897 239.023 43.3368 239.009 42.836C238.855 37.1071 239.081 30.48 239.08 24.8C239.067 21.5776 239.503 19.9561 239.069 16.4457Z" fill="#314166"/>
<path d="M321.51 1.80124C323.134 1.68923 323.71 1.62284 325.287 1.98401C325.825 3.06243 325.489 39.9162 325.506 44.6598C324.154 44.7518 322.681 45.0042 321.543 44.2886C321.163 42.1176 321.37 33.1171 321.383 30.4648L321.51 1.80124Z" fill="#314166"/>
<path d="M75.7178 5.49178L80.1264 5.46387C80.1121 9.44073 80.3181 43.4566 79.6721 44.4671C77.9498 44.7038 77.5977 44.7273 75.9372 44.2314C74.9258 41.3773 75.6782 10.3173 75.7178 5.49178Z" fill="#314166"/>
<path d="M232.239 83.9148L232.254 84.0419C232.51 86.3435 232.853 100.614 231.554 102.922C231.354 103.277 230.769 103.218 230.272 103.265C229.762 102.856 228.834 102.135 228.827 101.485C228.749 94.9618 227.174 62.6344 229.14 58.7551C230.627 58.4911 230.099 58.4165 231.493 58.955C233.248 61.4735 232.369 70.6059 232.285 74.1089C232.052 76.5288 231.71 81.6704 232.239 83.9148Z" fill="#314166"/>
<path d="M75.718 5.4919C73.2179 5.55146 64.8564 6.14569 63.1396 4.82498C62.9991 3.62244 62.8595 3.11026 63.4658 2.04818C66.1203 1.35221 88.9838 1.33095 92.057 1.7165C92.8357 2.72003 92.6242 2.4211 92.4878 3.93479C90.0919 6.71775 83.7371 5.49296 80.1265 5.46398L75.718 5.4919Z" fill="#354473"/>
<path d="M217.924 19.3565L218.622 20.3124C221.59 20.8022 235.021 20.7507 238.19 20.4639C239.039 19.3934 238.905 18.004 239.07 16.4458C239.503 19.9561 239.067 21.5777 239.08 24.8C233.297 24.8135 223.503 24.5397 218.029 24.9052C218.021 23.0552 217.986 21.2055 217.924 19.3565Z" fill="#354473"/>
<path d="M508.681 20.6098C511.925 20.5545 523.909 20.1525 526.209 20.8009C526.845 21.7183 526.563 23.1751 526.467 24.3391C525.029 25.5863 511.275 24.8568 508.257 24.9326C508.142 23.518 508.451 22.0176 508.681 20.6098Z" fill="#354473"/>
<path d="M270.947 138.605C274.998 138.542 284.721 138.147 288.4 138.827C289.146 140.182 288.895 140.004 288.837 141.764C287.465 143.094 282.682 142.821 280.669 142.79C277.401 142.723 274.134 142.634 270.868 142.521C271.115 141.374 270.993 139.81 270.947 138.605Z" fill="#354473"/>
<path d="M117.839 138.756C121.585 138.596 132.841 137.632 135.367 140.091L135.169 141.346C131.673 143.519 122.52 142.662 118.24 142.524L120.928 141.978C119.552 141.662 118.329 142.098 117.179 141.094C117.025 139.977 117.259 139.691 117.839 138.756Z" fill="#354473"/>
</svg>
