<svg width="1085" height="510" viewBox="0 0 1085 510" fill="none" xmlns="http://www.w3.org/2000/svg">
<path d="M693.102 342.955C706.602 343.172 720.26 342.773 733.748 342.961C750.922 343.313 767.785 341.186 784.027 348.252C809.557 359.356 807.418 389.52 798.447 411.123C791.574 427.676 780.359 433.301 764.469 439.524C772.062 449.127 773.674 455.496 777.857 466.816C781.73 477.252 785.539 487.711 789.277 498.193C792.846 479.842 797.416 460.723 801.506 442.424L823.561 343.002L862.754 342.967C904.648 343.043 928.426 356.367 927.717 401.525C925.807 444.504 897.066 500.9 847.631 501.234C809.176 501.498 769.121 502.43 730.795 501.363C726.781 483.656 723.289 465.645 719.152 448.055C715.273 465.557 711.107 484.248 706.719 501.557L656.229 501.44C657.793 492.721 660.647 481.647 662.697 472.846L674.68 421.447L686.34 371.092C688.355 362.414 690.617 351.352 693.102 342.955ZM863.434 449.555C873.066 442.969 878.228 433.078 880.25 421.863C883.877 401.736 877.76 392.555 857.287 392.432C853.449 412.418 848.264 434.203 843.688 454.154C852.518 454.072 855.412 453.633 863.434 449.555ZM727.59 413.197C733.561 413.186 738.623 413.332 744.195 410.707C748.42 408.029 750.465 403.676 751.689 398.977C755.094 385.852 742.478 385.934 733.625 385.928C732.137 394.623 729.617 404.502 727.59 413.197Z" fill="#024EA3"/>
<path d="M614.451 338.537C710.709 333.117 682.156 499.096 586.408 506.971C554.287 507.855 530.662 491.139 527.571 457.635C522.719 405.035 558.471 344.543 614.451 338.537ZM596.967 455.449C629.92 448.02 636.312 389.355 605.984 392.332C573.447 395.455 561.523 459.721 596.967 455.449Z" fill="#024EA3"/>
<path d="M493.377 342.973L542.768 342.967C534.031 384.885 524.083 426.639 515.025 468.492C512.668 479.385 510.327 490.395 507.686 501.217C503.901 501.709 494.816 501.463 490.685 501.463L458.192 501.398C450.42 478.383 443.392 455.045 435.733 431.988C433.903 426.475 432.353 420.914 429.951 415.617C428.605 423.914 428.623 434.385 427.006 442.635C423.18 462.164 418.595 482.027 414.153 501.41C398.263 501.803 380.943 501.475 364.95 501.404C367.354 486.129 373.258 462.908 376.692 447.451L399.878 342.99L449.428 343.09C451.99 349.512 454.955 360.281 457.046 367.113L470.328 410.443C472.414 417.24 475.102 427.178 477.88 433.418C479.444 424.107 479.005 412.658 480.76 402.797C484.321 382.805 489.058 362.83 493.377 342.973Z" fill="#024EA3"/>
<path d="M190.83 342.961C217.235 343.248 244.144 343.002 270.587 343.014C273.284 360.879 274.644 379.189 277.302 397.02C279.77 413.578 280.19 425.232 279.826 441.768C282.262 435.094 283.149 427.418 285.954 420.756C296.742 395.115 306.542 368.238 318.045 342.979L372.931 342.984C365.586 358.986 356.02 376.992 348.112 392.924C329.745 427.693 311.478 465.973 293.822 501.369C280.838 502.043 262.308 501.475 248.972 501.492C247.709 496.799 246.617 491.268 245.687 486.451C239.687 455.396 231.749 424.201 226.205 393.1C214.111 392.191 192.676 392.854 179.676 392.766C182.748 378.369 186.882 356.52 190.83 342.961Z" fill="#024EA3"/>
<path d="M774.348 0.399855C778.977 -0.210106 791.627 0.0524014 796.942 0.0775967C847.262 0.381112 896.604 14.0071 939.951 39.5704C1006.92 78.8504 1055.47 143.206 1074.86 218.389C1093.7 289.055 1083.2 364.336 1045.74 427.143C1040.63 435.832 1015.98 474.475 1007.71 476.614C1005.58 475.887 1006.53 476.485 1005.03 474.405C1004.39 470.25 1010.4 464.291 1013.43 460.278C1026.03 443.526 1036.41 425.221 1044.32 405.809C1074.43 333.651 1074.16 252.395 1043.57 180.434C1013.21 113.468 960.711 62.0985 891.887 35.3815C781.549 -6.55407 656.768 24.8094 579.371 113.932C565.731 129.835 554.381 146.788 544.877 165.422C543.904 167.327 540.26 174.878 538.397 175.539C536.938 176.057 536.029 175.946 534.617 175.39C531.266 170.583 537.477 160.97 540.049 156.208C550.871 135.777 563.949 116.623 579.037 99.1057C628.145 41.1829 698.586 5.58189 774.348 0.399855Z" fill="#024EA3"/>
<path d="M11.8714 343.037C28.5097 342.668 46.5132 343.008 63.2412 343.008L165.119 342.961L154.063 392.772C132.426 392.924 110.788 392.947 89.1496 392.854C88.4043 398.672 85.8455 408.205 84.4222 414.123C81.3097 426.779 78.3132 439.459 75.4345 452.168C71.057 468.328 67.7916 485.156 63.4744 501.422C45.2763 501.305 23.9418 502.02 6.23004 501.258C8.66168 488.813 12.4996 474.34 15.4837 461.883L31.9375 392.959C24.3484 392.854 7.4025 393.75 0 394.524C3.40641 377.783 7.99019 359.83 11.8714 343.037Z" fill="#024EA3"/>
<path d="M177.7 402.07L223.734 402.035C220.9 416.32 217.346 431.227 214.038 445.43C209.259 465.75 197.949 485.672 180.53 497.596C158.936 512.373 116.851 516.123 100.961 491.144C89.5857 473.256 95.4134 448.436 99.6632 429.223L105.692 402.094C120.466 401.684 137.121 402.076 152.045 402.088C149.616 410.719 140.246 448.002 143.758 454.359C144.893 456.416 146.818 457.295 149.002 457.852C152.621 458.771 156.295 458.443 159.513 456.469C170.013 450.035 174.551 414.486 177.7 402.07Z" fill="#024EA3"/>
</svg>
