<svg width="374" height="85" viewBox="0 0 374 85" fill="none" xmlns="http://www.w3.org/2000/svg">
<path d="M81.1768 13.089V65.5841C81.1768 66.5044 80.6812 67 79.7609 67H70.6636C69.7433 67 69.2477 66.5044 69.2477 65.5841V13.089C69.2477 12.1686 69.7433 11.6731 70.6636 11.6731H79.7609C80.6812 11.6731 81.1768 12.1686 81.1768 13.089ZM106.627 68.0619C93.4945 68.0619 84.3264 57.9381 84.3264 45.832C84.3264 33.6552 92.9989 23.4606 105.601 23.4606C119.229 23.4606 127.158 32.9118 127.158 45.7613C127.158 46.6462 127.123 47.5311 127.016 48.5577C126.91 49.4426 126.379 49.8674 125.53 49.8674H96.6803C98.2732 54.6815 102.379 57.3718 107.123 57.3718C110.379 57.3718 112.716 56.3806 114.91 54.8231C115.654 54.2568 116.326 54.3629 116.857 55.1063L121.211 61.3009C121.707 62.0089 121.636 62.7169 120.963 63.2478C117.176 66.1858 112.326 68.0619 106.627 68.0619ZM96.5741 41.0179H115.264C113.954 36.3454 110.592 33.7614 105.99 33.7614C101.494 33.7614 97.9546 36.4162 96.5741 41.0179ZM141.317 68.0619C134.415 68.0619 127.441 64.0974 127.441 54.7169C127.441 46.363 133.742 40.8055 146.167 40.8055H154.946V40.0268C154.946 36.9826 153.034 34.0091 148.008 34.0091C143.477 34.0091 140.22 35.0711 136.963 37.195C136.185 37.7259 135.512 37.6197 134.981 36.8764L130.733 30.8587C130.202 30.1154 130.309 29.4074 131.087 28.8411C137.211 24.5933 142.733 23.4606 148.68 23.4606C160.149 23.4606 166.91 29.4074 166.91 41.5489V65.5841C166.91 66.5044 166.415 67 165.494 67H158.556C157.742 67 157.211 66.646 156.928 65.9027L155.724 62.8938C153.565 65.0177 149.105 68.0619 141.317 68.0619ZM144.68 58.4691C150.521 58.4691 154.946 54.7523 154.946 49.7258V48.6993H146.91C141.955 48.6993 138.769 50.2214 138.769 53.5134C138.769 56.8408 140.716 58.4691 144.68 58.4691ZM201.325 26.6818V13.0182C201.325 12.0978 201.821 11.6023 202.741 11.6023H211.944C212.865 11.6023 213.36 12.0978 213.36 13.0182V65.5841C213.36 66.5044 212.865 67 211.944 67H204.9C204.122 67 203.591 66.646 203.272 65.9027L202.387 63.7788C199.732 66.2566 196.122 67.9203 191.272 67.9203C178.989 67.9203 169.078 57.9735 169.078 45.6197C169.078 33.3012 179.06 23.4606 191.272 23.4606C195.52 23.4606 198.776 24.6995 201.325 26.6818ZM191.484 56.416C197.431 56.416 202.068 52.0267 202.068 45.7967C202.068 39.5666 197.502 34.9649 191.555 34.9649C185.573 34.9649 181.113 39.5666 181.113 45.7967C181.113 52.0267 185.502 56.416 191.484 56.416ZM231.722 35.3189V65.5841C231.722 66.5044 231.226 67 230.306 67H221.102C220.182 67 219.686 66.5044 219.686 65.5841V35.3189H216.146C215.226 35.3189 214.731 34.8233 214.731 33.903V25.5844C214.731 24.6641 215.226 24.1685 216.146 24.1685H219.615V16.4518C219.615 15.6022 220.04 15.0713 220.89 14.8943L230.199 13.089C231.155 12.912 231.757 13.4076 231.757 14.3633V24.1685H238.412C239.332 24.1685 239.828 24.6641 239.828 25.5844V33.903C239.828 34.8233 239.332 35.3189 238.412 35.3189H231.722ZM251.64 19.5668H242.259C241.339 19.5668 240.843 19.0712 240.843 18.1509V9.83238C240.843 8.91203 241.339 8.41646 242.259 8.41646H251.64C252.56 8.41646 253.056 8.91203 253.056 9.83238V18.1509C253.056 19.0712 252.56 19.5668 251.64 19.5668ZM252.95 25.5844V65.5841C252.95 66.5044 252.454 67 251.534 67H242.33C241.41 67 240.914 66.5044 240.914 65.5841V25.5844C240.914 24.6641 241.41 24.1685 242.33 24.1685H251.534C252.454 24.1685 252.95 24.6641 252.95 25.5844ZM309.489 23.1066C319.082 23.1066 325.382 29.7614 325.382 42.5754V65.5841C325.382 66.5044 324.887 67 323.966 67H314.763C313.843 67 313.347 66.5044 313.347 65.5841V43.0002C313.347 37.8321 310.905 34.4693 306.232 34.4693C301.701 34.4693 298.586 38.2923 298.232 42.54V65.5841C298.232 66.5044 297.737 67 296.816 67H287.613C286.692 67 286.197 66.5044 286.197 65.5841V43.0002C286.197 37.8321 283.754 34.4693 279.082 34.4693C274.268 34.4693 271.047 38.7879 271.047 43.3896V65.5841C271.047 66.5044 270.551 67 269.631 67H260.427C259.507 67 259.011 66.5044 259.011 65.5841V25.5844C259.011 24.6641 259.507 24.1685 260.427 24.1685H267.471C268.286 24.1685 268.781 24.4871 269.1 25.2659L270.02 27.4959C273.312 24.6995 277.524 23.1066 282.338 23.1066C287.861 23.1066 292.321 25.3367 295.082 29.6552C298.551 25.5137 303.542 23.1066 309.489 23.1066ZM349.821 68.0619C336.689 68.0619 327.521 57.9381 327.521 45.832C327.521 33.6552 336.193 23.4606 348.795 23.4606C362.423 23.4606 370.352 32.9118 370.352 45.7613C370.352 46.6462 370.317 47.5311 370.211 48.5577C370.104 49.4426 369.574 49.8674 368.724 49.8674H339.875C341.468 54.6815 345.574 57.3718 350.317 57.3718C353.574 57.3718 355.91 56.3806 358.105 54.8231C358.848 54.2568 359.52 54.3629 360.051 55.1063L364.405 61.3009C364.901 62.0089 364.83 62.7169 364.158 63.2478C360.37 66.1858 355.521 68.0619 349.821 68.0619ZM339.768 41.0179H358.459C357.149 36.3454 353.786 33.7614 349.184 33.7614C344.689 33.7614 341.149 36.4162 339.768 41.0179Z" fill="black"/>
<path d="M54.9982 39.7061C54.9982 54.8731 42.6864 67.1684 27.4991 67.1684C12.3118 67.1684 0 54.8731 0 39.7061C0 24.5391 12.3118 12.2437 27.4991 12.2437C42.6864 12.2437 54.9982 24.5391 54.9982 39.7061ZM11.8246 39.7061C11.8246 48.3513 18.8423 55.3596 27.4991 55.3596C36.1559 55.3596 43.1736 48.3513 43.1736 39.7061C43.1736 31.0609 36.1559 24.0526 27.4991 24.0526C18.8423 24.0526 11.8246 31.0609 11.8246 39.7061Z" fill="#FCD2BF"/>
<path d="M54.9982 39.7061C54.9982 45.4444 53.1983 51.0386 49.8512 55.7029C46.5042 60.3672 41.7782 63.8672 36.337 65.7115C30.8959 67.5557 25.0129 67.6515 19.5145 65.9853C14.016 64.3191 9.17831 60.9747 5.68084 56.4218C2.18338 51.8689 0.201859 46.3363 0.0146059 40.601C-0.172647 34.8658 1.44377 29.216 4.63683 24.4452C7.82989 19.6745 12.4392 16.0225 17.8172 14.0021C23.1953 11.9818 29.072 11.6946 34.6219 13.181L31.5591 24.5868C28.3957 23.7396 25.0459 23.9032 21.9804 25.0548C18.9149 26.2064 16.2876 28.2881 14.4676 31.0074C12.6476 33.7267 11.7262 36.9471 11.8329 40.2162C11.9397 43.4853 13.0691 46.6389 15.0627 49.2341C17.0562 51.8292 19.8137 53.7355 22.9479 54.6852C26.082 55.6349 29.4353 55.5804 32.5367 54.5292C35.6382 53.4779 38.332 51.4829 40.2398 48.8243C42.1476 46.1656 43.1736 42.9769 43.1736 39.7061H54.9982Z" fill="#F44900"/>
</svg>
