<svg width="357" height="97" viewBox="0 0 357 97" fill="none" xmlns="http://www.w3.org/2000/svg">
<g clip-path="url(#clip0_1128_4046)">
<mask id="mask0_1128_4046" style="mask-type:luminance" maskUnits="userSpaceOnUse" x="0" y="0" width="357" height="97">
<path d="M356.56 0H0V96.38H356.56V0Z" fill="white"/>
</mask>
<g mask="url(#mask0_1128_4046)">
<path d="M39.05 52.75V54.1H24.78L13.07 35.85V54.1H0V0.849976H13.06V31.88C18.6 30.82 23.43 24.85 23.99 17.96H36.98C36.41 25.42 32.79 31.88 27.11 35.28L39.04 52.75H39.05Z" fill="white"/>
<path d="M69.44 17.18V30.67C68.38 30.24 66.32 30.03 64.9 30.03C62.77 30.03 59.72 30.38 56.81 32.02V54.1H43.75V17.89H56.81V24.78C59.65 20.17 63.84 17.04 68.03 17.04C68.6 17.04 69.09 17.11 69.45 17.18H69.44Z" fill="white"/>
<path d="M100.96 17.89H114.09V54.1H100.96V50.55C98.3296 53.25 94.2096 54.95 89.8796 54.95C80.0796 54.95 72.5596 47.49 72.5596 35.99C72.5596 24.49 80.0896 17.03 89.8796 17.03C94.2096 17.03 98.3296 18.73 100.96 21.43V17.88V17.89ZM100.96 41.75V30.25C98.8996 28.55 96.0596 27.41 93.4296 27.41C88.8096 27.41 85.1196 30.68 85.0496 36C85.1196 41.33 88.8096 44.59 93.4296 44.59C96.0596 44.59 98.8996 43.45 100.96 41.75Z" fill="white"/>
<path d="M135.25 17.75V17.89H149.52V27.83H135.25V54.1H122.19V18.74C122.19 8.94 126.81 0 140.79 0C144.41 0 149.59 0.71 151.65 1.78V11.93C149.73 11.15 146.32 10.65 144.05 10.65C139.86 10.65 135.25 12.28 135.25 17.75Z" fill="white"/>
<path d="M179.2 43.52V53.96C176.79 54.53 173.16 54.95 170.47 54.95C156.48 54.95 153.86 44.37 153.86 36.63V13.28L165.86 7.09998H166.92V17.96L178.07 17.89V27.83H166.92V36.85C166.92 41.75 169.55 44.16 173.74 44.16C175.37 44.16 177.43 43.95 179.21 43.52H179.2Z" fill="white"/>
<path d="M228.41 17.89H242.75V18.6L227.63 54.1H219.32L211.58 37.27L203.98 54.1H195.67L180.55 18.67V17.89H194.82L201.14 36.7L208.67 19.8H214.21L222.16 36.7L228.41 17.89Z" fill="white"/>
<path d="M279.95 36C279.95 36.71 279.88 37.99 279.81 38.63H255.24C256.3 43.1 259.64 45.52 265.18 45.52C269.09 45.52 274.55 44.38 277.61 42.96V51.91C275.05 53.26 269.16 54.96 263.34 54.96C250.63 54.96 243.53 46.58 243.53 35.72C243.53 24.01 251.55 17.05 262.49 17.05C273.43 17.05 280.03 24.65 279.96 36.01L279.95 36ZM255.31 31.88H268.66C268.02 28.12 265.82 26.34 262.34 26.34C258.86 26.34 256.23 28.33 255.31 31.88Z" fill="white"/>
<path d="M311.76 17.18V30.67C310.7 30.24 308.64 30.03 307.22 30.03C305.09 30.03 302.04 30.38 299.13 32.02V54.1H286.07V17.89H299.13V24.78C301.97 20.17 306.16 17.04 310.35 17.04C310.92 17.04 311.41 17.11 311.77 17.18H311.76Z" fill="white"/>
<path d="M356.2 52.75V54.1H341.93L330.22 35.85V54.1H317.16V0.849976H330.22V31.88C335.76 30.82 340.59 24.85 341.15 17.96H354.14C353.57 25.42 349.95 31.88 344.27 35.28L356.2 52.75Z" fill="white"/>
<path d="M12.6901 73.28H4.04008V79.83H10.9001V82.1H4.04008V88.29H12.6901V90.59H1.58008V70.99H12.7001V73.29L12.6901 73.28Z" fill="white"/>
<path d="M28.4896 81.65V90.58H26.2196V81.65C26.2196 79.24 24.7596 78.04 22.7796 78.04C21.0396 78.04 19.3896 79.13 18.4396 80.76V90.59H16.1396V76.31H18.4396V78.3C19.4996 76.9 21.3196 75.98 23.2796 75.98C26.3296 75.98 28.4896 78.02 28.4896 81.66V81.65Z" fill="white"/>
<path d="M45.4496 83.55H34.4496C34.5596 86.88 36.7696 88.84 39.6296 88.84C41.1096 88.84 43.0696 88.34 44.6696 87.61V89.71C43.3796 90.44 41.2496 90.91 39.4596 90.91C34.7796 90.91 32.0996 87.66 32.0996 83.32C32.0996 78.7 35.1196 75.96 39.0396 75.96C43.1596 75.96 45.4796 78.9 45.4796 82.79C45.4796 83.1 45.4796 83.35 45.4496 83.55ZM34.6096 81.7H43.0896C42.9196 79.54 41.4396 78.03 39.0896 78.03C36.7396 78.03 35.1396 79.4 34.6096 81.7Z" fill="white"/>
<path d="M56.7096 75.99V78.57C56.4896 78.49 55.9297 78.46 55.6697 78.46C54.6297 78.46 52.8697 78.8 51.4397 80.2V90.59H49.1396V76.31H51.4397V78.52C52.4197 77.37 54.2396 75.97 56.2796 75.97C56.4496 75.97 56.5896 75.97 56.6996 76L56.7096 75.99Z" fill="white"/>
<path d="M70.6205 76.3H72.9205V88.98C72.8905 93.49 69.7805 96.37 65.3605 96.37C63.4305 96.37 61.1605 95.84 59.6805 95.03V92.96C61.2205 93.77 63.4905 94.3 65.3605 94.3C68.5005 94.3 70.6205 92.42 70.6205 88.84V88.76C69.5005 90.02 67.5405 90.92 65.3805 90.92C61.5405 90.92 58.2705 88.04 58.2705 83.44C58.2705 78.84 61.5505 75.96 65.3805 75.96C67.5405 75.96 69.5005 76.86 70.6205 78.12V76.3ZM70.6205 86.49V80.39C69.4205 78.93 67.4305 78.04 65.6905 78.04C63.0005 78.04 60.6805 80.06 60.6205 83.44C60.6805 86.83 63.0005 88.84 65.6905 88.84C67.4305 88.84 69.4105 87.92 70.6205 86.49Z" fill="white"/>
<path d="M77.3701 71.37C77.3701 70.47 78.1001 69.75 78.9701 69.75C79.8901 69.75 80.5701 70.48 80.5701 71.37C80.5701 72.26 79.8401 72.97 78.9701 72.97C78.1001 72.97 77.3701 72.24 77.3701 71.37ZM77.8201 90.58V76.3H80.1201V90.58H77.8201Z" fill="white"/>
<path d="M97.2797 83.55H86.2797C86.3897 86.88 88.5997 88.84 91.4597 88.84C92.9397 88.84 94.8997 88.34 96.4997 87.61V89.71C95.2097 90.44 93.0797 90.91 91.2897 90.91C86.6097 90.91 83.9297 87.66 83.9297 83.32C83.9297 78.7 86.9497 75.96 90.8697 75.96C94.9897 75.96 97.3097 78.9 97.3097 82.79C97.3097 83.1 97.3097 83.35 97.2797 83.55ZM86.4397 81.7H94.9197C94.7497 79.54 93.2697 78.03 90.9197 78.03C88.5697 78.03 86.9697 79.4 86.4397 81.7Z" fill="white"/>
<path d="M100.05 89.18C100.05 88.28 100.78 87.56 101.67 87.56C102.62 87.56 103.29 88.29 103.29 89.18C103.29 90.07 102.56 90.83 101.67 90.83C100.78 90.83 100.05 90.1 100.05 89.18Z" fill="white"/>
<path d="M112.65 89.01V86.57C113.88 87.83 115.84 88.56 117.8 88.61C120.26 88.64 121.92 87.46 121.92 85.47C121.92 84.07 121.16 83.2 119.88 82.67L116.38 81.27C113.75 80.26 112.63 78.22 112.63 76.01C112.63 72.82 115.15 70.63 118.82 70.63C120.33 70.63 122.35 71.08 123.38 71.69V74.18C122.26 73.37 120.3 72.95 118.87 72.92C116.13 72.86 115.12 74.35 115.12 76C115.12 77.12 115.57 78.32 117.3 79.14L120.91 80.6C123.04 81.36 124.44 83.06 124.44 85.53C124.44 89.09 121.19 90.91 117.94 90.91C115.87 90.91 113.71 90.07 112.65 89.01Z" fill="white"/>
<path d="M126.99 83.41C126.99 79.13 130.35 75.96 134.55 75.96C138.75 75.96 142.11 79.12 142.11 83.41C142.11 87.7 138.78 90.91 134.55 90.91C130.32 90.91 126.99 87.69 126.99 83.41ZM139.79 83.41C139.79 80.36 137.38 78.03 134.55 78.03C131.72 78.03 129.34 80.35 129.34 83.41C129.34 86.47 131.78 88.84 134.55 88.84C137.32 88.84 139.79 86.49 139.79 83.41Z" fill="white"/>
<path d="M148.18 75.82V76.3H153.89V78.26H148.18V90.58H145.88V75.77C145.88 71.65 148.2 69.25 151.9 69.25C153.24 69.25 154.5 69.5 155.23 69.89V71.96C154.47 71.57 153.35 71.32 152.21 71.32C149.66 71.32 148.18 73.08 148.18 75.83V75.82Z" fill="white"/>
<path d="M164.4 88.54V90.58C163.73 90.78 162.83 90.92 161.88 90.92C158.21 90.92 156.53 88.32 156.53 84.87V73.92L158.49 72.27H158.83V76.3H164.07V78.26H158.83V84.81C158.83 86.88 159.64 88.84 162.22 88.84C163 88.84 163.76 88.7 164.4 88.53V88.54Z" fill="white"/>
<path d="M185.96 76.3H188.42V76.5L182.57 90.58H182.26L176.94 80.86L171.7 90.58H171.36L165.42 76.5V76.3H167.88L171.8 86.07L176.53 77.05H177.26L182.16 85.98L185.94 76.29L185.96 76.3Z" fill="white"/>
<path d="M202.08 76.3H204.38V90.58H202.08V89.1C200.93 90.16 199.11 90.92 197.15 90.92C193.31 90.92 190.04 88.04 190.04 83.44C190.04 78.84 193.32 75.96 197.15 75.96C199.11 75.96 200.93 76.72 202.08 77.78V76.3ZM202.08 86.83V80.05C200.88 78.79 199.11 78.03 197.46 78.03C194.77 78.03 192.45 80.05 192.39 83.43C192.45 86.82 194.77 88.83 197.46 88.83C199.06 88.83 200.85 88.07 202.08 86.81V86.83Z" fill="white"/>
<path d="M216.87 75.99V78.57C216.65 78.49 216.09 78.46 215.83 78.46C214.79 78.46 213.03 78.8 211.6 80.2V90.59H209.3V76.31H211.6V78.52C212.58 77.37 214.4 75.97 216.44 75.97C216.61 75.97 216.75 75.97 216.86 76L216.87 75.99Z" fill="white"/>
<path d="M231.76 83.55H220.76C220.87 86.88 223.08 88.84 225.94 88.84C227.42 88.84 229.38 88.34 230.98 87.61V89.71C229.69 90.44 227.56 90.91 225.77 90.91C221.09 90.91 218.41 87.66 218.41 83.32C218.41 78.7 221.43 75.96 225.35 75.96C229.47 75.96 231.79 78.9 231.79 82.79C231.79 83.1 231.79 83.35 231.76 83.55ZM220.92 81.7H229.4C229.23 79.54 227.75 78.03 225.4 78.03C223.05 78.03 221.45 79.4 220.92 81.7Z" fill="white"/>
<path d="M234.53 89.18C234.53 88.28 235.26 87.56 236.15 87.56C237.1 87.56 237.77 88.29 237.77 89.18C237.77 90.07 237.04 90.83 236.15 90.83C235.26 90.83 234.53 90.1 234.53 89.18Z" fill="white"/>
<path d="M247.13 89.01V86.57C248.36 87.83 250.32 88.56 252.28 88.61C254.74 88.64 256.4 87.46 256.4 85.47C256.4 84.07 255.64 83.2 254.36 82.67L250.86 81.27C248.23 80.26 247.11 78.22 247.11 76.01C247.11 72.82 249.63 70.63 253.3 70.63C254.81 70.63 256.83 71.08 257.86 71.69V74.18C256.74 73.37 254.78 72.95 253.35 72.92C250.61 72.86 249.6 74.35 249.6 76C249.6 77.12 250.05 78.32 251.78 79.14L255.39 80.6C257.52 81.36 258.92 83.06 258.92 85.53C258.92 89.09 255.67 90.91 252.42 90.91C250.35 90.91 248.19 90.07 247.13 89.01Z" fill="white"/>
<path d="M274.88 83.55H263.88C263.99 86.88 266.2 88.84 269.06 88.84C270.54 88.84 272.5 88.34 274.1 87.61V89.71C272.81 90.44 270.68 90.91 268.89 90.91C264.21 90.91 261.53 87.66 261.53 83.32C261.53 78.7 264.55 75.96 268.47 75.96C272.59 75.96 274.91 78.9 274.91 82.79C274.91 83.1 274.91 83.35 274.88 83.55ZM264.04 81.7H272.52C272.35 79.54 270.87 78.03 268.52 78.03C266.17 78.03 264.57 79.4 264.04 81.7Z" fill="white"/>
<path d="M286.14 75.99V78.57C285.92 78.49 285.36 78.46 285.1 78.46C284.06 78.46 282.3 78.8 280.87 80.2V90.59H278.57V76.31H280.87V78.52C281.85 77.37 283.67 75.97 285.71 75.97C285.88 75.97 286.02 75.97 286.13 76L286.14 75.99Z" fill="white"/>
<path d="M298.88 76.3H301.26V76.5L294.37 90.58H294.15L287.23 76.5V76.3H289.61L294.26 86.18L298.88 76.3Z" fill="white"/>
<path d="M303.72 71.37C303.72 70.47 304.45 69.75 305.32 69.75C306.24 69.75 306.92 70.48 306.92 71.37C306.92 72.26 306.19 72.97 305.32 72.97C304.45 72.97 303.72 72.24 303.72 71.37ZM304.17 90.58V76.3H306.47V90.58H304.17Z" fill="white"/>
<path d="M310.22 83.44C310.22 78.96 313.69 75.96 318.03 75.96C319.49 75.96 320.8 76.3 321.89 76.91V79.23H321.75C320.8 78.45 319.34 78.03 318.08 78.03C315.06 78.03 312.56 80.19 312.56 83.43C312.56 86.67 315.05 88.83 318.08 88.83C319.34 88.83 320.8 88.41 321.75 87.63H321.89V89.95C320.8 90.57 319.48 90.9 318.03 90.9C313.69 90.9 310.22 87.9 310.22 83.42V83.44Z" fill="white"/>
<path d="M337.661 83.55H326.661C326.771 86.88 328.981 88.84 331.841 88.84C333.321 88.84 335.281 88.34 336.881 87.61V89.71C335.591 90.44 333.461 90.91 331.671 90.91C326.991 90.91 324.311 87.66 324.311 83.32C324.311 78.7 327.331 75.96 331.251 75.96C335.371 75.96 337.691 78.9 337.691 82.79C337.691 83.1 337.691 83.35 337.661 83.55ZM326.821 81.7H335.301C335.131 79.54 333.651 78.03 331.301 78.03C328.951 78.03 327.351 79.4 326.821 81.7Z" fill="white"/>
<path d="M340.43 89.82V87.69C341.66 88.42 343.65 88.87 344.97 88.87C346.79 88.87 348.33 88.09 348.33 86.77C348.33 85.65 347.46 85.12 346.31 84.81L343.82 84.11C341.36 83.44 340.32 82.09 340.32 79.97C340.32 77.45 342.78 75.97 345.67 75.97C347.24 75.97 348.83 76.39 349.65 76.92V79.05C348.45 78.35 346.82 78.04 345.53 78.04C344.1 78.04 342.67 78.63 342.67 80.03C342.67 80.95 343.34 81.54 344.69 81.91L346.9 82.55C349.73 83.25 350.65 84.71 350.65 86.78C350.65 89.5 348.16 90.92 344.8 90.92C343.2 90.92 341.24 90.39 340.43 89.83V89.82Z" fill="white"/>
<path d="M353.311 89.18C353.311 88.28 354.041 87.56 354.931 87.56C355.881 87.56 356.551 88.29 356.551 89.18C356.551 90.07 355.821 90.83 354.931 90.83C354.041 90.83 353.311 90.1 353.311 89.18Z" fill="white"/>
</g>
</g>
<defs>
<clipPath id="clip0_1128_4046">
<rect width="357" height="97" fill="white"/>
</clipPath>
</defs>
</svg>
